<svg xmlns="http://www.w3.org/2000/svg" viewBox="0 0 1107.2 387.15">
  <path d="M434.16 0a2.5 2.5 0 00-2.5 2.5v38.62h-38.6a2.5 2.5 0 00-2.5 2.5v76.2l-36.8-36.78a2.5 2.5 0 00-.06-.08 2.5 2.5 0 00-.02-.02 2.5 2.5 0 00-.08-.07 2.5 2.5 0 00-.02-.02 2.5 2.5 0 00-.08-.06 2.5 2.5 0 00-.02-.02 2.5 2.5 0 00-.09-.07 2.5 2.5 0 00-.02-.01 2.5 2.5 0 00-.08-.06 2.5 2.5 0 00-.03-.02 2.5 2.5 0 00-.09-.05 2.5 2.5 0 00-.03-.02 2.5 2.5 0 00-.02 0 2.5 2.5 0 00-.09-.05 2.5 2.5 0 00-.1-.05 2.5 2.5 0 00-.12-.05 2.5 2.5 0 00-.1-.04 2.5 2.5 0 00-.02 0 2.5 2.5 0 00-.04-.01 2.5 2.5 0 00-.1-.03 2.5 2.5 0 00-.02 0 2.5 2.5 0 00-.1-.03 2.5 2.5 0 00-.13-.02 2.5 2.5 0 00-.14-.02 2.5 2.5 0 00-.13 0 2.5 2.5 0 00-.1-.01h-41.11a2.5 2.5 0 00-2.5 2.5v82.23a2.5 2.5 0 002.5 2.5h41.11a2.5 2.5 0 002.5-2.5v-38.61h37.59l40.37 40.38a2.5 2.5 0 004.27-1.77v-38.61h668.04a2.5 2.5 0 002.5-2.5 2.5 2.5 0 00-2.5-2.5H518.9V84.73a2.5 2.5 0 00-2.5-2.5h-38.62V2.5a2.5 2.5 0 00-2.5-2.5h-41.12zm2.5 5h36.12v118.35h-36.12V5zm-41.1 41.12h36.1v114.8l-36.1-36.1v-78.7zm-82.24 41.11h36.11v77.23h-36.11V87.23zm164.46 0h36.11l.01 36.12h-36.12V87.23zm-123.35 3.54l32.59 32.58h-32.59V90.77z"/>
  <path d="M6.13 108.08v61.3H0v-61.3h6.13m30.64 17.9c12.26 0 18.88 8.27 19.66 18.49l-5.45.39c-.59-8.08-5.55-13.92-14.4-13.92-8.85 0-14.89 6.91-14.89 17.32s6.04 17.32 14.89 17.32c8.85 0 13.81-6.03 14.4-14.1l5.45.58c-.78 10.21-7.4 18.48-19.66 18.48-12.55 0-21.3-8.85-21.3-22.28 0-13.42 8.75-22.28 21.3-22.28m60.51 19.56c-.19-7.79-4.57-14.89-13.52-14.89-8.37 0-13.81 7-14.79 14.89zm6.23 9.43c-2.04 9.64-9.05 15.57-19.36 15.57-12.26 0-21.4-8.66-21.4-21.7 0-13.32 9.04-22.86 21.01-22.86 13.23 0 19.85 9.54 19.85 21.02v2.72H68.88c.38 9.34 6.9 15.95 15.27 15.95 7.78 0 12.55-3.89 14.3-11.38l5.06.68m14.89-46.89v61.3h-5.94v-61.3h5.93m38.53 39.5l-10.31 2.24c-7.69 1.65-12.46 3.2-12.46 8.85 0 3.99 2.63 7.3 8.18 7.3 8.27 0 14.59-6.33 14.59-15.76zm5.64 14.7c0 2.23 1.36 3.3 3.5 3.3.98 0 2.63-.4 3.8-1.07v3.21a6.47 6.47 0 01-5.55 2.53c-4.18 0-7.2-3.6-7.4-8.95-2.23 4.96-8.45 9.24-15.65 9.24-7.89 0-13.14-4.38-13.14-11.67 0-7.98 7-11.2 17.51-13.33l11.29-2.34v-2.14c0-6.42-3.8-10.4-10.41-10.4-6.81 0-10.6 3.98-12.06 9.43l-5.06-.98c1.65-7.58 7.88-13.13 17.02-13.13 10.5 0 16.15 5.55 16.15 15.96v20.33m19.94 7.1h-5.93v-42.22h5.93v7.78c2.05-5.15 7.89-8.95 14.2-8.95 10.9 0 15.48 7.1 15.48 17.22v26.17h-5.94v-26.36c0-7.5-3.89-12.36-11.09-12.36-6.71 0-12.65 5.25-12.65 13.43v25.3m73.36-22.58c0-10.12-6.62-15.95-14.99-15.95-8.95 0-14.1 6.71-14.1 17.41s5.15 17.41 14.1 17.41c8.37 0 14.99-5.83 14.99-15.95zm-.2 13.33c-1.85 5.35-7.4 10.41-15.56 10.41-12.55 0-19.56-9.83-19.56-22.28 0-12.45 7-22.28 19.56-22.28 8.17 0 13.71 5.16 15.56 10.5v-28.4h5.94v61.3h-5.94v-9.25M6.13 208.7v56.13h35.22V270H0v-61.3h6.13m50.39 19.07v42.22H50.6v-42.22zM50.4 208.7h6.33v7.88H50.4v-7.88m50.49 37.45c-.2-7.78-4.58-14.88-13.53-14.88-8.36 0-13.81 7-14.78 14.88zm6.22 9.44c-2.04 9.63-9.04 15.57-19.36 15.57-12.26 0-21.4-8.66-21.4-21.7 0-13.33 9.05-22.86 21.01-22.86 13.24 0 19.85 9.53 19.85 21.01v2.73H72.48c.39 9.34 6.9 15.95 15.27 15.95 7.79 0 12.55-3.89 14.3-11.38l5.06.68m28.69-28.99c12.27 0 18.88 8.27 19.66 18.48l-5.45.4c-.58-8.08-5.54-13.92-14.4-13.92-8.85 0-14.88 6.9-14.88 17.32 0 10.4 6.03 17.32 14.89 17.32 8.85 0 13.81-6.04 14.4-14.11l5.44.58c-.78 10.22-7.4 18.49-19.65 18.49-12.55 0-21.3-8.86-21.3-22.28 0-13.43 8.75-22.28 21.3-22.28m35.41 43.4h-5.93v-61.3h5.93v26.85c2.04-5.16 7.88-8.95 14.2-8.95 10.9 0 15.47 7.1 15.47 17.22v26.17h-5.93v-26.37c0-7.49-3.9-12.35-11.1-12.35-6.7 0-12.64 5.25-12.64 13.42V270m43.29-37.86H208v-2.91l2.53-.5c3.9-.77 4.67-2.62 5.55-6.7l1.26-6.04h3.02v11.78h12.26v4.37h-12.26v28.6c0 3.8 1.56 5.65 5.45 5.65 2.91 0 5.83-1.46 8.27-2.92v4.18a15.58 15.58 0 01-10.32 3.5c-5.64 0-9.24-2.81-9.24-10.5v-28.5m59.04 14c-.2-7.78-4.57-14.88-13.52-14.88-8.37 0-13.81 7-14.79 14.88zm6.23 9.44c-2.04 9.63-9.05 15.57-19.36 15.57-12.26 0-21.4-8.66-21.4-21.7 0-13.33 9.04-22.86 21.01-22.86 13.23 0 19.85 9.53 19.85 21.01v2.73h-34.73c.39 9.34 6.9 15.95 15.27 15.95 7.78 0 12.55-3.89 14.3-11.38l5.06.68M295.65 270h-5.94v-42.23h5.94v7.78c2.04-5.16 7.88-8.95 14.2-8.95 10.9 0 15.47 7.1 15.47 17.22v26.17h-5.93v-26.37c0-7.49-3.9-12.35-11.1-12.35-6.7 0-12.64 5.25-12.64 13.42V270m43.58-14.9c.88 7.3 5.84 11.39 13.91 11.39 6.52 0 11.1-2.43 11.1-7.4 0-4.67-3.32-6.13-9.25-7.2l-7.3-1.26c-7.39-1.27-11.96-4.67-11.96-11.48 0-7.59 6.32-12.55 15.56-12.55 10.9 0 17.22 5.15 17.9 15.18l-4.57.39c-1.07-7.6-5.54-10.9-13.33-10.9-6.03 0-10.02 2.72-10.02 7.2 0 4.08 2.43 6.13 7.69 7l7.78 1.27c8.27 1.36 13.14 4.28 13.14 11.77 0 8.27-7.4 12.65-16.64 12.65-10.22 0-18.1-5.06-18.78-15.47l4.77-.58m42.02-22.97h-6.51v-2.91l2.53-.5c3.89-.77 4.67-2.62 5.54-6.7l1.27-6.04h3.01v11.78h12.26v4.37H387.1v28.6c0 3.8 1.56 5.65 5.45 5.65 2.92 0 5.84-1.46 8.27-2.92v4.18a15.57 15.57 0 01-10.31 3.5c-5.64 0-9.25-2.81-9.25-10.5v-28.5m59.04 14c-.19-7.78-4.56-14.88-13.51-14.88-8.37 0-13.82 7-14.8 14.88zm6.23 9.44c-2.04 9.63-9.04 15.57-19.36 15.57-12.25 0-21.4-8.66-21.4-21.7 0-13.33 9.05-22.86 21.02-22.86 13.23 0 19.84 9.53 19.84 21.01v2.73H411.9c.39 9.34 6.9 15.95 15.27 15.95 7.79 0 12.56-3.89 14.3-11.38l5.06.68m15.87-27.82v42.22h-5.94v-42.22zm-6.14-19.07h6.33v7.88h-6.33v-7.88m24.71 61.3h-5.93v-42.23h5.93v7.78c2.05-5.16 7.88-8.95 14.2-8.95 10.9 0 15.48 7.1 15.48 17.22v26.17h-5.94v-26.37c0-7.49-3.9-12.35-11.09-12.35-6.71 0-12.65 5.25-12.65 13.42V270M43 359.8v-50.49h5.84v61.3h-4.86L5.84 317.78v52.83H0v-61.3h6.81l36.2 50.5m36.28 7.29c9.53 0 14.98-7.3 14.98-17.6 0-10.32-5.45-17.61-14.98-17.61-9.44 0-14.89 7.3-14.89 17.6 0 10.32 5.45 17.62 14.89 17.62zm0 4.67c-11.97 0-21.11-9.14-21.11-22.27 0-13.14 9.14-22.28 21.1-22.28 12.07 0 21.22 9.14 21.22 22.28 0 13.13-9.15 22.27-21.21 22.27m53.51-37.45c-2.44-1.27-3.9-1.66-6.43-1.66-6.13 0-11.09 6.33-11.09 14.8v23.15h-5.93v-42.23h5.93v8.86c1.66-4.87 5.94-10.02 12.16-10.02 2.63 0 4.48.58 6.03 1.94l-.68 5.16m44.85 28.31h.4l10.4-34.25h5.64l-13.42 42.23H175l-9.82-33.66h-.39l-9.73 33.66h-5.64l-13.52-42.23h5.93l10.6 34.25h.4l9.72-34.25h5.16l9.92 34.25m49.63-13.82l-10.31 2.24c-7.7 1.66-12.46 3.21-12.46 8.85 0 4 2.63 7.3 8.17 7.3 8.27 0 14.6-6.32 14.6-15.76zm5.64 14.7c0 2.23 1.36 3.3 3.5 3.3.98 0 2.63-.39 3.8-1.07v3.21a6.46 6.46 0 01-5.55 2.53c-4.18 0-7.2-3.6-7.4-8.95-2.23 4.96-8.46 9.24-15.66 9.24-7.88 0-13.13-4.37-13.13-11.67 0-7.98 7-11.19 17.51-13.33l11.29-2.33v-2.15c0-6.42-3.8-10.4-10.41-10.4-6.81 0-10.6 3.98-12.07 9.43l-5.06-.97c1.66-7.59 7.89-13.13 17.03-13.13 10.5 0 16.15 5.54 16.15 15.95v20.33m18.48 23.65l7.1-16.83-17.9-41.94h6.23l14.5 34.73h.39l14-34.73h5.84l-24.32 58.77h-5.84m383.69-141.68h18.68l-9.24-22.96h-.39zm16.45-36.77l25 61.3h-12.94l-6.13-15.19h-26.07L625.44 270h-12.26L638 208.7h13.53m49.89 17.22c12.75 0 19.75 8.36 20.73 18.68l-9.83.68c-.88-6.42-4.47-10.41-10.9-10.41-6.42 0-10.9 4.77-10.9 13.72 0 8.85 4.48 13.62 10.9 13.62 6.43 0 10.02-4.09 10.9-10.6l9.83.87c-.98 10.3-7.98 18.68-20.73 18.68-13.23 0-22.67-8.95-22.67-22.57 0-13.63 9.44-22.67 22.67-22.67m29.38 9.34h-6.13v-6.91l2.92-.49c4.18-.68 5.35-2.82 6.33-6.8l1.36-5.84h7.1v11.86h11.67v8.18h-11.67v21.2c0 3.7 1.65 5.36 5.15 5.36 2.34 0 4.77-.88 7.3-2.05v7.69c-3.11 2.33-6.61 3.7-11.87 3.7-6.61 0-12.16-2.92-12.16-12.07v-23.83m42.32-8.18V270h-11.67v-42.9zm-11.87-18.38h11.97v11.38h-11.97V208.7M795.2 270l-16.93-42.92h12.26l11.39 29.97h.39l11.28-29.97h11.38L808.05 270H795.2m63.92-25.8c-.39-4.95-3.4-9.72-9.92-9.72-6.42 0-9.63 4.38-10.7 9.73zm11.1 11.78c-2.25 9.53-9.64 15.18-20.63 15.18-13.23 0-22.77-8.47-22.77-21.99 0-13.52 9.63-23.25 22.48-23.25 14 0 21.2 9.73 21.2 21.4v4.18h-32.2c.4 6.33 5.35 10.8 11.68 10.8 5.74 0 9.14-2.43 10.8-7.3l9.43.98M637.7 326.53c12.75 0 19.75 8.37 20.72 18.68l-9.82.68c-.88-6.42-4.48-10.4-10.9-10.4s-10.9 4.76-10.9 13.71c0 8.86 4.48 13.62 10.9 13.62s10.02-4.08 10.9-10.6l9.82.87c-.97 10.32-7.97 18.68-20.72 18.68-13.23 0-22.67-8.95-22.67-22.57 0-13.62 9.44-22.67 22.67-22.67m39.6 1.17v42.9h-11.68v-42.9zm-11.87-18.39h11.96v11.39h-11.96v-11.4m23.15 26.57h-6.13v-6.9l2.92-.49c4.18-.68 5.35-2.82 6.32-6.8l1.36-5.85h7.1v11.87h11.68v8.17h-11.67v21.21c0 3.7 1.65 5.35 5.15 5.35 2.34 0 4.77-.87 7.3-2.04v7.69c-3.11 2.33-6.62 3.7-11.87 3.7-6.61 0-12.16-2.93-12.16-12.07v-23.84m42.32-8.17v42.9h-11.68v-42.9zm-11.87-18.39h11.96v11.39h-11.96v-11.4m20.04 27.06v-8.66h36.19v7.98l-22.77 26.27h23.35v8.66h-37.36v-7.98l22.38-26.27h-21.8m73.07 8.47c-.39-4.97-3.4-9.73-9.92-9.73-6.42 0-9.63 4.37-10.7 9.73zm11.1 11.77c-2.24 9.53-9.64 15.17-20.63 15.17-13.23 0-22.77-8.46-22.77-21.98 0-13.53 9.63-23.26 22.48-23.26 14 0 21.2 9.73 21.2 21.4v4.2h-32.2c.4 6.32 5.35 10.79 11.68 10.79 5.74 0 9.14-2.43 10.8-7.3l9.43.98m19.46 14H831v-42.9h11.68v7c2.14-4.86 7.59-8.17 14-8.17 11.49 0 15.67 7.79 15.67 17.32v26.76h-11.67v-24.42c0-6.62-2.63-10.41-8.37-10.41-5.93 0-9.63 4.67-9.63 11.87v22.96m46.02-14.6c.68 5.16 4.57 7.79 10.5 7.79 4.28 0 7.79-1.46 7.79-4.57 0-2.92-1.95-4.19-6.23-4.87l-6.81-1.17c-9.15-1.46-14.2-4.86-14.2-12.84 0-8.17 6.9-13.82 17.8-13.82 11.87 0 18.97 5.36 19.75 14.89l-9.63.39c-.78-4.86-4.09-7.3-10.22-7.3-4.18 0-6.9 1.85-6.9 4.77 0 2.33 1.55 3.7 4.66 4.18l8.18 1.37c9.04 1.45 14.4 5.25 14.4 13.32 0 8.76-7.6 13.62-18.68 13.62-11.2 0-19.75-4.86-20.53-15.37l10.11-.39m49.91-23.25v-4.38h6.52v-5.93c0-8.37 4.67-14.3 13.23-14.3 7.1 0 10.7 3.11 12.65 9.34l-4.38 1.65c-1.07-3.8-3.9-6.62-8.27-6.62-4.96 0-7.3 3.41-7.3 9.15v6.71h12.16v4.38h-12.16v37.85h-5.93v-37.85h-6.52m60.13-4.38h5.93v42.23h-5.93v-7.79c-2.05 5.16-7.7 8.95-14.02 8.95-10.9 0-15.17-7.1-15.17-17.22v-26.17h5.93v26.37c0 7.49 3.6 12.36 10.8 12.36 6.71 0 12.46-5.26 12.46-13.43v-25.3m23.54 42.22h-5.94v-42.22h5.94v7.79c2.04-5.16 7.88-8.95 14.2-8.95 10.9 0 15.47 7.1 15.47 17.22v26.17h-5.93v-26.37c0-7.49-3.9-12.35-11.1-12.35-6.7 0-12.64 5.25-12.64 13.42v25.3m73.35-22.58c0-10.11-6.62-15.95-14.98-15.95-8.95 0-14.11 6.71-14.11 17.42 0 10.7 5.16 17.4 14.1 17.4 8.37 0 14.99-5.83 14.99-15.95zm-.2 13.33c-1.84 5.35-7.39 10.41-15.56 10.41-12.55 0-19.56-9.82-19.56-22.27 0-12.46 7-22.28 19.56-22.28 8.17 0 13.72 5.15 15.57 10.5v-28.4h5.93v61.29h-5.93v-9.25"/>
</svg>
