<svg xmlns="http://www.w3.org/2000/svg" viewBox="0 0 136.29 73.69">
  <g stroke="#000">
    <path fill="#ff7a40" d="M13.36 29A67.27 67.27 0 00.5 68.55h34.42a33 33 0 016.28-19.33z"/>
    <path fill="#ffad89" d="M57.53 37.16L46.89 4.43A67.7 67.7 0 0013.36 29L41.2 49.22a33.29 33.29 0 0116.33-12.06z"/>
    <path fill="#fdd68b" d="M68.14 35.42a33.18 33.18 0 0110.46 1.69L89.24 4.37a67.64 67.64 0 00-42.35.06l10.64 32.73a33.24 33.24 0 0110.61-1.74z"/>
    <path fill="#a9d8ce" d="M95 49.05l27.84-20.23a67.75 67.75 0 00-33.6-24.45L78.6 37.11A33.3 33.3 0 0195 49.05z"/>
    <path fill="#5aa996" d="M122.81 28.82L95 49.05a33.09 33.09 0 016.4 19.5h34.42a67.31 67.31 0 00-13.01-39.73z"/>
  </g>
  <g>
    <path d="M69.87,62.8a5.14,5.14,0,1,1-3.16,9.75c-2.92-1-51.09-22-51.09-22S67,61.86,69.87,62.8Z"/>
    <path d="M72.08 64.75a5.14 5.14 0 11-8.34 6c-1.78-2.5-28.06-48-28.06-48s34.61 39.51 36.4 42z"/>
    <path d="M73.27 68.13a5.14 5.14 0 11-10.25 0c0-3.07 5.12-55.38 5.12-55.38s5.13 52.31 5.13 55.38z"/>
    <path d="M64.34,64.85a5.14,5.14,0,1,0,8.33,6c1.79-2.49,28.06-48,28.06-48S66.13,62.35,64.34,64.85Z"/>
    <path d="M66.67,63a5.14,5.14,0,1,0,3.17,9.75c2.92-1,51.08-22,51.08-22S69.59,62,66.67,63Z"/>
  </g>
</svg>
