<svg xmlns="http://www.w3.org/2000/svg" viewBox="0 0 600.75 535.14"><defs><style>.cls-1,.cls-5{fill:#fff;}.cls-1,.cls-4{stroke:#202124;stroke-width:0.75px;}.cls-1,.cls-3,.cls-4{stroke-miterlimit:10;}.cls-2{fill:#202124;}.cls-3{fill:#fdd68b;stroke:#000;}.cls-4{fill:none;}.cls-6{fill:#ffad89;}.cls-7{fill:#64bca7;}</style></defs><g id="Layer_2" data-name="Layer 2"><g id="Layer_1-2" data-name="Layer 1"><path class="cls-1" d="M17.38,43.41C16.62,45.69,26.49,257,26.49,257l197.38-51.42L211,14.56Z"/><path class="cls-2" d="M15.61,30.77l1.9,51.83L214.37,48.84,211.12,0Z"/><path class="cls-3" d="M63.7,221.81a17,17,0,0,1-18.87,0V155.15H63.7Z"/><ellipse class="cls-3" cx="54.27" cy="155.13" rx="9.43" ry="2.38"/><path class="cls-3" d="M45,159.63a25.21,25.21,0,0,0,18.52,0"/><path class="cls-3" d="M45,162.33a25.35,25.35,0,0,0,18.52,0"/><path class="cls-3" d="M45,165a25.21,25.21,0,0,0,18.52,0"/><path class="cls-3" d="M45,167.72a25.35,25.35,0,0,0,18.52,0"/><path class="cls-3" d="M45,170a25.21,25.21,0,0,0,18.52,0"/><path class="cls-3" d="M45,172.72a25.35,25.35,0,0,0,18.52,0"/><path class="cls-3" d="M45,175.41a25.21,25.21,0,0,0,18.52,0"/><path class="cls-3" d="M45,178.11a25.35,25.35,0,0,0,18.52,0"/><path class="cls-3" d="M45,180.48a25.35,25.35,0,0,0,18.52,0"/><path class="cls-3" d="M45,183.17a25.21,25.21,0,0,0,18.52,0"/><path class="cls-3" d="M45,185.86a25.21,25.21,0,0,0,18.52,0"/><path class="cls-3" d="M45,188.56a25.35,25.35,0,0,0,18.52,0"/><path class="cls-3" d="M45,190.86a25.21,25.21,0,0,0,18.52,0"/><path class="cls-3" d="M45,193.56a25.35,25.35,0,0,0,18.52,0"/><path class="cls-3" d="M45,196.25a25.21,25.21,0,0,0,18.52,0"/><path class="cls-3" d="M45,199a25.35,25.35,0,0,0,18.52,0"/><path class="cls-3" d="M45,202a25.21,25.21,0,0,0,18.52,0"/><path class="cls-3" d="M45,204.68a25.35,25.35,0,0,0,18.52,0"/><path class="cls-3" d="M45,207.37a25.21,25.21,0,0,0,18.52,0"/><path class="cls-3" d="M45,210.06a25.21,25.21,0,0,0,18.52,0"/><path class="cls-3" d="M45,212.37a25.21,25.21,0,0,0,18.52,0"/><path class="cls-3" d="M45,215.06a25.21,25.21,0,0,0,18.52,0"/><path class="cls-3" d="M45,217.76a25.21,25.21,0,0,0,18.52,0"/><path class="cls-3" d="M45,220.45a25.21,25.21,0,0,0,18.52,0"/><path class="cls-3" d="M80.07,211.07a13,13,0,0,1-14.38,0V160.25H80.07Z"/><ellipse class="cls-3" cx="72.88" cy="160.23" rx="7.19" ry="1.82"/><path class="cls-3" d="M65.82,163.67a19.28,19.28,0,0,0,14.12,0"/><path class="cls-3" d="M65.82,165.72a19.05,19.05,0,0,0,6.46,1.33,19.32,19.32,0,0,0,7.66-1.33"/><path class="cls-3" d="M65.82,167.77a19.14,19.14,0,0,0,14.12,0"/><path class="cls-3" d="M65.82,169.83a19.28,19.28,0,0,0,14.12,0"/><path class="cls-3" d="M65.82,171.59a19.28,19.28,0,0,0,14.12,0"/><path class="cls-3" d="M65.82,173.64A19.05,19.05,0,0,0,72.28,175a19.32,19.32,0,0,0,7.66-1.33"/><path class="cls-3" d="M65.82,175.69a19.14,19.14,0,0,0,14.12,0"/><path class="cls-3" d="M65.82,177.75a19.28,19.28,0,0,0,14.12,0"/><path class="cls-3" d="M65.82,179.56a19.28,19.28,0,0,0,14.12,0"/><path class="cls-3" d="M65.82,181.61a19.05,19.05,0,0,0,6.46,1.33,19.32,19.32,0,0,0,7.66-1.33"/><path class="cls-3" d="M65.82,183.66a19.14,19.14,0,0,0,14.12,0"/><path class="cls-3" d="M65.82,185.72a19.3,19.3,0,0,0,6.46,1.33,19.5,19.5,0,0,0,7.66-1.33"/><path class="cls-3" d="M65.82,187.48a19.28,19.28,0,0,0,14.12,0"/><path class="cls-3" d="M65.82,189.53a19.05,19.05,0,0,0,6.46,1.33,19.32,19.32,0,0,0,7.66-1.33"/><path class="cls-3" d="M65.82,191.58a19.14,19.14,0,0,0,14.12,0"/><path class="cls-3" d="M65.82,193.64a19.28,19.28,0,0,0,14.12,0"/><path class="cls-3" d="M65.82,196a19.28,19.28,0,0,0,14.12,0"/><path class="cls-3" d="M65.82,198a19.28,19.28,0,0,0,14.12,0"/><path class="cls-3" d="M65.82,200.06a19.05,19.05,0,0,0,6.46,1.33,19.32,19.32,0,0,0,7.66-1.33"/><path class="cls-3" d="M65.82,202.12a19.28,19.28,0,0,0,14.12,0"/><path class="cls-3" d="M65.82,203.87a19.28,19.28,0,0,0,14.12,0"/><path class="cls-3" d="M65.82,205.93a19.28,19.28,0,0,0,14.12,0"/><path class="cls-3" d="M65.82,208a19.28,19.28,0,0,0,14.12,0"/><path class="cls-3" d="M65.82,210a19.28,19.28,0,0,0,14.12,0"/><path class="cls-3" d="M196.25,184.45a17,17,0,0,1-18.87,0V117.79h18.87Z"/><ellipse class="cls-3" cx="186.82" cy="117.77" rx="9.43" ry="2.38"/><path class="cls-3" d="M177.56,122.28a25.35,25.35,0,0,0,18.52,0"/><path class="cls-3" d="M177.56,125a25.21,25.21,0,0,0,18.52,0"/><path class="cls-3" d="M177.56,127.67a25.35,25.35,0,0,0,18.52,0"/><path class="cls-3" d="M177.56,130.36a25.21,25.21,0,0,0,18.52,0"/><path class="cls-3" d="M177.56,132.67a25.35,25.35,0,0,0,18.52,0"/><path class="cls-3" d="M177.56,135.36a25.21,25.21,0,0,0,18.52,0"/><path class="cls-3" d="M177.56,138.05a25.21,25.21,0,0,0,18.52,0"/><path class="cls-3" d="M177.56,140.75a25.21,25.21,0,0,0,18.52,0"/><path class="cls-3" d="M177.56,143.12a25.21,25.21,0,0,0,18.52,0"/><path class="cls-3" d="M177.56,145.81a25.21,25.21,0,0,0,18.52,0"/><path class="cls-3" d="M177.56,148.51a25.35,25.35,0,0,0,18.52,0"/><path class="cls-3" d="M177.56,151.2a25.21,25.21,0,0,0,18.52,0"/><path class="cls-3" d="M177.56,153.51a25.35,25.35,0,0,0,18.52,0"/><path class="cls-3" d="M177.56,156.2a25.21,25.21,0,0,0,18.52,0"/><path class="cls-3" d="M177.56,158.9a25.35,25.35,0,0,0,18.52,0"/><path class="cls-3" d="M177.56,161.59a25.21,25.21,0,0,0,18.52,0"/><path class="cls-3" d="M177.56,164.63a25.35,25.35,0,0,0,18.52,0"/><path class="cls-3" d="M177.56,167.32a25.21,25.21,0,0,0,18.52,0"/><path class="cls-3" d="M177.56,170a25.21,25.21,0,0,0,18.52,0"/><path class="cls-3" d="M177.56,172.71a25.35,25.35,0,0,0,18.52,0"/><path class="cls-3" d="M177.56,175a25.21,25.21,0,0,0,18.52,0"/><path class="cls-3" d="M177.56,177.71a25.35,25.35,0,0,0,18.52,0"/><path class="cls-3" d="M177.56,180.4a25.21,25.21,0,0,0,18.52,0"/><path class="cls-4" d="M177.56,183.1a25.35,25.35,0,0,0,18.52,0"/><path class="cls-5" d="M94.6,155.81l2.66,2.64-4.48,1.65,2.33,3.08-3,2.73q.42,3.5.85,7,.7,5.85,1.46,11.66a232,232,0,0,0,22.38,15.62,233.86,233.86,0,0,0,22.28,12,67.36,67.36,0,0,0,9.78-3.84,73,73,0,0,0,16.2-11,76.72,76.72,0,0,0,7.5-7.67c0-2.33-.09-4.69-.15-7.06q-.12-4.51-.29-8.94l-4.48.94,3.84-4.29-14.2-6.95a154.7,154.7,0,0,1-12.8-9.79,153.21,153.21,0,0,1-11.17-10.54,44.67,44.67,0,0,1-8.12,5.4c-1.55.81-5.11,2.53-13,4.43A119.75,119.75,0,0,1,94.6,155.81Z"/><path class="cls-5" d="M180.84,171.05a40.65,40.65,0,0,0-14-11.46A29.85,29.85,0,0,0,163.6,157a35.51,35.51,0,0,0-5.89-3.21c-6.53-2.69-14.57-2.12-15.74-2l8,5.82a3.09,3.09,0,0,0-3.11,1.56c-.63,1.34.3,2.84,1,3.54,1.17,1.1,2.77,1.11,5.61,1.08a25.09,25.09,0,0,0,3.84-.34,73.23,73.23,0,0,0,7.28,3.48c1.79.73,3.52,1.36,5.16,1.89l.45,3-2.1,2.47,4-.54c.11,3.28.21,6.55.32,9.83,1,1.31,1.89,1.92,2.76,1.85Q178.61,185.14,180.84,171.05Z"/><path class="cls-6" d="M309.73,115.48a18.66,18.66,0,0,0-5.12.1,21.71,21.71,0,0,0-11.26,6c-14.74,13.5-20.62,21.15-20.62,21.15-6.33,8.25-12.81,16.39-19,24.71-5.38,7.18-13.42,17.67-23.8,30.33-5.06-2.26-10.24-4.7-15.52-7.37a350.72,350.72,0,0,1-34.15-19.71,14.63,14.63,0,0,0-2.84,2.73,16.17,16.17,0,0,0-3.16,10.85c2.91,3.36,6.57,7.52,10.87,12.21,7.36,8,13,13.7,18.89,19.64,22.63,22.74,16.89,14.72,21.59,20.26,1.58,1.86,5,6,10.58,7.52a19.93,19.93,0,0,0,7.64.44c5-.51,8.27-2.23,14.51-5.55,10.26-5.45,15.4-8.19,16-8.52,8-4.75,14.11-9.07,15.95-10.43,36.38-26.85,35.56-63.23,35.56-63.24C325.34,137.43,315.77,123,309.73,115.48Z"/><path class="cls-2" d="M306.64,114.59C293.45,118,283.74,128.92,275.3,139c-9.9,11.79-19,24.32-28.29,36.57l-16.63,21.88c-.29.38.36.75.65.37L259.76,160c8.78-11.54,17.42-23.59,28.11-33.47,5.46-5,11.71-9.34,19-11.23a.38.38,0,0,0-.2-.73Z"/><path class="cls-2" d="M180.05,171.77A451.71,451.71,0,0,0,229.7,198c.43.2.81-.45.37-.65a449.87,449.87,0,0,1-49.64-26.27c-.41-.25-.79.39-.38.65Z"/><path class="cls-2" d="M178.9,171.25a14.69,14.69,0,0,0-5,10.59c0,.49.73.49.75,0a14,14,0,0,1,4.81-10.06c.36-.32-.17-.85-.54-.53Z"/><path class="cls-2" d="M174,184.48a557.78,557.78,0,0,0,47.43,48.59c3.78,3.43,7.53,7.29,12,9.86a14.89,14.89,0,0,0,6.33,2.1,18.77,18.77,0,0,0,7.57-1.39,148.23,148.23,0,0,0,28.45-13.86c10.45-6.37,20.33-13.61,30.19-20.84.38-.28,0-.93-.38-.65-16.95,12.44-34.19,25.09-53.86,32.91-4.92,2-10.24,4.29-15.51,2.25-4.84-1.86-8.71-5.94-12.49-9.34q-12.28-11-23.9-22.8Q186.67,198.05,174.48,184c-.32-.36-.84.17-.53.53Z"/><path class="cls-2" d="M152.62,163.68a4.93,4.93,0,0,1-5.88-3.81c-.08-.47-.8-.27-.72.2a5.69,5.69,0,0,0,6.8,4.34.38.38,0,0,0-.2-.73Z"/><path class="cls-2" d="M148.11,158.42c12.25-3.42,24.16,3.24,31.84,12.49.31.37.84-.16.53-.53-7.85-9.45-20.07-16.17-32.57-12.68a.37.37,0,0,0,.2.72Z"/><path class="cls-2" d="M133.1,143.37a67.67,67.67,0,0,0,16.08,14.1c.41.26.78-.39.37-.65a66.81,66.81,0,0,1-15.92-14c-.31-.37-.84.16-.53.53Z"/><path class="cls-2" d="M152.17,164.1a22,22,0,0,0,6.32-.53c.47-.11.27-.83-.2-.72a21,21,0,0,1-6.12.5c-.48,0-.48.72,0,.75Z"/><path class="cls-2" d="M156.66,164.12q6.42,2.72,13,5c.45.16.65-.56.2-.72q-6.59-2.34-13-5c-.45-.19-.64.54-.2.72Z"/><path class="cls-2" d="M142.74,151.9a31.29,31.29,0,0,1,23.85,8c.35.32.88-.21.53-.54a32,32,0,0,0-24.38-8.17c-.48,0-.49.79,0,.75Z"/><path class="cls-2" d="M94.6,156.18a67.8,67.8,0,0,0,38.88-12.34c.39-.28,0-.93-.38-.65a67.11,67.11,0,0,1-38.5,12.24.38.38,0,0,0,0,.75Z"/><path class="cls-2" d="M94.68,156.6c10.17,10.54,20.66,21.32,33.67,28.36a64.43,64.43,0,0,0,11.32,4.8c.46.14.66-.58.2-.73-14.06-4.39-25.59-13.95-35.94-24.1-3-2.91-5.85-5.88-8.72-8.86-.34-.35-.87.19-.53.53Z"/><path class="cls-2" d="M140,189.83c3,.11,5.81-1.38,8.48-2.57s5.53-2.59,8.18-4.1a50.89,50.89,0,0,0,13.83-11.1c.31-.36-.22-.89-.53-.53a50.11,50.11,0,0,1-13.32,10.78c-2.4,1.39-4.88,2.64-7.4,3.79-2.86,1.31-6,3.1-9.24,3-.48,0-.48.73,0,.75Z"/><path class="cls-2" d="M97.16,158.09a47.3,47.3,0,0,0-4.57,1.69.38.38,0,0,0-.07.59,122,122,0,0,0,13.76,13c.37.3.9-.22.53-.53a122,122,0,0,1-13.76-13l-.08.59a46.21,46.21,0,0,1,4.39-1.62.37.37,0,0,0-.2-.72Z"/><path class="cls-2" d="M112.55,171.7a315.39,315.39,0,0,0,34.7-13c.44-.2.06-.84-.38-.65A312.71,312.71,0,0,1,112.36,171c-.46.14-.27.87.19.72Z"/><path class="cls-2" d="M123.13,180.72q17.26-7.31,33.76-16.24c.43-.23.05-.88-.38-.65q-16.47,8.92-33.75,16.25c-.45.18-.07.83.37.64Z"/><path class="cls-2" d="M111.09,172l3.66,26.46c.07.48.79.28.72-.19l-3.65-26.47c-.07-.48-.79-.28-.73.2Z"/><path class="cls-2" d="M123.18,182.21q1.71,11.67,2.7,23.41c0,.48.8.49.75,0q-1-11.84-2.73-23.61c-.07-.47-.79-.27-.72.2Z"/><path class="cls-2" d="M114.65,199.25q5.56,3.57,11.4,6.67c.43.23.81-.42.38-.65q-5.84-3.09-11.4-6.67c-.41-.26-.78.39-.38.65Z"/><path class="cls-2" d="M94.78,163c-.68,1.05-2.48.45-3,1.87a6,6,0,0,0,.12,2.53l.44,3.56,1.71,13.62c.06.47.81.47.75,0l-1.6-12.78-.39-3.15a21.17,21.17,0,0,1-.36-3c0-1.66,2.17-1.13,2.94-2.32.27-.4-.38-.78-.65-.37Z"/><path class="cls-2" d="M94.67,184.89q10.15,6.95,20,14.36c.39.29.76-.36.38-.65q-9.81-7.41-20-14.35c-.4-.28-.78.37-.38.64Z"/><path class="cls-2" d="M126.41,205.8a86.67,86.67,0,0,0,13.1,7c.44.19.82-.46.38-.65a85.79,85.79,0,0,1-13.1-7c-.41-.27-.78.38-.38.65Z"/><path class="cls-2" d="M139.87,212.82A84.77,84.77,0,0,0,171.28,192c.34-.35-.19-.88-.53-.53a84.06,84.06,0,0,1-31.08,20.6c-.45.17-.25.89.2.72Z"/><path class="cls-2" d="M168.12,174.65a10.29,10.29,0,0,0,4.15-.56.38.38,0,0,0,.26-.46.37.37,0,0,0-.46-.26,10,10,0,0,1-3.95.53.38.38,0,0,0-.38.37.39.39,0,0,0,.38.38Z"/><path class="cls-2" d="M171.39,174l.81,10.67c.11,1.53.67,3.73-.06,5.15a9.77,9.77,0,0,1-1.82,2.09l-2,2c-.34.35.19.88.53.53a30.64,30.64,0,0,0,3.73-4c.9-1.36.53-3.1.41-4.62L172.14,174c0-.48-.78-.49-.75,0Z"/><path class="cls-2" d="M91.89,166.18q9.28,7.77,19.23,14.71c.39.28.77-.37.38-.64q-9.85-6.88-19.08-14.6c-.36-.31-.9.22-.53.53Z"/><path class="cls-2" d="M93.33,171.63q8,5.44,15.64,11.51c.37.3.91-.22.53-.53q-7.66-6.12-15.79-11.63c-.4-.27-.77.38-.38.65Z"/><path class="cls-2" d="M97.1,179.22l13.54,9.15c.4.27.78-.38.38-.65l-13.54-9.15c-.4-.27-.78.38-.38.65Z"/><path class="cls-2" d="M96.32,183.78q7.65,5.52,15.7,10.5c.41.25.78-.4.37-.65q-8-5-15.69-10.5c-.4-.29-.77.37-.38.65Z"/><path class="cls-2" d="M126.05,200.25a64.75,64.75,0,0,0,12,5.67c.46.16.66-.57.2-.73a63.73,63.73,0,0,1-11.81-5.58.37.37,0,0,0-.38.64Z"/><path class="cls-2" d="M126.29,192.19a32.56,32.56,0,0,0,9,4,.37.37,0,0,0,.2-.72,31.72,31.72,0,0,1-8.86-3.94c-.4-.26-.78.39-.38.65Z"/><path class="cls-2" d="M129,197.63a22,22,0,0,0,6.09,3.18c.46.16.66-.57.2-.72a21.3,21.3,0,0,1-5.91-3.11c-.39-.29-.77.37-.38.65Z"/><path class="cls-2" d="M141.79,195.42a60.77,60.77,0,0,0,27.81-15.07c.36-.33-.18-.86-.53-.53a60,60,0,0,1-27.48,14.88c-.47.11-.27.83.2.72Z"/><path class="cls-2" d="M169.19,184.81a101.31,101.31,0,0,1-9.62,7c-.41.26,0,.91.37.65a103.44,103.44,0,0,0,9.78-7.12c.38-.31-.16-.84-.53-.53Z"/><path class="cls-2" d="M144.72,203.6a48.22,48.22,0,0,0,13.89-7.07c.38-.28,0-.93-.38-.65a47.54,47.54,0,0,1-13.71,7c-.46.14-.26.87.2.72Z"/><path class="cls-2" d="M142.33,208.57a79.35,79.35,0,0,0,14-7.84c.39-.28,0-.93-.38-.65a78.73,78.73,0,0,1-14,7.84c-.44.19-.06.84.38.65Z"/><path class="cls-2" d="M125.73,187.62a48.8,48.8,0,0,0,13.93,6.11.37.37,0,0,0,.2-.72,48.5,48.5,0,0,1-13.75-6c-.41-.26-.78.38-.38.64Z"/><path class="cls-2" d="M171.15,174.89l-8.68,6.71c-.38.3.15.82.53.53l8.68-6.71c.38-.3-.15-.82-.53-.53Z"/><path class="cls-6" d="M309.73,115.48l-5.88,31c-3.26,9-6.41,18.47-9.35,28.45a533.5,533.5,0,0,0-13.15,56.75A830.23,830.23,0,0,0,270,332.43a186.64,186.64,0,0,0,25.31,13.36A193.58,193.58,0,0,0,340.72,359c19.64,3.2,34.84,2.63,49.77,2.07,12.25-.46,22.5-1.53,29.95-2.49,1.16-4.53,3-11.94,5.26-21.1,10.26-42.25,15-68.9,24.13-113.52,2.82-13.75,7.17-34.66,12.83-60.49A256.58,256.58,0,0,0,330.79,116C322.12,115.43,314.86,115.4,309.73,115.48Z"/><path class="cls-2" d="M309.73,115.86a253.16,253.16,0,0,1,63,6.93A257,257,0,0,1,432.12,145a251.7,251.7,0,0,1,30.35,18.75c.39.28.76-.37.37-.65A253.84,253.84,0,0,0,407,132.74a257.66,257.66,0,0,0-61.21-15.64,251,251,0,0,0-36-2,.38.38,0,0,0,0,.75Z"/><path class="cls-2" d="M303.49,146.35A484.37,484.37,0,0,0,284,216c-4.84,23.59-8.24,47.45-10.78,71.39-1.45,13.6-2.62,27.23-3.63,40.87,0,.48.71.48.75,0,1.79-24.19,4.09-48.36,7.53-72.38A600.39,600.39,0,0,1,292,185.09q5.24-19.51,12.18-38.54c.17-.45-.56-.65-.72-.2Z"/><path class="cls-2" d="M453.79,190.81c-2.33,22.19-5.88,44.24-10.16,66.13s-9.26,43.44-14.51,65q-4.44,18.26-9.05,36.48a.38.38,0,0,0,.73.2c5.43-21.71,10.87-43.41,15.84-65.23s9.42-43.55,12.95-65.54c2-12.31,3.65-24.66,5-37.06,0-.48-.7-.47-.75,0Z"/><path class="cls-2" d="M271.53,334.18a198.16,198.16,0,0,0,55.26,22.35,203,203,0,0,0,59.41,5.19,196.52,196.52,0,0,0,33.17-4.91c.47-.11.27-.84-.2-.73A197.57,197.57,0,0,1,360,360.85a202.22,202.22,0,0,1-57.65-12.64,195.53,195.53,0,0,1-30.39-14.68.38.38,0,0,0-.38.65Z"/><path class="cls-1" d="M.38,286l600,64.76v184H.38Z"/><polygon class="cls-1" points="119.44 446.27 191.17 485.08 322.8 414.05 238.56 376.32 119.44 446.27"/><line class="cls-4" x1="155.1" y1="449.42" x2="181.05" y2="463.2"/><line class="cls-4" x1="158.35" y1="434.69" x2="217.88" y2="461.02"/><line class="cls-4" x1="185.42" y1="427.06" x2="230.45" y2="450.45"/><line class="cls-4" x1="205.32" y1="416.14" x2="252.14" y2="437.09"/><line class="cls-4" x1="228.73" y1="402.66" x2="276.06" y2="427.9"/><polygon class="cls-1" points="60.83 423.17 127.39 475.37 221.12 406.84 140.53 377.15 60.83 423.17"/><line class="cls-4" x1="90.08" y1="428.68" x2="114.4" y2="447.29"/><line class="cls-4" x1="97.79" y1="417.96" x2="140.53" y2="450.21"/><line class="cls-4" x1="112.49" y1="412.28" x2="143.42" y2="436.3"/><line class="cls-1" x1="122.56" y1="401.41" x2="165.62" y2="435.14"/><polygon class="cls-1" points="357.31 415.53 357.31 435.34 395.19 444.34 445.01 425.55 445.01 408.5 395.97 403.42 357.31 415.53"/><line class="cls-4" x1="357.31" y1="415.53" x2="393.71" y2="423.88"/><line class="cls-4" x1="445.01" y1="408.5" x2="393.71" y2="423.88"/><line class="cls-4" x1="395.19" y1="444.34" x2="394.43" y2="426.04"/><line class="cls-4" x1="361.74" y1="433.22" x2="387.7" y2="439.52"/><line class="cls-4" x1="364.62" y1="429.04" x2="391.07" y2="436.37"/><line class="cls-4" x1="357.31" y1="422.74" x2="393.23" y2="431.16"/><line class="cls-4" x1="355.97" y1="419.7" x2="394.51" y2="428.01"/><line class="cls-4" x1="395.01" y1="440.16" x2="443.89" y2="422.74"/><line class="cls-4" x1="394.81" y1="436.37" x2="444.1" y2="418.22"/><line class="cls-4" x1="394.7" y1="432.64" x2="443.89" y2="413.87"/><line class="cls-4" x1="394.81" y1="429.04" x2="443.89" y2="410.68"/><polygon class="cls-7" points="53.09 393.59 126.07 418.88 133.07 414.8 133.07 421.1 201.03 442.76 275.94 380.77 133.07 337.13 53.09 393.59"/><path class="cls-1" d="M55.82,391.66q18,5.58,36.53,11.74,19.37,6.44,37.87,13.06,18.56,5.3,37.85,11.36,17.52,5.54,34.18,11.26l69.87-59.48c-.18-1.74-.37-3.48-.55-5.22A293.88,293.88,0,0,0,190,351.19c-6.64-3.31-14-6.59-21.93-9.67a256.42,256.42,0,0,0-36.23-11L53.68,383.45Z"/><line class="cls-4" x1="188.42" y1="352.84" x2="137.22" y2="400.65"/><path class="cls-2" d="M57,385.21c18.11,9.06,39.51,3.55,57.91,11.53a33.75,33.75,0,0,1,12.2,8.65c.32.36.85-.17.53-.53-13.38-15.33-35.71-12.64-53.85-15.42a54.91,54.91,0,0,1-16.41-4.88c-.44-.21-.82.44-.38.65Z"/><path class="cls-2" d="M136.48,408.48a39.41,39.41,0,0,1,27,3.92c3.82,2.08,7.39,4.58,11.07,6.88a64.94,64.94,0,0,0,11.78,5.92,60.45,60.45,0,0,0,14.52,3.43c.48.05.47-.7,0-.75a61.61,61.61,0,0,1-26.11-9.36c-3.8-2.39-7.48-5-11.45-7.07a38.84,38.84,0,0,0-12.15-4.13,41.87,41.87,0,0,0-14.89.44c-.47.09-.27.82.2.72Z"/><path class="cls-2" d="M201,431l.77,5a.38.38,0,0,0,.46.27.39.39,0,0,0,.26-.47l-.77-5a.37.37,0,0,0-.46-.26.39.39,0,0,0-.26.46Z"/><path class="cls-2" d="M66.91,393.05q24.28,7.15,48,16.13c.46.17.65-.55.2-.72q-23.67-9-48-16.13a.37.37,0,0,0-.2.72Z"/><path class="cls-2" d="M93,396.89A206.35,206.35,0,0,1,123.07,408c.43.2.81-.45.37-.65a209.51,209.51,0,0,0-30.23-11.17.38.38,0,0,0-.2.73Z"/><path class="cls-2" d="M134.29,415.41l26,7.13a.37.37,0,0,0,.2-.72l-26-7.13a.37.37,0,0,0-.2.72Z"/><path class="cls-2" d="M143.32,414.41Q159,418.8,174.4,424c.45.16.65-.57.19-.72q-15.4-5.17-31.07-9.58a.37.37,0,0,0-.2.72Z"/><path class="cls-2" d="M179.58,429.57a78.2,78.2,0,0,0,11.49,3.63c.47.11.67-.62.2-.73a78.16,78.16,0,0,1-11.49-3.62c-.45-.18-.64.54-.2.72Z"/><path class="cls-2" d="M206.29,425.71q25.54-18.7,49.78-39.14,7-5.86,13.8-11.88c.36-.32-.17-.84-.53-.53q-23.91,21-49.23,40.3-7.05,5.37-14.2,10.61c-.39.28,0,.93.38.64Z"/><path class="cls-2" d="M205.58,430.09l25.13-19.91c.38-.3-.15-.83-.53-.53l-25.13,19.91c-.38.3.16.83.53.53Z"/><path class="cls-2" d="M265.53,380.55l-21.61,18.71c-.37.31.16.84.53.53l21.61-18.71c.37-.32-.16-.85-.53-.53Z"/><path class="cls-2" d="M96.94,383.77a43,43,0,0,1,14.51,4.7c.43.23.81-.41.38-.64A43.81,43.81,0,0,0,97.14,383c-.47-.06-.67.66-.2.73Z"/><path class="cls-2" d="M165.43,405.38q6.85,3.3,13.37,7.23a.38.38,0,0,0,.38-.65q-6.51-3.91-13.37-7.23c-.43-.21-.81.44-.38.65Z"/><path class="cls-2" d="M97.69,370.28a182.44,182.44,0,0,1,33.13,12.45c.43.21.81-.44.37-.65a183.31,183.31,0,0,0-33.3-12.52.37.37,0,0,0-.2.72Z"/><path class="cls-2" d="M105.84,365.49a178.5,178.5,0,0,1,32.54,14.76.37.37,0,0,0,.38-.64A178.14,178.14,0,0,0,106,364.77c-.46-.16-.66.57-.2.72Z"/><path class="cls-2" d="M134,371.25a101.43,101.43,0,0,1,12.8,6.22.37.37,0,0,0,.38-.64,101,101,0,0,0-13-6.3c-.44-.18-.64.54-.19.72Z"/><path class="cls-2" d="M119.32,357.94a318.49,318.49,0,0,1,29.42,14.51c.42.23.8-.42.38-.65a318.49,318.49,0,0,0-29.42-14.51c-.44-.19-.82.46-.38.65Z"/><path class="cls-2" d="M119.51,348.06a201.85,201.85,0,0,1,36.08,17.18.38.38,0,0,0,.38-.65,202.82,202.82,0,0,0-36.26-17.26c-.46-.16-.66.57-.2.73Z"/><path class="cls-2" d="M133.43,343.13a176,176,0,0,1,21.48,9.67c.43.23.81-.42.38-.65a178.3,178.3,0,0,0-21.66-9.75c-.45-.17-.65.56-.2.73Z"/><path class="cls-2" d="M157.27,395.48A145.7,145.7,0,0,1,186.72,408c.42.24.8-.41.38-.64a146.35,146.35,0,0,0-29.63-12.63.37.37,0,0,0-.2.72Z"/><path class="cls-2" d="M171.06,385A154.37,154.37,0,0,1,208,400.33a.38.38,0,0,0,.38-.65,155.28,155.28,0,0,0-37.1-15.4.37.37,0,0,0-.2.72Z"/><path class="cls-2" d="M182.86,397.4A206.61,206.61,0,0,1,211.65,411a.38.38,0,0,0,.38-.65,208,208,0,0,0-29-13.65c-.45-.17-.65.55-.2.72Z"/><path class="cls-2" d="M182,372.61a218.06,218.06,0,0,1,37.36,15.32c.43.23.81-.42.38-.64a217.78,217.78,0,0,0-37.54-15.4.37.37,0,0,0-.2.72Z"/><path class="cls-2" d="M206.31,376.15l25.05,11.71c.43.21.82-.44.38-.64l-25.05-11.71c-.43-.21-.81.44-.38.64Z"/><path class="cls-2" d="M200.07,362a259.71,259.71,0,0,1,38.31,14.63c.43.21.81-.44.37-.65a261.18,261.18,0,0,0-38.48-14.7.37.37,0,0,0-.2.72Z"/><path class="cls-7" d="M262.32,361.57q4.64,33.32,9.26,66.64a35,35,0,0,0,13.62,4.12A35.6,35.6,0,0,0,305,428.21L312.3,361Z"/><ellipse class="cls-1" cx="287.31" cy="362.65" rx="24.99" ry="6.34"/><path class="cls-7" d="M312.32,335.63,293.66,368.5l3.65-.56,17.53-30.07Z"/><path class="cls-7" d="M256.89,327.57q7.37,19.88,14.75,39.74l4.42.73Q267.54,348.61,259,329.2Z"/><polygon class="cls-1" points="266.48 320.54 280.54 368.04 285.49 368.04 269.6 320.54 266.48 320.54"/><path class="cls-3" d="M437.71,451a19.92,19.92,0,0,1-22.07,0V373h22.07Z"/><ellipse class="cls-3" cx="426.68" cy="373.02" rx="11.03" ry="2.79"/><path class="cls-3" d="M415.85,378.29a29.57,29.57,0,0,0,21.66,0"/><path class="cls-3" d="M415.85,381.44a29.57,29.57,0,0,0,21.66,0"/><path class="cls-3" d="M415.85,384.59a29.57,29.57,0,0,0,21.66,0"/><path class="cls-3" d="M415.85,387.74a29.57,29.57,0,0,0,21.66,0"/><path class="cls-3" d="M415.85,390.44a29.57,29.57,0,0,0,21.66,0"/><path class="cls-3" d="M415.85,393.59a29.57,29.57,0,0,0,21.66,0"/><path class="cls-3" d="M415.85,396.74a29.57,29.57,0,0,0,21.66,0"/><path class="cls-3" d="M415.85,399.89a29.57,29.57,0,0,0,21.66,0"/><path class="cls-3" d="M415.85,402.66a29.57,29.57,0,0,0,21.66,0"/><path class="cls-3" d="M415.85,405.81a29.44,29.44,0,0,0,21.66,0"/><path class="cls-3" d="M415.85,409a29.44,29.44,0,0,0,21.66,0"/><path class="cls-3" d="M415.85,412.12a29.57,29.57,0,0,0,21.66,0"/><path class="cls-3" d="M415.85,414.81a29.57,29.57,0,0,0,21.66,0"/><path class="cls-3" d="M415.85,418a29.44,29.44,0,0,0,21.66,0"/><path class="cls-3" d="M415.85,421.11a29.44,29.44,0,0,0,21.66,0"/><path class="cls-3" d="M415.85,424.27a29.57,29.57,0,0,0,21.66,0"/><path class="cls-3" d="M415.85,427.81a29.44,29.44,0,0,0,21.66,0"/><path class="cls-3" d="M415.85,431a29.24,29.24,0,0,0,9.91,2.05A29.57,29.57,0,0,0,437.51,431"/><path class="cls-3" d="M415.85,434.12a29.57,29.57,0,0,0,21.66,0"/><path class="cls-3" d="M415.85,437.27a29.57,29.57,0,0,0,21.66,0"/><path class="cls-3" d="M415.85,440a29.44,29.44,0,0,0,21.66,0"/><path class="cls-3" d="M415.85,443.11a29.44,29.44,0,0,0,21.66,0"/><path class="cls-3" d="M415.85,446.27a29.57,29.57,0,0,0,21.66,0"/><path class="cls-3" d="M415.85,449.42a29.57,29.57,0,0,0,21.66,0"/><path class="cls-3" d="M455.41,460.66a15.17,15.17,0,0,1-16.79,0V401.35h16.79Z"/><ellipse class="cls-3" cx="447.02" cy="401.33" rx="8.39" ry="2.12"/><path class="cls-3" d="M438.78,405.34a22.51,22.51,0,0,0,7.54,1.55,22.81,22.81,0,0,0,8.94-1.55"/><path class="cls-3" d="M438.78,407.73a22.23,22.23,0,0,0,7.54,1.56,22.6,22.6,0,0,0,8.94-1.56"/><path class="cls-3" d="M438.78,410.13a22.4,22.4,0,0,0,16.48,0"/><path class="cls-3" d="M438.78,412.53a22.53,22.53,0,0,0,16.48,0"/><path class="cls-3" d="M438.78,414.58a22.53,22.53,0,0,0,16.48,0"/><path class="cls-3" d="M438.78,417a22.51,22.51,0,0,0,7.54,1.55,22.81,22.81,0,0,0,8.94-1.55"/><path class="cls-3" d="M438.78,419.38a22.51,22.51,0,0,0,7.54,1.55,22.81,22.81,0,0,0,8.94-1.55"/><path class="cls-3" d="M438.78,421.77a22.4,22.4,0,0,0,16.48,0"/><path class="cls-3" d="M438.78,423.88a22.53,22.53,0,0,0,16.48,0"/><path class="cls-3" d="M438.78,426.28a22.51,22.51,0,0,0,7.54,1.55,22.81,22.81,0,0,0,8.94-1.55"/><path class="cls-3" d="M438.78,428.68a22.51,22.51,0,0,0,7.54,1.55,22.81,22.81,0,0,0,8.94-1.55"/><path class="cls-3" d="M438.78,431.07a22.23,22.23,0,0,0,7.54,1.56,22.6,22.6,0,0,0,8.94-1.56"/><path class="cls-3" d="M438.78,433.12a22.23,22.23,0,0,0,7.54,1.56,22.6,22.6,0,0,0,8.94-1.56"/><path class="cls-3" d="M438.78,435.52a22.4,22.4,0,0,0,16.48,0"/><path class="cls-3" d="M438.78,437.92a22.53,22.53,0,0,0,16.48,0"/><path class="cls-3" d="M438.78,440.32a22.51,22.51,0,0,0,7.54,1.55,22.81,22.81,0,0,0,8.94-1.55"/><path class="cls-3" d="M438.78,443a22.51,22.51,0,0,0,7.54,1.55,22.81,22.81,0,0,0,8.94-1.55"/><path class="cls-3" d="M438.78,445.41a22.23,22.23,0,0,0,7.54,1.56,22.6,22.6,0,0,0,8.94-1.56"/><path class="cls-3" d="M438.78,447.81a22.4,22.4,0,0,0,16.48,0"/><path class="cls-3" d="M438.78,450.21a22.53,22.53,0,0,0,16.48,0"/><path class="cls-3" d="M438.78,452.26a22.53,22.53,0,0,0,16.48,0"/><path class="cls-3" d="M438.78,454.66a22.51,22.51,0,0,0,7.54,1.55,22.81,22.81,0,0,0,8.94-1.55"/><path class="cls-3" d="M438.78,457.05a22.23,22.23,0,0,0,7.54,1.56,22.6,22.6,0,0,0,8.94-1.56"/><path class="cls-3" d="M438.78,459.45a22.4,22.4,0,0,0,16.48,0"/><path class="cls-5" d="M503.35,391.1c-1,1.53-1.28,3.31-1.9,6.87a41,41,0,0,0-.77,10.18,38.66,38.66,0,0,0,1.42,8.27,61.3,61.3,0,0,1,11.79-2,59.28,59.28,0,0,1,6.17-.13,18,18,0,0,1-.08,6.16c-.53,2.79-1.34,3.31-2,6.57-.45,2.28-.9,4.75.34,7.08a4.15,4.15,0,0,0,2.5,2.34c.9.17,2-.15,3.8-1.81a22.44,22.44,0,0,0,5.83-9.48,11.79,11.79,0,0,1,2.81,3.12c1,1.58,1.47,3.25,1.84,7.1a69.74,69.74,0,0,1,.3,9.23,11.65,11.65,0,0,0,2.4-3.3c1.3-2.67,1.15-5.06.7-9.58-.76-7.65-1.13-11.47-1.83-14.28a61.63,61.63,0,0,0-3.05-9.13c-2.71-6.44-5.71-10.5-8.92-14.85-2.37-3.21-3.57-4.43-5.22-5.47a12.12,12.12,0,0,0-8.17-2.18A11.74,11.74,0,0,0,503.35,391.1Z"/><path class="cls-6" d="M464,164.74A28.2,28.2,0,0,0,449.13,163c-12.74,2.15-20.15,13.64-25,21.17a68.2,68.2,0,0,0-8.57,19.52c3.13,18.73,6.48,34.74,9.39,47.44,7,30.36,13.39,50,15,54.92,1.08,3.28,2,6,2.65,7.83,1.92,2.45,4.75,6.13,8,10.72,8.47,11.87,13.85,21.29,15.34,23.86,5.27,9.07,14.87,23.53,33.88,47.37a68.63,68.63,0,0,1,8.18-4.6A69.55,69.55,0,0,1,519.14,387c-.68-2.62-1.71-6.51-3-11.2-4-14.07-7.47-24.48-10-31.95-8.3-24.49-15.59-45.43-19.63-57-.47-9.49-1.26-20.75-2.63-33.38-1.92-17.66-3.89-35.17-9.54-56.83A300.05,300.05,0,0,0,464,164.74Z"/><path class="cls-2" d="M463.7,164.93c3.62,7,5.85,14.51,7.82,22.08q3,11.69,5.43,23.53A445,445,0,0,1,484,259q1.23,13.74,1.6,27.53a.38.38,0,0,0,.75,0,449.87,449.87,0,0,0-4-48.78,444.79,444.79,0,0,0-9.5-48.66c-2.13-8.4-4.47-16.82-8.48-24.55-.23-.43-.87-.05-.65.37Z"/><path class="cls-2" d="M486.63,289.14q13.72,37.78,25.6,76.21,3.35,10.86,6.55,21.76a.38.38,0,0,0,.73-.2Q508.17,348.35,495,310.35q-3.74-10.73-7.62-21.41c-.16-.45-.89-.26-.72.2Z"/><path class="cls-2" d="M415.19,203.75A739.35,739.35,0,0,0,434,287.46q3.31,11.6,7,23.07c.14.46.87.26.72-.2a740.52,740.52,0,0,1-21.5-83q-2.35-11.84-4.3-23.73c-.08-.47-.8-.27-.72.2Z"/><path class="cls-2" d="M445,316.15q19.5,32.25,41.72,62.74Q493,387.52,499.52,396c.29.37.94,0,.64-.38q-22.92-29.91-43.23-61.71-5.74-9-11.26-18.12a.38.38,0,0,0-.65.38Z"/><path class="cls-2" d="M502.58,395.94a20,20,0,0,1,14.86-6.72.38.38,0,0,0,0-.75,20.72,20.72,0,0,0-15.39,6.94c-.32.36.21.89.53.53Z"/><path class="cls-2" d="M521.51,390.41a61.21,61.21,0,0,1,16.57,39.11,58.24,58.24,0,0,1-.74,12.44c-.07.48.65.68.73.2a62,62,0,0,0-8.42-42.41,59.67,59.67,0,0,0-7.61-9.87c-.33-.35-.86.18-.53.53Z"/><path class="cls-2" d="M522.58,406.32a14.18,14.18,0,0,0-2.64,5.8c-.45,2.32,0,4.61-.16,6.95-.15,2.5-1.5,4.68-2,7.1a17.61,17.61,0,0,0-.2,6.1c.22,1.59.6,3.52,2.21,4.28a4.14,4.14,0,0,0,4.24-.75c1.6-1.29,2.5-3.34,3.49-5.09l3.92-6.93c.24-.42-.41-.8-.64-.38L527.6,429a35,35,0,0,1-3.2,5.33c-1.29,1.55-4.06,2.76-5.37.47-.92-1.62-.95-3.92-.87-5.73a17.77,17.77,0,0,1,1.23-5.66,14.12,14.12,0,0,0,1.15-5.32,26.32,26.32,0,0,1,.21-6.21,13.71,13.71,0,0,1,2.48-5.21c.29-.38-.36-.76-.65-.38Z"/><path class="cls-2" d="M501.08,397.87a29.65,29.65,0,0,0,.57,16.54c.15.46.87.26.72-.2a28.79,28.79,0,0,1-.56-16.14.38.38,0,0,0-.73-.2Z"/><path class="cls-2" d="M489.47,419.91c5.33,18.95-1.15,38.33-8.91,55.6-.19.43.45.81.65.37,7.85-17.45,14.37-37,9-56.17a.37.37,0,0,0-.72.2Z"/><path class="cls-2" d="M490.54,420a123,123,0,0,1,27-5.52c.48,0,.49-.79,0-.75a123.61,123.61,0,0,0-27.24,5.55c-.46.15-.26.87.2.72Z"/><path class="cls-2" d="M489.83,456l38.51-6.49c.47-.08.27-.8-.2-.72l-38.51,6.49c-.47.08-.27.8.2.72Z"/><path class="cls-2" d="M527.54,430.13l1.24,45.18c0,.48.77.48.75,0l-1.24-45.18c0-.48-.77-.48-.75,0Z"/><path class="cls-2" d="M493,444.14q17.23-3.5,34.48-6.93c.47-.09.27-.81-.2-.72q-17.25,3.43-34.48,6.93c-.47.09-.27.82.2.72Z"/><path class="cls-2" d="M528.34,449.19a27.3,27.3,0,0,1,6.61,4.89.38.38,0,0,0,.53-.53,27.68,27.68,0,0,0-6.77-5c-.42-.23-.8.42-.37.64Z"/><path class="cls-2" d="M527.84,436.85q3.78,3.25,7.25,6.85c.34.35.87-.18.53-.53q-3.47-3.6-7.25-6.85c-.37-.31-.9.22-.53.53Z"/><path class="cls-2" d="M530.28,425.49c3.09,2.13,4.07,5.9,4.43,9.44.42,4.15.3,8.38.39,12.55l.6,28.59a.38.38,0,0,0,.75,0q-.32-15.29-.64-30.58c-.09-4.11.08-8.34-.59-12.42-.54-3.22-1.79-6.31-4.56-8.22-.39-.28-.77.37-.38.64Z"/><path class="cls-2" d="M481.09,476.31c15.77,2.83,31.8,1.18,47.59-.52.48-.05.48-.8,0-.75-15.72,1.69-31.7,3.36-47.39.54-.47-.08-.68.64-.2.73Z"/><path class="cls-2" d="M484.59,477.1l-1.93,1.3a.38.38,0,0,0,.09.69,92.77,92.77,0,0,0,48-2.53c.45-.15.26-.88-.2-.73A91.9,91.9,0,0,1,483,478.36l.09.69,1.93-1.3c.4-.27,0-.92-.38-.65Z"/><path class="cls-2" d="M530.18,452l.31,23.65a.38.38,0,0,0,.75,0L530.93,452a.38.38,0,0,0-.75,0Z"/><path class="cls-2" d="M529.93,427.31V437.9a.38.38,0,0,0,.75,0V427.31a.38.38,0,0,0-.75,0Z"/><path class="cls-2" d="M532.4,429.78v6.7a.38.38,0,0,0,.75,0v-6.7a.38.38,0,0,0-.75,0Z"/><path class="cls-2" d="M532.29,460.49l.42,14.82a.38.38,0,0,0,.75,0L533,460.49c0-.48-.77-.49-.75,0Z"/><path class="cls-2" d="M485.56,479.74l-1,1.29a.37.37,0,0,0,.13.51,16.63,16.63,0,0,1,4.24,4.25c.27.39.92,0,.65-.38a17.58,17.58,0,0,0-4.51-4.51l.14.51,1-1.29c.29-.39-.36-.76-.65-.38Z"/><path class="cls-2" d="M489,486.18a88.72,88.72,0,0,0,47.24-7.2c.44-.2.06-.84-.38-.65a87.91,87.91,0,0,1-46.86,7.1c-.48-.06-.47.69,0,.75Z"/><path class="cls-2" d="M485.73,481.69A38.78,38.78,0,0,0,499.24,483c.48,0,.49-.79,0-.75A38.11,38.11,0,0,1,485.93,481a.38.38,0,0,0-.2.73Z"/><path class="cls-2" d="M493.12,484.91a15.51,15.51,0,0,0,4.81.1l5.92-.4,11.63-.79c.48,0,.48-.78,0-.75l-11.19.76-5.48.37a17.73,17.73,0,0,1-5.49,0,.37.37,0,0,0-.2.72Z"/><path class="cls-2" d="M513.37,482.42a48.46,48.46,0,0,0,16.17-4.09c.44-.19.06-.84-.38-.65a47.45,47.45,0,0,1-15.79,4c-.48,0-.48.79,0,.75Z"/><path class="cls-5" d="M393.22,119.87c.7-3.47,1.53-7.65,0-12.32-.37-1.15-2.6-8.21-9.17-10.94-6.25-2.59-14.2-.36-19.64,5.69l1.18,3.81c-3.94,1-7.59,3.25-8.82,6.31-1,2.43-.47,5.41.13,8.66a19.71,19.71,0,0,0,2.38,7.26,17.61,17.61,0,0,0,15.34,8.39c.09-.16.17-.33.26-.5l1,3.29a3.33,3.33,0,0,0-3.62.95c-1,1.59.93,3.9,1.15,4.16a6.56,6.56,0,0,0,4.43,2.09,9,9,0,0,0,5.2-1.43,16.92,16.92,0,0,0,6.72-6.85A20.54,20.54,0,0,0,391,136.1q-1.26-3-2.54-6.06a20.19,20.19,0,0,0,2.46-3.52A22.4,22.4,0,0,0,393.22,119.87Z"/><ellipse class="cls-2" cx="377.2" cy="113.68" rx="0.99" ry="1.91"/><path class="cls-2" d="M380.17,101.93c-4.11,1.46-7.76,3-10.89,4.35-5.06,2.26-9,4.36-11.24,5.6-1.08.6-2,1.12-2.61,1.49a19.74,19.74,0,0,1-12.54-3.57c-1.55-1.11-6.73-4.85-7.1-10.74-.42-6.46,5.21-11.1,7.87-13.3,7.55-6.23,16.41-6.3,19.81-6.32,3.61,0,11.74-.09,18.91,5.49a26.9,26.9,0,0,1,7.14,8.66,32.05,32.05,0,0,1,3.75,17.33,20.2,20.2,0,0,0-7.12-6.82A20,20,0,0,0,380.17,101.93Z"/><path class="cls-2" d="M356.55,118.91a17.4,17.4,0,0,0,11.47,17,19.24,19.24,0,0,0,21-6,21.56,21.56,0,0,0,4.75-11.47c.06-.48-.69-.48-.75,0-.76,7.19-5.36,13.94-12.22,16.56s-15.17.9-19.9-5a16.4,16.4,0,0,1-3.62-11.07c0-.48-.73-.48-.75,0Z"/><path class="cls-2" d="M374.35,136.92a20.3,20.3,0,0,1,1.49,3.45c.15.45.88.26.73-.2a20.88,20.88,0,0,0-1.58-3.63c-.23-.42-.88,0-.64.38Z"/><path class="cls-2" d="M372,140.37a5.57,5.57,0,0,0,2.17,5.4,7.43,7.43,0,0,0,6.63,1,14.42,14.42,0,0,0,6.24-4.2,18.63,18.63,0,0,0,4.34-6.34c.16-.46-.57-.65-.73-.2a16.92,16.92,0,0,1-3.72,5.56,16.26,16.26,0,0,1-5,3.95,7.52,7.52,0,0,1-6.56.17,4.93,4.93,0,0,1-2.67-5.12c.09-.47-.63-.67-.73-.19Z"/><path class="cls-2" d="M367.77,115.48c-.83,2.25-1.71,4.69-1.19,7.11a5.28,5.28,0,0,0,3.47,4.11.37.37,0,0,0,.2-.72,4.64,4.64,0,0,1-3-3.89c-.35-2.18.5-4.39,1.24-6.41.17-.45-.55-.65-.72-.2Z"/><path class="cls-2" d="M355.43,113c-6.73-.54-14.14-2.65-17.67-8.93a11.41,11.41,0,0,1-1.13-9.19c1.14-3.31,3.94-6.06,6.57-8.26a28.79,28.79,0,0,1,19.36-6.84,48.21,48.21,0,0,1,11.31,1.77,23.85,23.85,0,0,1,9.56,4.69c6.36,5.48,8.72,13.89,9.57,22,.05.47.8.48.75,0-.8-7.57-2.84-15.33-8.23-21s-13.62-7.52-21.1-8.08a29.8,29.8,0,0,0-20.82,6.22c-2.88,2.24-5.84,5.06-7.34,8.45a11.52,11.52,0,0,0,.09,9.07c3.15,7.62,11.5,10.28,19.08,10.89.48,0,.48-.71,0-.75Z"/><path class="cls-2" d="M356.11,113.12a134.92,134.92,0,0,0,20-10.47,7.37,7.37,0,0,1,2.63-1.37,6.3,6.3,0,0,1,2.9.62,22.21,22.21,0,0,1,4.36,2.18,22.74,22.74,0,0,1,6.95,7,.37.37,0,0,0,.69-.19v-3.37a.38.38,0,0,0-.75,0v3.37l.7-.19a23.61,23.61,0,0,0-6.73-7,23.09,23.09,0,0,0-4.48-2.36c-1.45-.57-3.09-1.26-4.61-.61a43.64,43.64,0,0,0-5,3.07c-1.8,1.08-3.63,2.12-5.47,3.11q-5.64,3-11.56,5.53c-.44.18-.06.83.38.64Z"/></g></g></svg>