<svg xmlns="http://www.w3.org/2000/svg" viewBox="1 -.01 585.4 424.91">
  <style>
    .st0{fill:#fff6e5;stroke:#2e2f32;stroke-miterlimit:10}.st1{fill:#2e2f32}.st2{fill:#fff;stroke:#2e2f32;stroke-miterlimit:10}.st3{fill:#ff996c}.st4{fill:#fff6e5}.st5{fill:#fff}
  </style>
  <g id="background">
    <g id="board">
      <path d="M310.2 424.9 1 211.7 273.3 98.9 586.4 223z" class="st0"/>
      <path d="M163.5 155.3C101.7 194.5 57 227 61.7 236.7c11 22.6 283.6-97.1 295.1-74 9.8 19.6-194 133-185 150.8 10.3 20.4 288.3-111.7 301.1-88.1 7.5 13.7-76.9 75.2-182.7 145.4 7.4 3.1 14.8 6.2 22.2 9.2 145.5-106.1 194.8-154.2 187.3-167-15.2-26-260.6 94.6-271.5 73.6-9.3-17.9 162.9-116.1 152.6-136.9-12.3-24.8-272.3 86.1-280.3 68.4-3.2-7 34.8-31.8 86.9-62-7.9-.2-15.9-.5-23.9-.8z" class="st1"/>
      <ellipse cx="339.2" cy="191.7" class="st2" rx="16.9" ry="8.9"/>
      <ellipse cx="172.9" cy="206.4" class="st2" rx="17.1" ry="10.6"/>
      <ellipse cx="315.9" cy="270.2" class="st2" rx="15.4" ry="8.3"/>
      <path d="M169.6 160.4v42.8c0 1.9 3 1.9 3 0v-42.8c0-1.9-3-1.9-3 0zM334 149.3v39c0 1.9 3 1.9 3 0v-39c0-2-3-2-3 0zm-22.9 82.3v34.3c0 1.9 3 1.9 3 0v-34.3c0-2-3-2-3 0z" class="st3"/>
      <path d="M171.1 160.4c8.8-.3 17.5-.5 26.3-.8-.9 1.8-1.8 3.7-2.8 5.5 1.3 1.9 2.6 3.9 3.9 5.8l-27.9 3c.1-4.4.3-8.9.5-13.5zM334.8 149c6.5-2.6 13-5.3 19.5-7.9-.2 1.7-.5 3.4-.7 5.1l5.1 3.3c-7.6 3.4-15.1 6.9-22.7 10.3-.3-3.7-.7-7.3-1.2-10.8zm-22.2 82.6c6.7-2.2 13.4-4.3 20-6.5-1.1 2.2-2.2 4.5-3.4 6.7 1.5 1.1 2.9 2.2 4.4 3.4-7 2.6-14 5.1-21 7.7v-11.3z" class="st3"/>
    </g>
    <g id="trophy">
      <path d="M209.2 42.4h-9.9v-5.5c0-6.6-5.4-12-12-12h-30.1c-6.6 0-12 5.4-12 12v5.5h-8.6c-3.5 0-6.3 2.8-6.3 6.3v10.4c0 3.5 2.8 6.3 6.3 6.3h8.6V69c0 6.6 5.4 12 12 12h10.4v12.5c-6.9.5-12 2.1-12 4.1 0 2.4 7.2 4.3 16.1 4.3 8.9 0 16.1-1.9 16.1-4.3 0-2-5.1-3.6-12-4.1V81h11.6c6.6 0 12-5.4 12-12v-3.5h9.9c3.5 0 6.3-2.8 6.3-6.3V48.7c-.1-3.5-2.9-6.3-6.4-6.3zm-64 18.9c-.6.2-1.1.3-1.8.3h-2.7c-3.5 0-6.3-2.8-6.3-6.3v-2.7c0-3.5 2.8-6.3 6.3-6.3h2.7c.6 0 1.2.1 1.8.3v14.7zm66.4-6c0 3.5-2.8 6.3-6.3 6.3h-2.7c-1.2 0-2.3-.3-3.3-.9V47.2c1-.6 2.1-.9 3.3-.9h2.7c3.5 0 6.3 2.8 6.3 6.3v2.7z" class="st0"/>
      <ellipse cx="172.4" cy="31.9" class="st0" rx="25.7" ry="9.3"/>
      <path d="M117.3 32.7c6.4-5 5.5-15.8 4.4-22.9-.7.6-1.5 1.1-2.2 1.7 6.4 4.3 13.5 1.3 17.8-4.3 1.2-1.5-.9-3.6-2.1-2.1-3.5 4.5-8.8 7.5-14.2 3.8-1.2-.8-2.4.5-2.2 1.7.9 6.1 1.7 15.7-3.7 19.9-1.5 1.3.7 3.4 2.2 2.2zM109 66.4c4.9 5.9 6 13.9 2.7 20.8-.4.9-.1 1.9.9 2.2 7.7 2.6 11.9 10.9 9.6 18.6-.2.7.3 1.7 1 1.8 4.5.7 8.2 2.8 11 6.5 1.1 1.5 3.7 0 2.6-1.5-3.2-4.3-7.4-7-12.8-7.9.3.6.7 1.2 1 1.8 2.7-9.4-2.5-19.2-11.7-22.3.3.7.6 1.5.9 2.2 3.9-8.2 2.7-17.5-3.1-24.4-1.3-1.4-3.4.7-2.1 2.2zm78.7 54.2c2.4-8 11-9.4 18.3-9 1 .1 1.6-1 1.4-1.9-1.1-5.6 3.5-7.8 7.5-10.3 1.6-1 .1-3.6-1.5-2.6-5.4 3.4-10.3 6.4-8.9 13.6.5-.6 1-1.3 1.4-1.9-8.7-.5-18.4 1.8-21.2 11.2-.4 1.9 2.5 2.7 3 .9zm5.1-118.3c4.2 9.4 15.3 7.9 23.5 5.9-.6-.7-1.1-1.5-1.7-2.2-3.8 8.5-.1 17.5 8.9 20.4 1.8.6 2.6-2.3.8-2.9-6.9-2.2-10.1-9.2-7.1-16 .5-1.2-.3-2.5-1.7-2.2C208.6 7 199 8.9 195.4.8c-.8-1.8-3.4-.3-2.6 1.5zm40 46c-9.1 6.1-10.4 18.2-2.6 26 1.4 1.4 3.5-.7 2.1-2.1-6.3-6.4-5.5-16.2 2-21.3 1.6-1.1.1-3.7-1.5-2.6z" class="st3"/>
    </g>
  </g>
  <g id="character">
    <g id="leg_right">
      <path d="M479.6 341.7a69.7 69.7 0 0 0-20.5 10.6l31-.3-1.5-11c-3.1.2-6 .5-9 .7z" class="st3"/>
      <path d="M477.4 220.3c4 40.9 8 81.8 12.1 122.7-.8.5-1.8 1.1-3.2 1.4-3.7.8-6.7-.9-7.6-1.4-3.3-11-7.4-25.1-12.2-41.7-8.2-28.3-11.4-39.7-14.1-55.5-1.6-9.3-2.5-16.9-3.1-22 9.4-1.1 18.7-2.3 28.1-3.5z" class="st4"/>
      <path d="M477.6 223.2c3.8 40 7.7 79.9 11.5 119.9 0 .5.8.5.8 0-3.8-40-7.7-79.9-11.5-119.9-.1-.5-.9-.5-.8 0zm-23.7 30.6c7.1 30.1 15.3 59.9 24.4 89.4.1.5.9.3.7-.2-9.2-29.5-17.3-59.3-24.4-89.4-.1-.5-.8-.3-.7.2zm25.3 90.2c2.7 1.2 5.6 1.4 8.5.5.5-.1.3-.9-.2-.7-2.7.8-5.4.7-7.9-.4-.4-.3-.8.4-.4.6z" class="st1"/>
      <path d="M476 343c.7-2.1-2.4-2.8-3.1-.9-.3.8 0 2.2.9 2.5 1.2.4 1.5-1 1.8-1.8-.2-.1-.5-.1-.7-.2.1 1.1.8 5.8 3 4.4 1.6-1 .5-3.7-1.1-4-.5-.1-.7.6-.2.7.6.1 1.1.5 1.3 1.2.1.3.1.6 0 .9-.8.5-1.3.4-1.4-.2-.5-.8-.6-2.2-.8-3.1 0-.3-.5-.6-.7-.2-.1.1-.1.2-.2.4-.2.5 0 .8-.8.6-.4 0-.6-.1-.5-.5-.1-.3 0-.5.2-.7.2-.4.4-.5.8-.2.6-.1.8.2.6.9.1.4.8.6.9.2zm-7.9 3.9c.8 0 1.4.5 1.7 1.2.2.5.9.3.7-.2-.4-1-1.3-1.7-2.4-1.7-.5 0-.5.7 0 .7zm1.6-1.4c1.1-.1 1.6.9 1.8 1.8.1.5.8.3.7-.2-.3-1.2-1.1-2.5-2.5-2.4-.5.1-.5.9 0 .8zm1.9-1c.8.3 1.4 1.1 1.4 2 0 .5.8.5.8 0-.1-1.2-.8-2.3-2-2.7-.5-.2-.7.5-.2.7z" class="st5"/>
    </g>
    <g id="leg_left">
      <path d="m450.6 343.1-3.7.6c-8.5 1.7-15.4 5.1-20.7 8.6l34.9 1.5-.3-10.5c-3.5-.1-6.8-.1-10.2-.2z" class="st3"/>
      <path d="M437 234.7c4.6 36.2 9.1 72.4 13.7 108.6.4.7 1 1.4 1.9 2 3.3 2.3 7.5.5 8 .3 1.1-10.7 2.2-21.4 3.2-32 3-30.3 5.9-60.7 8.6-91-11.8 4-23.6 8-35.4 12.1z" class="st4"/>
      <path d="M436.6 237.6c4.5 35.2 9.1 70.3 13.6 105.5.1.5.8.5.8 0-4.5-35.2-9.1-70.3-13.6-105.5-.1-.4-.9-.4-.8 0zm33.5 3.3c-3.2 34.5-6.5 69-9.7 103.5 0 .5.7.5.8 0 3.2-34.5 6.5-69 9.7-103.5 0-.4-.7-.4-.8 0zm-18.8 103.8a9.5 9.5 0 0 0 8.3 1.6c.5-.1.3-.9-.2-.7-2.7.8-5.5.2-7.7-1.5-.4-.3-.8.4-.4.6z" class="st1"/>
      <path d="M447.4 342.1c-.1-.9-.7-2.1-1.8-1.9-1.1.1-1.4 1.7-1.2 2.6.1.8.7 2 1.8 1.8 1.1-.2.9-1.7.7-2.6-.1-.4-.8-.3-.7.1.1 1 .7 7.3 3.1 5.8.7-.4.7-1.6.6-2.2-.2-1.1-.9-2-1.8-2.5-.4-.2-.8.4-.4.6.7.4 1.2.9 1.4 1.7.1.4.1.8.1 1.2-.7.4-1.2.3-1.3-.3-.8-1-.7-3.1-.9-4.3-.2 0-.5.1-.7.1 0 .3.1.5.1.8-.7.7-1 .6-1-.1-.1-.3-.2-.6-.1-.9 0-.8.5-.8 1.5.1-.1.5.6.5.6 0zm-11.4 5.2c.8 0 1.4.4 1.6 1.2.1.5.9.3.7-.2-.3-1-1.3-1.8-2.4-1.7-.4 0-.4.7.1.7zm1.8-1.3c.7.2 1.2.6 1.5 1.3.2.4.8.1.6-.4a3 3 0 0 0-1.9-1.6c-.4-.2-.6.5-.2.7zm2.9-1.4c1.3.3 2.2 1.5 2.1 2.8 0 .5.7.5.8 0 .1-1.7-1.1-3.2-2.7-3.5-.4-.1-.6.6-.2.7z" class="st5"/>
    </g>
    <g id="torso">
      <path d="M423.6 161.4c.1 1.9.2 4.9.6 8.6.5 5.5 1.2 9.6 2.4 17.2.2 1 .9 5.5 1.6 9.3 2.8 15.5 7.6 34.1 8.7 38.1 2.9.4 7 .8 11.9.3 8.5-.9 14.6-3.9 17.6-5.4 2.9-1.4 6.8-3.7 10.9-7.2.2-3.2.4-7.5.6-10.8.7-12.8 1-17.6 1.4-24.7.7-14.2.5-17.2.2-20.2-.7-6-1.9-10.9-2.9-14.3a47.9 47.9 0 0 0-15.9-2.5c-6.3.1-10.9 1.5-17.4 3.5-5 1.5-11.9 4-19.7 8.1z" class="st4"/>
      <path d="M423.8 161.7c15.3-9.1 33-15.1 50.7-9.2.5.2.7-.6.2-.7-17.8-6-35.8.1-51.2 9.3-.5.2-.2.9.3.6zm0 8.2c2.7 21.8 7 43.4 12.8 64.6.1.5.8.3.7-.2a473 473 0 0 1-12.7-64.4c-.1-.4-.9-.4-.8 0zm53-16.1c3 10.4 2.8 21.1 2.2 31.8-.6 11.2-1.3 22.5-1.9 33.7 0 .5.7.5.8 0 .7-11.8 1.4-23.7 2-35.5.5-10.2.5-20.3-2.3-30.2-.2-.4-.9-.2-.8.2zm-38.6 81.5c14 1 27.5-3.3 38.3-12.2.4-.3-.2-.8-.5-.5-10.7 8.8-24 13-37.7 12-.6-.1-.6.7-.1.7z" class="st1"/>
    </g>
    <g id="hand_right">
      <path d="M424.5 139.3c.1.5.8.7 3.6 1.3 5.3 1.1 7.9 1.6 9.2.4.8-.7 1.6-2.1 1.2-3.1-.8-2.2-6.5-2.5-10.5-1-1.3.4-3.7 1.5-3.5 2.4z" class="st5"/>
      <path d="M424.8 139.4c.8-3.1 6.7-2.5 9-2.3.5 0 .5-.7 0-.8-2.8-.1-8.8-.8-9.8 2.9 0 .5.7.7.8.2z" class="st1"/>
      <path d="M426.9 139.9c1.7-1.3 3.7-1.8 5.8-1.6.5 0 .5-.7 0-.8-2.2-.2-4.4.4-6.2 1.7-.4.3 0 1 .4.7zm3.1.9c1.5-1.1 3.2-1.6 5.1-1.5.5 0 .5-.7 0-.8-2-.1-3.9.4-5.5 1.6-.4.4 0 1 .4.7z" class="st1"/>
    </g>
    <g id="hand_left">
      <path d="M431.5 217.5c-.4.7-1 1.7-1.3 3.1-.7 3 .4 5.4 1 6.8 1.2 2.8 3.1 4.6 4.3 5.6 0-1.4 0-2.8-.1-4.2-.1-2.7-.1-5.5-.2-8.1 2.6-1.3 3.6-2.9 4-3.8.2-.5.8-1.7.4-2.2-.3-.3-1.1-.2-3.2.6a56 56 0 0 0-4.9 2.2z" class="st4"/>
      <path d="M422 162.2c-2.7 3.7-5.5 7.9-8.4 12.7-2.3 3.8-.2 2.7-7 12.9 0 0-3.5 6.3-6.7 15.5-.2.7-.7 2-.5 3.8s1.1 3.3 2.4 5c3 3.7 6.3 5.9 7.4 6.5 4.3 2.7 8.1 3.9 11.9 5.1 2.5.8 6 1.8 10.3 2.5.4-.4.9-1 1.3-1.7 1.4-2.8.4-5.7.1-6.3-1.3-.9-2.8-1.9-4.5-3.3-1.4-1.1-3.6-2.8-6.1-5.2-1.8-1.7-3.7-3.6-5.8-5.9.9-1.1 2.5-2.9 4.5-5 3.6-3.7 5.4-5.1 10.1-9.7 3.3-3.2 4.9-4.9 5.8-6.5.5-1 2.8-5.7 1.4-10.4-1.8-5.6-8.3-9.8-16.2-10z" class="st4"/>
      <path d="M421.7 162a180.8 180.8 0 0 0-22.2 41.3c-.2.5.6.6.7.2 5.6-14.6 13-28.4 22.1-41.1.3-.4-.3-.8-.6-.4zm10.4 25.6c-5.4 5.1-11.2 10.1-15.8 16-.3.4.2.9.5.5 4.6-5.9 10.4-10.9 15.8-16 .4-.3-.1-.9-.5-.5z" class="st1"/>
      <path d="M416.3 204.4c2.5 2.8 5.2 5.5 8 7.9 2.4 2.1 5.1 4.6 8 5.7-.5-.2-.6.6-.2.7.1 0 .2.1.3.1.1 0 .3 0 .4-.1s.1-.2.2-.2c.2-.2.1-.4-.1-.6-5.9-4-11.3-8.7-16.1-14.1-.3-.3-.8.3-.5.6zm-16 6.4c3.6 5 8.3 8.5 13.9 10.9 2.7 1.2 5.6 2.1 8.5 2.9 2.5.7 6.6 2.3 9.2 2 .2 0 .4-.2.4-.4v-.2c0-.2-.1-.3-.3-.4h-.2c-.5-.1-.7.6-.2.7-11.3-3-23.5-5.9-30.6-16-.4-.3-1 .1-.7.5z" class="st1"/>
      <path d="M432.1 217.4c.6 3 .5 5.9-.3 8.8-.1.5.6.7.7.2.8-3.1.9-6.1.3-9.2-.1-.4-.8-.2-.7.2zm1.6-.3c.7-.3 1.3-.7 2-1 .6-.3 2-1.2 2.6-1.1.5-.2.7 0 .6.7.4.4.4.7.1.9-.1.3-.6.6-.8.8l-1.8 1.8c-.3.3.2.9.5.5 1-1 2.3-1.9 3.1-3.1.4-.6.5-1.4-.1-2s-1.6-.5-2.3-.2c-1.4.6-2.8 1.4-4.2 2-.5.2-.1.9.3.7zm-2.8 10.5c.9 1.7 2 3.2 3.4 4.4.4.3.9-.2.5-.5a12.7 12.7 0 0 1-3.3-4.3c-.2-.4-.9 0-.6.4z" class="st1"/>
    </g>
    <g id="head">
      <path d="M436.3 142.4c-.7 1.4-.6 3.1-.6 3.7 0 1.1.1 3.2 1.6 4.9.4.4 1.6 1.8 3.6 2 1.2.1 2.1-.2 2.6-.4l2.2 2.5c1.1-1.8 2.6-4.6 3.3-8.4.6-3.2 1.1-5.9-.4-7.5-2.6-2.8-10.4-.9-12.3 3.2z" class="st4"/>
      <path d="M444 141c-.5.4-1.5 1.2-3 1.7-.6.2-2 .5-3.7 0-1-.3-2.5-.7-3.2-2-.6-1.1-.2-2.3-.2-2.6.6-2.1 2.9-3.6 5.8-4.1 0-1 .2-2.5.9-4.2.5-1.2 1.3-3.4 3.5-5 .9-.7 3.1-2.3 5.4-1.7 2 .5 2 2.1 4.6 3.4 1.3.7 2.3.8 4.4 1.1 4.8.7 5.8-.3 9.3.3 1.1.2 4 .7 7 2.7a15 15 0 0 1 5.6 6.9c.8 2.3.8 4.1.8 7.1 0 1.9-.1 4-.8 6.6-1.4 4.8-4.4 7.8-5.2 8.6-1.2 1.1-6 5.8-13.2 5.4-5.9-.3-9.8-3.7-11.1-4.9-4.9-4.5-6-10.3-6.4-12.8-.7-2.6-.6-4.9-.5-6.5z" class="st1"/>
      <path d="M440 134.8c-1 .9-1.3 2.4-.6 3.6.6 1 1.7 1.6 2.9 1.4-.5-.7-1-1.5-1.4-2.6-.4-.9-.7-1.7-.9-2.4z" class="st5"/>
      <path d="M435.9 143c-1.2 4.2 0 8.8 4.4 10.4.5.2.6-.6.2-.7-4-1.5-4.9-5.8-3.9-9.5.1-.5-.6-.7-.7-.2z" class="st1"/>
      <path d="M441.7 141.3c-2.2 1.2-6.6 2-7.5-1.3-.9-3.4 2.9-5.2 5.6-5.7.5-.1.3-.8-.2-.7-3.2.5-7.4 3.1-6 7 1.3 3.4 5.9 2.7 8.5 1.3.4-.2.1-.8-.4-.6z" class="st1"/>
      <path d="M443.7 140.7c-8.1-6.1-.2-22.2 9.4-14.8 2.1 1.6 3.2 3.1 6.1 3.1 5.2.1 9-1.7 14 1.1 5.4 3 8.3 8.8 8 14.8-.5 9.8-8.5 20.6-19.1 20.1-11.9-.6-18-12.3-17.7-23 0-.5-.7-.5-.8 0-.3 11.9 7.7 25.4 21.3 23.6 11.2-1.4 19.2-15.3 16.5-25.9-1.4-5.5-5.6-9.9-11-11.6-2.8-.9-5.3-.5-8.2-.4-3.9.1-6.7-.7-9.5-3.2-.7-.7-1.2-1.1-2.1-1.5-4.5-1.7-8.7 2.6-10.3 6.4-1.9 4.4-.9 9.1 3 12 .4.2.8-.5.4-.7z" class="st1"/>
    </g>
  </g>
</svg>
