<svg xmlns="http://www.w3.org/2000/svg" xmlns:xlink="http://www.w3.org/1999/xlink" viewBox="0 0 455.97 546.32"><defs><style>.cls-1,.cls-11,.cls-8{fill:none;}.cls-10,.cls-2,.cls-3{fill:#fff;}.cls-2{stroke:#000;}.cls-10,.cls-11,.cls-2,.cls-8{stroke-miterlimit:10;}.cls-4{fill:#202124;}.cls-5{fill:#fdd68b;}.cls-6{fill:#64bca7;}.cls-7{fill:#ffad89;}.cls-10,.cls-11,.cls-8{stroke:#202124;}.cls-10,.cls-8{stroke-width:0.75px;}.cls-9{clip-path:url(#clip-path);}</style><clipPath id="clip-path" transform="translate(6.84)"><ellipse class="cls-1" cx="59.91" cy="127.51" rx="130.8" ry="50.77" transform="translate(-78.75 152.43) rotate(-75.02)"/></clipPath></defs><g id="Layer_2" data-name="Layer 2"><g id="Layer_1-2" data-name="Layer 1"><ellipse class="cls-2" cx="60.07" cy="127.55" rx="130.8" ry="50.77" transform="translate(-71.83 152.62) rotate(-75.02)"/><path class="cls-3" d="M353.36,101.52a9.37,9.37,0,0,0-.63,3.53,15.89,15.89,0,0,0,.45,5.28,12.32,12.32,0,0,0,13.25,9.49,7.83,7.83,0,0,0,5.22-2.1c1.35-1.45,1.55-3.21,1.89-6.14a13.16,13.16,0,0,0-.16-5.59,11.56,11.56,0,0,0-3.15-5C365.18,96.43,355.33,97.62,353.36,101.52Z" transform="translate(6.84)"/><path class="cls-4" d="M352.85,102.21c-1.29,5-.27,10.69,3.43,14.41a12.2,12.2,0,0,0,13.48,2.63c.43-.2.05-.85-.38-.65a11.43,11.43,0,0,1-12.73-2.68c-3.38-3.54-4.29-8.88-3.08-13.51a.37.37,0,0,0-.72-.2Z" transform="translate(6.84)"/><path class="cls-4" d="M354.26,104.52a7.78,7.78,0,0,0-.24,2.2.37.37,0,0,0,.37.38.39.39,0,0,0,.38-.38,6.68,6.68,0,0,1,.21-2,.39.39,0,0,0-.26-.47.38.38,0,0,0-.46.27Z" transform="translate(6.84)"/><path class="cls-4" d="M353.35,102.51c.78-1.47,2.37.08,2.84.93a24.75,24.75,0,0,0,1.49,2.66c1,1.47,2.62,3.05,4.47,3.35,2,.33,2.9-1.58,4.63-2,2.69-.72,4.49,1.94,4.43,4.33,0,.48.73.48.75,0a4.86,4.86,0,0,0-3.36-5,3.86,3.86,0,0,0-2.83.33c-1.06.58-1.91,1.78-3.23,1.72s-2.76-1.27-3.64-2.29a17.78,17.78,0,0,1-2.07-3.39,3.15,3.15,0,0,0-2.08-1.81,1.84,1.84,0,0,0-2,.88c-.23.43.42.81.64.38Z" transform="translate(6.84)"/><path class="cls-4" d="M353.62,102.28a12.58,12.58,0,0,1,10.57-10.74,12,12,0,0,1,12.52,8.15c.14.46.87.26.72-.2a12.73,12.73,0,0,0-13.24-8.7,13.31,13.31,0,0,0-11.3,11.29c-.06.47.66.67.73.2Z" transform="translate(6.84)"/><path class="cls-4" d="M400.05,92.46c3.3,7.91,2.33,18.74-2.72,21.41-1.95,1-3,0-8.85-.65-11.59-1.39-13.89,1.73-19.52-.7a17.22,17.22,0,0,1-9.75-11.89c-1.13-5.35.41-12.41,4.41-14.24,2.75-1.25,4.48,1,7.73-.37,4.09-1.65,3.57-6,6.61-7.75C383.15,75.34,395.65,82,400.05,92.46Z" transform="translate(6.84)"/><path class="cls-4" d="M353.21,102.31c.55-.19.7-.7,1.28-.72.9,0,1.53,1.12,2.53,2.69,1.64,2.57,2.68,4.15,4.3,4.53a4.92,4.92,0,0,0,3.39-.58c.57-.33.53-.48,1-.75a4.2,4.2,0,0,1,4.19.28c1.62,1.11,1.76,3.08,1.83,4a6.86,6.86,0,0,1-.2,2.17A11.94,11.94,0,0,0,378,100.85a11.54,11.54,0,0,0-1.7-4.06,13.12,13.12,0,0,0-5.9-4.59,20.15,20.15,0,0,0-13.54-1.51c-1.24.32-8.92,2.44-9,6.34C347.77,99.8,351.52,102.88,353.21,102.31Z" transform="translate(6.84)"/><path class="cls-3" d="M399.16,267.11c-1.6.3-2.34,1.11-5.83,4.63-8.58,8.7-9.16,9-12.3,12.7-1.9,2.26-3.39,4.18-4.38,5.48a23.46,23.46,0,0,0,8,2.67,23.84,23.84,0,0,0,7.59-.15A28.47,28.47,0,0,0,400,287a30.37,30.37,0,0,0,6.37-9.63,36.11,36.11,0,0,0,2.1-6.09C406.73,269.54,403.05,266.36,399.16,267.11Z" transform="translate(6.84)"/><path class="cls-5" d="M401.55,150a17.76,17.76,0,0,1,22.75-21.15,85.18,85.18,0,0,1,9.15,15.64c2.4,5.34,5.49,15,8.19,42.06a266.24,266.24,0,0,1,1.2,34.7l-10.59,16q-12.06,18.19-24.17,36.37a25.43,25.43,0,0,1-8.92-6.47q4.72-15.62,10.4-32.06,4.37-12.6,8.9-24.45c-2.3-11.3-5.21-23.33-8.9-35.94C407,166,404.33,157.75,401.55,150Z" transform="translate(6.84)"/><path class="cls-5" d="M431.34,138.61l12.45,74.87" transform="translate(6.84)"/><path class="cls-4" d="M401.19,150.08q7.88,23,13.59,46.67c1.09,4.52,2.11,9.07,3.08,13.62.1.47.82.27.72-.2q-5.06-23.79-12.32-47-2.08-6.66-4.35-13.26c-.15-.46-.88-.26-.72.2Z" transform="translate(6.84)"/><path class="cls-4" d="M417.69,210.24q-10.19,27.34-18.44,55.36a.38.38,0,0,0,.73.2q8.24-28,18.43-55.36c.17-.45-.56-.65-.72-.2Z" transform="translate(6.84)"/><path class="cls-5" d="M442.84,221.23l-33,49.78" transform="translate(6.84)"/><path class="cls-4" d="M398.9,267.37a26.91,26.91,0,0,0,7.31,5.77c.42.23.8-.42.38-.65a26.16,26.16,0,0,1-7.16-5.65c-.32-.36-.85.17-.53.53Z" transform="translate(6.84)"/><path class="cls-4" d="M398.33,273c.81,2.17-1.78,4.11-3.13,5.42l-5.34,5.19c-.35.33.18.86.53.53l6-5.8c1.43-1.39,3.52-3.31,2.69-5.54-.17-.44-.89-.25-.72.2Z" transform="translate(6.84)"/><path class="cls-4" d="M394.18,270.53A99.12,99.12,0,0,0,377.13,289c-.28.39.37.77.65.38a98.26,98.26,0,0,1,16.93-18.29c.37-.31-.16-.84-.53-.53Z" transform="translate(6.84)"/><path class="cls-4" d="M380.66,291.07l7.46-4.25a.38.38,0,0,0-.38-.65l-7.46,4.25a.38.38,0,0,0,.38.65Z" transform="translate(6.84)"/><path class="cls-4" d="M384.93,292a18.26,18.26,0,0,0,10.92-3.6c.38-.29,0-.94-.38-.65a17.56,17.56,0,0,1-10.54,3.5.38.38,0,0,0,0,.75Z" transform="translate(6.84)"/><path class="cls-4" d="M392.43,292.76a25.18,25.18,0,0,0,11.47-10.39.38.38,0,0,0-.65-.38,24.44,24.44,0,0,1-11.2,10.12c-.44.2-.06.84.38.65Z" transform="translate(6.84)"/><path class="cls-6" d="M426.82,521.55c-3.9,1.56-9.16,3.71-15.35,6.37-12.25,5.25-18.37,7.9-18.25,9.05.23,2.11,10.95,3.87,55.91,2.54l-5.25-19.22Z" transform="translate(6.84)"/><path class="cls-7" d="M418.09,278.48c.57,3.79,1.41,9.37,2.39,16.12.32,2.24,3.48,24.12,6.58,49.22,6.48,52.45,11.29,107.35,12.16,117.38,1.32,15.19,3,35.31,4.66,59.09a16.32,16.32,0,0,1-7.83,2.74A16.84,16.84,0,0,1,425.24,520c-6.07-16.37-16.09-44.1-25.5-74.2-4.49-14.32-8.28-27.41-8.82-29.3-2.92-10.08-5.9-20.41-9.34-33.87-5.73-22.49-8.61-33.73-8.81-35.2A60.3,60.3,0,0,0,366.09,326c-1.6-3-2.29-3.59-3.19-5.21-5.56-9.92-4-29.5,8.84-41C384,268.77,403.53,267.91,418.09,278.48Z" transform="translate(6.84)"/><path class="cls-7" d="M419.71,289.26Q436,402.11,443.2,516" transform="translate(6.84)"/><path class="cls-7" d="M366.18,327.77c4.18,9.09,6.46,18.92,8.81,28.64A1404.29,1404.29,0,0,0,425.24,520" transform="translate(6.84)"/><path class="cls-4" d="M428.38,522.21a18.13,18.13,0,0,0,15.69-1.6c.41-.25,0-.9-.38-.64a17.44,17.44,0,0,1-15.12,1.52c-.45-.17-.64.56-.19.72Z" transform="translate(6.84)"/><path class="cls-3" d="M415.49,526.06a6.11,6.11,0,0,0-.14,4.73.39.39,0,0,0,.46.27.38.38,0,0,0,.26-.47,5.41,5.41,0,0,1,.07-4.16.39.39,0,0,0-.13-.51.39.39,0,0,0-.52.14Z" transform="translate(6.84)"/><path class="cls-3" d="M419,524.69a5,5,0,0,0-.1,4.86c.23.43.88.05.65-.38a4.29,4.29,0,0,1,.09-4.1.37.37,0,0,0-.64-.38Z" transform="translate(6.84)"/><path class="cls-3" d="M421.66,523.45a4.56,4.56,0,0,0,.58,3.8.38.38,0,0,0,.51.13.38.38,0,0,0,.14-.51,3.82,3.82,0,0,1-.51-3.22.37.37,0,0,0-.72-.2Z" transform="translate(6.84)"/><path class="cls-3" d="M399.06,537.65c15.3.36,30.76,1.24,46-.9.48-.06.28-.79-.19-.72-15.14,2.13-30.54,1.23-45.77.87-.48,0-.48.73,0,.75Z" transform="translate(6.84)"/><path class="cls-3" d="M421.81,523A5.44,5.44,0,0,1,420,520.7c-.32-.78-.67-2.12.21-2.68s1.39.91,1.43,1.6a8,8,0,0,1-.5,3.18h.73c-.13-.63-.86-.56-1.3-.32a7.46,7.46,0,0,0-2,1.88c-.94,1.2-2,3.08-1.67,4.68a1.46,1.46,0,0,0,1.32,1.25,2.44,2.44,0,0,0,1.93-1.2,13.44,13.44,0,0,0,2.05-5.73c.08-.48-.64-.68-.72-.2a16.81,16.81,0,0,1-1.06,3.93,7,7,0,0,1-1.09,1.84c-.43.48-1.3,1-1.64.14-.43-1,.37-2.53.88-3.38a7.8,7.8,0,0,1,1.17-1.52,7.3,7.3,0,0,1,.71-.65,6.06,6.06,0,0,0,.73-.52c.08.39.61.31.73,0a7.54,7.54,0,0,0,.38-4.35c-.27-1-1.18-1.9-2.27-1.36s-1.19,2.12-.83,3.25a6.23,6.23,0,0,0,2.3,3.12c.39.28.76-.37.38-.65Z" transform="translate(6.84)"/><path class="cls-6" d="M377.66,528c-3.27,1-7.56,2.35-12.59,3.93-25.57,8-26.7,8.9-26.67,9.54.11,2,11.7,4,56.87,4.84L391,526.92Z" transform="translate(6.84)"/><path class="cls-7" d="M333.61,281.07c.53,2.39,1.29,6,2,10.47a185.53,185.53,0,0,1,2.19,26.06c.16,5.1,1.32,14.8,3.66,34.2,6.09,50.69,15.73,99.1,15.73,99.1,4.53,22.71,10.55,49.69,18.62,79.92a15.14,15.14,0,0,0,15.18-2c.13-5.87.34-14.64.6-25.29.84-34.14,1.78-72.41,2.7-96.66.95-25.1,2.85-60.68,7-104.95l1.16-45.56Z" transform="translate(6.84)"/><path class="cls-7" d="M335.17,285.37A1321.83,1321.83,0,0,0,375,528.59" transform="translate(6.84)"/><path class="cls-7" d="M399.73,315.57q-7.86,104.87-8.32,210.11" transform="translate(6.84)"/><path class="cls-4" d="M375.62,531.14a15.59,15.59,0,0,0,15.63-2.1c.38-.3-.15-.83-.53-.53a14.78,14.78,0,0,1-14.72,2c-.44-.19-.82.46-.38.65Z" transform="translate(6.84)"/><path class="cls-3" d="M364.18,531.74a8.64,8.64,0,0,0-2.22,6.51c.05.47.8.48.75,0a7.88,7.88,0,0,1,2-6c.33-.36-.2-.89-.53-.53Z" transform="translate(6.84)"/><path class="cls-3" d="M367.23,531a7.67,7.67,0,0,0-1.37,5.81c.08.48.8.27.72-.2a6.94,6.94,0,0,1,1.3-5.23c.29-.38-.36-.76-.65-.38Z" transform="translate(6.84)"/><path class="cls-3" d="M371,529.72a4.91,4.91,0,0,0-1.08,3.38c0,.34,0,.68.07,1a6.8,6.8,0,0,0,.13,1,.47.47,0,0,0,.63.39.43.43,0,0,0,.13-.7c-.35-.33-.89.2-.53.53l0,0-.09-.36.06-.1.26-.11h0l.27.11s0-.25,0-.29,0-.2,0-.3-.05-.48-.07-.71a8.06,8.06,0,0,1,0-1.3,3.71,3.71,0,0,1,.83-2.06c.31-.36-.22-.89-.53-.53Z" transform="translate(6.84)"/><path class="cls-3" d="M370.29,529.9c-2,0-4.24-1.38-4-3.67.05-.47.24-1.25.76-1.38s1.08.66,1.36,1.09a7.07,7.07,0,0,1,1.12,2.87,2.51,2.51,0,0,1,.07.86,1.71,1.71,0,0,1-.39.46,13.65,13.65,0,0,0-.95,1.21,10.12,10.12,0,0,0-1.45,2.71,2.64,2.64,0,0,0,.22,2.43,1.41,1.41,0,0,0,2,0,5.73,5.73,0,0,0,1.49-2.62,9.12,9.12,0,0,0,.43-3.52c0-.48-.78-.48-.75,0a8.41,8.41,0,0,1-.44,3.41,7.4,7.4,0,0,1-.73,1.56c-.28.46-1.15,1.32-1.51.41-.45-1.09.41-2.46,1-3.36a14.41,14.41,0,0,1,1-1.44c.28-.32.79-.68.88-1.11a4.49,4.49,0,0,0-.13-1.45,8.07,8.07,0,0,0-.46-1.52,6.22,6.22,0,0,0-1.68-2.48,1.29,1.29,0,0,0-1.95.17,3.39,3.39,0,0,0-.53,2.63c.41,2.22,2.59,3.4,4.71,3.44a.38.38,0,0,0,0-.75Z" transform="translate(6.84)"/><path class="cls-3" d="M353.42,543.22q18.87,1.14,37.76,1.57a.38.38,0,0,0,0-.75q-18.89-.43-37.76-1.57c-.48,0-.48.72,0,.75Z" transform="translate(6.84)"/><path class="cls-5" d="M329.2,130.1c-1.66,17.55-2.69,36.52-2.72,56.74a612.44,612.44,0,0,0,7.13,94.23,186.5,186.5,0,0,0,18.49,5.51c13.75,3.34,25.57,6.2,39.74,4.38a74.31,74.31,0,0,0,26.47-8.83c.32-4.27.82-10.65,1.55-18.38,1.52-16,2.77-24.64,5.51-45.85,5.11-39.58,5.67-47.85,5.94-55.79.37-10.9.15-19.84-.1-25.67a38.56,38.56,0,0,0-11.14-12.25c-1.52-1.07-6-4-15.22-6.34-13.75-3.45-25.21-2.26-32.3-1.46a121.42,121.42,0,0,0-24.75,5.68A126.72,126.72,0,0,0,329.2,130.1Z" transform="translate(6.84)"/><path class="cls-4" d="M329.39,130.43A134.39,134.39,0,0,1,378.3,116c13.2-1.15,27,.2,38.7,6.81,6.55,3.7,11.58,8.67,14,15.91.15.45.88.26.72-.2a27.22,27.22,0,0,0-10.52-13.95c-6.9-4.91-15.13-7.67-23.44-8.91-13.32-2-27.11-.15-40.06,3.2A141.46,141.46,0,0,0,329,129.78c-.43.22-.05.86.38.65Z" transform="translate(6.84)"/><path class="cls-4" d="M430.84,136.44c1.24,18.41-.54,36.83-2.68,55.11C426,210,423.72,228.5,421.5,247l-3.79,31.5c0,.48.7.47.75,0q3.36-27.92,6.71-55.81c2.21-18.33,4.79-36.66,6.12-55.07a223.49,223.49,0,0,0,.3-31.16c0-.48-.78-.49-.75,0Z" transform="translate(6.84)"/><path class="cls-4" d="M326.78,131.32a538.47,538.47,0,0,0-.63,57c.73,19,2.22,38,4,56.94,1,10.71,2.09,21.42,3.17,32.12.05.48.8.48.75,0-1.92-18.94-3.85-37.88-5.28-56.86s-2.38-38-2.35-57c0-10.74.37-21.48,1.1-32.19,0-.48-.72-.48-.75,0Z" transform="translate(6.84)"/><path class="cls-4" d="M334.94,281.44c20.51,7.4,42.7,13.07,64.49,8.22a63.49,63.49,0,0,0,16.4-6.08c.43-.23.05-.88-.37-.65-19.16,10.37-41.88,9-62.29,3.55-6.1-1.63-12.09-3.62-18-5.76-.45-.16-.65.56-.2.72Z" transform="translate(6.84)"/><path class="cls-6" d="M225.22,218.07l-22.79-13.16a12.73,12.73,0,0,0-4.74-11.19,38.3,38.3,0,0,0-14.4,20.85,12.72,12.72,0,0,0,12.21.43l23.62,13.64a3.27,3.27,0,0,0,4.47-1.2l2.83-4.89A3.29,3.29,0,0,0,225.22,218.07Z" transform="translate(6.84)"/><line class="cls-8" x1="202.33" y1="194.02" x2="120.92" y2="24.09"/><line class="cls-8" x1="186.1" y1="215.75" x2="40.72" y2="254.41"/><path class="cls-3" d="M220.83,205a18.38,18.38,0,0,0-2.87-3.58,20.11,20.11,0,0,0-5.13-3.52c-1.81-1-2.44-1.09-2.92-.82-.78.43-.84,1.72-.86,2.34a5.87,5.87,0,0,0,1,3.5,49.26,49.26,0,0,0-3.8,4.19,35.68,35.68,0,0,0-6.54,11.09,30.28,30.28,0,0,0-1.24,4.93c.49.35,1.24.85,2.17,1.39,2.82,1.61,5.85,3.36,9.53,3.14a13.36,13.36,0,0,0,6.33-2.28,14.19,14.19,0,0,0,4.87-4.28,13.34,13.34,0,0,0,2.27-7.28A14.37,14.37,0,0,0,220.83,205Z" transform="translate(6.84)"/><path class="cls-5" d="M327.15,131.32c-6,7.22-12.15,15.25-18.23,24.14a324.19,324.19,0,0,0-25.44,44.27,222.33,222.33,0,0,1-32.1,5,222.87,222.87,0,0,1-30.55.35,16.92,16.92,0,0,0-1.32,16.5c4,2.34,9.36,5.31,15.83,8.46A246.57,246.57,0,0,0,267,242.73a250.84,250.84,0,0,0,26.19,7,11.62,11.62,0,0,0,5.07-.78,13.38,13.38,0,0,0,3.68-2.36c4.07-3.31,6.11-5,6.55-5.36,2.15-1.93,4.59-4.12,7.71-7.31.25-.25,3.64-3.73,7.07-7.77,8.61-10.13,16.95-23.2,22.26-32,5-8.27,7.47-12.4,9.5-17.17,4.38-10.34,7.72-17.8,6.16-24.64C358.69,141.55,344.59,133.73,327.15,131.32Z" transform="translate(6.84)"/><path class="cls-4" d="M326.89,131.05a335.74,335.74,0,0,0-36.23,53.45q-3.89,7.13-7.41,14.42c-.21.43.44.81.65.38a335.57,335.57,0,0,1,32.18-53.25q5.48-7.38,11.34-14.47c.3-.36-.22-.9-.53-.53Z" transform="translate(6.84)"/><path class="cls-4" d="M283.38,199.37c-19.9,5.15-40.56,5.64-61,6.08-.48,0-.48.77,0,.75,15.93-.34,31.93-.7,47.69-3.27,4.54-.75,9.05-1.68,13.51-2.84a.37.37,0,0,0-.2-.72Z" transform="translate(6.84)"/><path class="cls-4" d="M220,206.64a12.13,12.13,0,0,0-1.91,10.69.37.37,0,0,0,.72-.2A11.43,11.43,0,0,1,220.66,207c.29-.39-.36-.76-.65-.38Z" transform="translate(6.84)"/><path class="cls-4" d="M219.84,222.38A268.72,268.72,0,0,0,287.54,249c2.73.67,5.6,1.47,8.43,1,2.64-.43,4.78-2.09,6.85-3.69a130.35,130.35,0,0,0,12.47-11,175.32,175.32,0,0,0,20.83-25.6,336.44,336.44,0,0,0,19.18-32.57c.23-.43-.42-.81-.65-.38C344.5,196,333.26,215,318.36,231.05a134.14,134.14,0,0,1-11.54,11.08,75.22,75.22,0,0,1-6.84,5.38A11.35,11.35,0,0,1,290.9,249c-5.84-1.16-11.62-2.86-17.31-4.59s-11.21-3.59-16.71-5.66a267.47,267.47,0,0,1-36.66-17.05c-.42-.23-.8.42-.38.65Z" transform="translate(6.84)"/><path class="cls-4" d="M221.1,204.78q-2.17-2.22-4.5-4.28a20.36,20.36,0,0,0-4.4-3.34c-1.06-.5-3.06-.92-3.51.61a6,6,0,0,0,.13,2.7,10.22,10.22,0,0,0,1,2.68c.22.43.86,0,.64-.38a9.81,9.81,0,0,1-.83-2.29,5.37,5.37,0,0,1-.18-2.51c.27-.78,1.38-.54,2-.35a7.15,7.15,0,0,1,2,1.13,64.27,64.27,0,0,1,7.24,6.56.38.38,0,0,0,.53-.53Z" transform="translate(6.84)"/><path class="cls-4" d="M206.62,206.08a72,72,0,0,0-7.3,12.23c-.7,1.48-2,3.63-1,5.25.87,1.37,2.81,1.33,4.13,2,.43.21.81-.44.37-.65-1.19-.59-3.29-.61-3.95-1.92-.52-1,.24-2.4.67-3.35s.87-1.87,1.34-2.79a71.31,71.31,0,0,1,6.4-10.38c.28-.39-.37-.76-.65-.38Z" transform="translate(6.84)"/><path class="cls-4" d="M205.83,226.44A7.46,7.46,0,0,0,212,228a12.47,12.47,0,0,0,6.14-3.39c.36-.32-.17-.85-.53-.53a12,12,0,0,1-5.45,3.12,6.68,6.68,0,0,1-5.79-1.25c-.37-.31-.9.21-.53.53Z" transform="translate(6.84)"/><path class="cls-4" d="M390.81,527.88c1.15-11.07,2.45-22.12,3.31-33.22.42-5.58.6-11.16.89-16.75s.84-11,1.3-16.55c.93-11.22.79-22.42.66-33.67-.07-5.67-.1-11.34.13-17s.59-11.15.7-16.73c.24-12.64-.15-25.28-.15-37.92a.38.38,0,0,0-.75,0c0,11.25.31,22.49.21,33.74s-1,22.47-.93,33.73.49,22.49-.3,33.72c-.4,5.6-1,11.19-1.38,16.79s-.48,11-.84,16.52c-.82,12.48-2.31,24.91-3.6,37.35-.05.48.7.47.75,0Z" transform="translate(6.84)"/><g class="cls-9"><g id="tab_1" data-name="tab 1"><polygon class="cls-10" points="0.5 112.94 24.03 170.91 173.57 121.54 152.47 59.76 0.5 112.94"/><path class="cls-4" d="M-1.44,125.11Q74.11,98.59,149.64,72c-1.31-4.1-2.7-8.14-4-12.23Q69.6,86.37-6.29,113" transform="translate(6.84)"/><circle class="cls-5" cx="14.17" cy="132.65" r="4.8" transform="translate(-57.22 24.59) rotate(-29.81)"/><circle class="cls-5" cx="19.93" cy="152.97" r="4.6" transform="translate(-66.56 30.15) rotate(-29.81)"/><line class="cls-11" x1="29.62" y1="124.95" x2="132.78" y2="86.95"/><line class="cls-11" x1="48.81" y1="124.44" x2="153.54" y2="85.77"/><line class="cls-11" x1="33.38" y1="137.55" x2="110.3" y2="107.66"/><line class="cls-11" x1="34.95" y1="147.13" x2="158.78" y2="103.17"/><line class="cls-11" x1="37.79" y1="152.08" x2="147.54" y2="112.72"/><line class="cls-11" x1="99.65" y1="139.57" x2="161.44" y2="117.66"/></g></g></g></g></svg>