<svg xmlns="http://www.w3.org/2000/svg" viewBox="0 0 570.4 497.41"><defs><style>.cls-1{fill:#fdd68b;}.cls-2,.cls-7{fill:#fff;}.cls-3{fill:#64bca7;}.cls-4{fill:#202124;}.cls-5{fill:#ffad89;}.cls-6,.cls-8{fill:none;}.cls-6{stroke:#fff;}.cls-6,.cls-7,.cls-8{stroke-miterlimit:10;}.cls-7,.cls-8{stroke:#202124;}</style></defs><g id="Layer_2" data-name="Layer 2"><g id="Layer_1-2" data-name="Layer 1"><path class="cls-1" d="M443.28,444.73l-10.61,24.36c23.68,14.38,48.38,27.44,52.75,22.19,2.06-2.48.9-10.54-24.67-40.28Z"/><path class="cls-2" d="M460.93,455.82a4.39,4.39,0,0,0-5.62-.11,3,3,0,0,0-1.21,2.71,1.48,1.48,0,0,0,.86,1.16,3.24,3.24,0,0,0,2-.05,7,7,0,0,0,3.61-2.28c.31-.37-.22-.91-.53-.53a6.22,6.22,0,0,1-2.52,1.84A5.81,5.81,0,0,1,456,459c-.45,0-.91,0-1.08-.49a2.12,2.12,0,0,1,.83-2.11,3.66,3.66,0,0,1,2.22-.85,3.37,3.37,0,0,1,2.48.85c.36.33.89-.2.53-.53Z"/><path class="cls-2" d="M460.91,456a3.09,3.09,0,0,1,1.81-1.85,3.64,3.64,0,0,1,3-.21,1.45,1.45,0,0,1,.77,2,2.64,2.64,0,0,1-2.09.92,6.1,6.1,0,0,0-3.15.67c-.4.27,0,.92.38.64,1-.67,2.2-.45,3.3-.62a2.85,2.85,0,0,0,2.36-1.54,2.23,2.23,0,0,0-1-2.61,4.65,4.65,0,0,0-6.06,2.42.38.38,0,0,0,.73.2Z"/><path class="cls-2" d="M460.46,462a9,9,0,0,1,7.32-.8c.46.16.66-.57.2-.72a9.73,9.73,0,0,0-7.9.87.38.38,0,0,0,.38.65Z"/><path class="cls-2" d="M463,466.54a7.29,7.29,0,0,1,7-1.05c.46.17.65-.56.2-.73a8,8,0,0,0-7.57,1.13c-.38.29,0,.94.38.65Z"/><path class="cls-2" d="M466.36,471a8,8,0,0,1,7.55-.79c.45.18.64-.54.2-.72a8.71,8.71,0,0,0-8.13.86c-.4.27,0,.92.38.65Z"/><path class="cls-2" d="M470,478a13.05,13.05,0,0,1,10.39-1.5.38.38,0,0,0,.2-.73,13.87,13.87,0,0,0-11,1.58c-.41.26,0,.91.38.65Z"/><path class="cls-2" d="M435,466.48q16.56,9.38,32.38,19.92c.41.27.78-.38.38-.65q-15.82-10.54-32.38-19.91a.37.37,0,0,0-.38.64Z"/><path class="cls-3" d="M473.89,216.45c2.4,5.14,6.29,13.35,11.3,23.39,6.64,13.3,12.86,25.77,21.61,41.66,9.09,16.54,12.44,21.38,15.72,32.22,1.73,5.72,3.7,12.43,3.77,21.4,0,4.88-.46,14.4-7.34,30.95a159.63,159.63,0,0,1-17.88,31.82c-9.06,12.9-21.23,30.46-37.8,55a37.19,37.19,0,0,0-7.26-4.57,37.83,37.83,0,0,0-12.73-3.55c1-3,2.47-7.51,4.06-13.12,3.36-11.78,5.56-22.18,10.93-53.4,1.09-6.3,2.48-14.47,4.06-24a55.54,55.54,0,0,0-2.71-13.79c-2.4-7.2-5.25-10.72-12.49-23-2.74-4.66-5.31-9.4-8-14.1-9.58-16.95-10.4-18.47-14-24.72-3.26-5.71-7.94-13.83-13.77-23.68a41.56,41.56,0,0,1,6.25-17.49C433.87,212.33,472.29,216.26,473.89,216.45Z"/><path class="cls-4" d="M476.07,223.35q12.09,22.83,23.95,45.8,6,11.53,11.85,23.1c3.77,7.42,7.85,14.8,10.69,22.64a56.81,56.81,0,0,1,3.21,23.48,82.61,82.61,0,0,1-5.39,23.14c-5.7,15.16-14.62,28.92-23.7,42.24-9.62,14.1-19.37,28.11-29.06,42.16l-3.65,5.3c-.28.4.37.78.65.38q14.83-21.52,29.68-43c9.29-13.49,18.58-27.22,25-42.36,6-14.06,9.52-29.89,5.91-45.05-1.88-7.91-5.58-15.21-9.23-22.42q-5.94-11.68-11.92-23.35-12-23.42-24.35-46.71-1.5-2.85-3-5.68c-.22-.43-.87-.05-.64.38Z"/><path class="cls-4" d="M417.28,265.29,454,330.21c2.93,5.19,6,10.42,7.1,16.36s.32,12.32-.69,18.35c-2,12.09-4.37,24.15-6.84,36.16q-4.18,20.35-9.09,40.57a.38.38,0,0,0,.73.2q8.85-36.59,15.4-73.68c1-5.77,2-11.63,1.7-17.52a37.83,37.83,0,0,0-4.92-15.91c-5.9-11-12.26-21.75-18.39-32.6l-21-37.23a.38.38,0,0,0-.65.38Z"/><path class="cls-4" d="M445.23,444.56A26.93,26.93,0,0,1,460,452a.38.38,0,0,0,.53-.53,27.65,27.65,0,0,0-15.09-7.59c-.47-.08-.68.65-.2.72Z"/><path class="cls-1" d="M347.83,437.18l-8.52,18.15q62.83,28.83,66.54,22.6,3.21-5.43-38.49-37.5Z"/><path class="cls-2" d="M369.48,443.33a7.22,7.22,0,0,0-6.21,3.51,3.59,3.59,0,0,0-.62,1.86,1.46,1.46,0,0,0,.93,1.33c1.1.4,2.27-.36,3.1-1a16.69,16.69,0,0,0,3.41-3.56c.28-.39-.37-.76-.65-.37a15.6,15.6,0,0,1-2.47,2.73,5,5,0,0,1-2.69,1.55.74.74,0,0,1-.87-.63,2.66,2.66,0,0,1,.51-1.54,6.47,6.47,0,0,1,5.56-3.13.38.38,0,0,0,0-.75Z"/><path class="cls-2" d="M370.37,444.36a4.65,4.65,0,0,1,3.83-2.78c.64-.05,1.95,0,1.83.94s-1.26,1.23-2,1.43l-3.79.95a.37.37,0,0,0,.19.72c1.33-.33,2.67-.65,4-1,1-.26,2.16-.76,2.36-1.92a1.48,1.48,0,0,0-.42-1.35,2.33,2.33,0,0,0-1.42-.52,5.11,5.11,0,0,0-2.89.65,5.24,5.24,0,0,0-2.29,2.5c-.19.44.46.82.64.38Z"/><path class="cls-2" d="M371.67,449.71a7.54,7.54,0,0,1,5.35-2.37.38.38,0,0,0,0-.75,8.35,8.35,0,0,0-5.88,2.59c-.34.35.19.88.53.53Z"/><path class="cls-2" d="M374.21,452.53a5.48,5.48,0,0,1,4.78-2,.38.38,0,1,0,0-.75,6.17,6.17,0,0,0-5.31,2.21.39.39,0,0,0,0,.53.37.37,0,0,0,.53,0Z"/><path class="cls-2" d="M377,455.3a6.25,6.25,0,0,1,5.84-2.23c.47.08.68-.64.2-.72a7,7,0,0,0-6.57,2.42c-.3.37.22.9.53.53Z"/><path class="cls-2" d="M382,458.06a14.22,14.22,0,0,1,7.61-3.16c.48,0,.48-.8,0-.75a15.18,15.18,0,0,0-8.14,3.38c-.38.31.16.83.53.53Z"/><path class="cls-2" d="M340.82,452.22l35.14,18c.43.22.81-.43.38-.65l-35.14-18c-.43-.22-.81.43-.38.65Z"/><path class="cls-3" d="M374.86,233.36c-.21,2.73-.47,6.7-.63,11.5-.24,7.11-.63,19,.79,29.07,1.57,11.12,5.24,19.2,9.41,27.87,14.24,29.64,31.06,59.51,37.31,70.48-2.83,2-7.18,5.19-12.36,9.22-9.3,7.24-17.43,14.28-38.81,34.24-5.94,5.55-13.69,12.82-22.74,21.44a61,61,0,0,1,22.07,5.36c4.4-2.12,11.41-5.46,20.09-9.46,9.89-4.55,25.89-11.76,44.58-20.77,4.48-2.16,17.08-8.33,26.64-17.73a40.62,40.62,0,0,0,7.08-9,42.3,42.3,0,0,0,4.86-14.22,58.92,58.92,0,0,0,0-21.19c-1.42-6.38-3.45-15.25-6-25.82-3.43-14.08-7.33-30.06-12.87-48.76-3.92-13.23-9.5-30.64-17.22-51Z"/><path class="cls-4" d="M374.63,231.46a292.18,292.18,0,0,0-.89,30.18,95.42,95.42,0,0,0,1.19,14.13,74.75,74.75,0,0,0,3.88,13.67c3.35,8.9,7.48,17.55,11.67,26.08,4.3,8.73,8.86,17.34,13.56,25.87,5.31,9.66,10.8,19.22,16.28,28.78a.38.38,0,0,0,.65-.38c-9.58-16.69-19.16-33.39-27.81-50.58-4.38-8.69-8.58-17.5-12.26-26.5a92.19,92.19,0,0,1-4.44-13.23A75.25,75.25,0,0,1,374.6,265a271.86,271.86,0,0,1,.78-33.53c0-.48-.71-.48-.75,0Z"/><path class="cls-4" d="M419.87,372.24q-29.14,24.12-56.81,49.95-7.81,7.31-15.5,14.73c-.35.34.18.87.53.53q27.21-26.29,56-50.92,8.13-6.94,16.36-13.76c.37-.31-.16-.84-.53-.53Z"/><path class="cls-4" d="M448.07,255.73q11.26,37.47,20.36,75.54Q471,342,473.36,352.72c.1.47.82.27.72-.2q-8.46-38.19-19.12-75.86-3-10.59-6.16-21.13c-.14-.46-.87-.26-.73.2Z"/><path class="cls-4" d="M473.4,357c.33,9.28-.3,18.87-4.78,27.22-3.91,7.28-10.14,13-16.86,17.69a175,175,0,0,1-23,12.91c-8.67,4.26-17.51,8.19-26.31,12.16-10,4.52-20,9.11-29.74,14.29-.42.23,0,.88.38.65,17.62-9.4,36.19-16.82,54.14-25.52,8.18-4,16.38-8.08,23.91-13.17,6.64-4.49,12.85-9.91,17.07-16.8,5.41-8.86,6.29-19.27,5.93-29.43,0-.48-.77-.49-.75,0Z"/><path class="cls-1" d="M349.41,438.12a56.9,56.9,0,0,1,9.77.26,18.91,18.91,0,0,1,9,3.52"/><path class="cls-2" d="M518.87,130.79c2.68-5,5.16-9.07,7-12,4-6.25,5.55-7.72,7.14-8.83a19.28,19.28,0,0,1,10.85-3.19c-.15,1.08-.26,2.25-.31,3.48a38.48,38.48,0,0,0,.46,7.83c-.56.81-1.49,2.16-2.66,3.83-2.68,3.86-3,4.22-3.38,5.14-1.41,3-.59,3.9-1.74,6.07a11,11,0,0,1-5.54,4.6c-5.55,2.47-13.33,1.51-14.36-1.57C516.14,135.46,516,133.85,518.87,130.79Z"/><path class="cls-2" d="M493.62,84q1.41,1.63,2.8,3.28c.16,1.46.37,3.53.61,6,.71,7.35,1.76,19.4,2.49,34.42.3,6.06.59,13.48.75,22Q510.61,139.3,521,128.92a11.29,11.29,0,0,0,1.8,4,12.47,12.47,0,0,0,8,4.78c-.93,1.89-2.34,4.77-4,8.3-6,12.6-6.69,15-10.81,23.35a102.1,102.1,0,0,1-12.54,20.19,21,21,0,0,1-8.65,6.81,15.5,15.5,0,0,1-9.81.92c-4.45-1.22-6.91-4.57-9.46-8.16-3.27-4.59-4.38-8.13-8.3-19.23-3.78-10.7-2.9-7.85-4.55-12.7-3-8.93-6.26-18.45-9.28-30.87-1.15-4.73-2.57-11.14-3.88-18.84,2-3.43,12.63-21.1,32-23.84A37.33,37.33,0,0,1,493.62,84Z"/><path class="cls-4" d="M496.05,87.26q3.07,29.42,3.76,59a.38.38,0,0,0,.75,0q-.68-29.58-3.76-59c-.05-.48-.8-.48-.75,0Z"/><path class="cls-4" d="M451,118.84a444,444,0,0,0,16.39,52.91q2.81,7.37,5.86,14.64c.19.44.91.24.73-.2a444,444,0,0,1-18.27-52.29q-2.13-7.59-4-15.26a.37.37,0,0,0-.72.2Z"/><path class="cls-4" d="M491.63,159l27.5-27.9c.34-.34-.19-.88-.53-.53l-27.5,27.9c-.34.34.19.88.53.53Z"/><path class="cls-5" d="M477.45,190.68c1.47,4.23,6,6.95,10.47,7.1s8.82-1.93,12.2-4.88,5.92-6.71,8.3-10.52a241.13,241.13,0,0,0,20.05-40.79"/><path class="cls-4" d="M521,130.06a11.83,11.83,0,0,0,7.71,7.75c.46.14.66-.58.2-.73a11,11,0,0,1-7.19-7.22.37.37,0,0,0-.72.2Z"/><path class="cls-4" d="M524.53,125.48a5.34,5.34,0,0,0,4.08-1.79,5.71,5.71,0,0,0,1.07-1.89,5.3,5.3,0,0,1,1.12-2.17c1.59-1.61,4.71-2.18,5.1-4.75.08-.47-.65-.67-.72-.19a3.64,3.64,0,0,1-2,2.4,17.06,17.06,0,0,0-2.84,1.92,4.22,4.22,0,0,0-1,1.44,12.62,12.62,0,0,1-1,2.28,4.59,4.59,0,0,1-3.88,2,.38.38,0,0,0,0,.75Z"/><path class="cls-4" d="M526.24,119a15.45,15.45,0,0,1,8.29-6.86c.45-.16.25-.88-.2-.73a16.28,16.28,0,0,0-8.74,7.21.38.38,0,0,0,.65.38Z"/><path class="cls-4" d="M525.55,118.7c4.34-5.73,10.15-12.79,18.25-11.57.47.07.68-.65.2-.72-8.5-1.28-14.52,5.86-19.1,11.92-.29.38.36.75.65.37Z"/><path class="cls-4" d="M543.34,108.58a75.53,75.53,0,0,0-6.85,4.64c-.38.29,0,.94.38.65a75.53,75.53,0,0,1,6.85-4.64.38.38,0,0,0-.38-.65Z"/><path class="cls-4" d="M543.27,110.06a25.5,25.5,0,0,1-5.58,6.78c-.37.31.17.84.53.53a26,26,0,0,0,5.69-6.93c.24-.42-.41-.8-.64-.38Z"/><path class="cls-4" d="M544,112.37a23.65,23.65,0,0,1-5.36,7.68c-.35.34.18.87.53.53a24.25,24.25,0,0,0,5.48-7.83c.19-.43-.45-.82-.65-.38Z"/><path class="cls-4" d="M543.79,115.68c.62,2.63-1.43,4.7-3.1,6.42a10.3,10.3,0,0,0-3.09,5c-.48,2.25-.52,4.41-2,6.28a18.75,18.75,0,0,1-5,4c-.41.25,0,.9.38.64a19.94,19.94,0,0,0,5.12-4c1.57-1.89,1.78-4,2.21-6.32.51-2.81,2.41-4.36,4.21-6.39,1.44-1.62,2.58-3.63,2.06-5.84-.11-.47-.84-.28-.73.19Z"/><path class="cls-5" d="M355.53,75.29l2.64,35.78c-.23,8.36-.22,18.25.35,29.35.06,1.08.69,12.89,2.15,25.06,3.34,27.63,10.57,53.47,14.34,66a76.15,76.15,0,0,0,13.27,5c12.91,3.52,23.55,2.72,32.35,2a135.42,135.42,0,0,0,25.61-4.78,173.07,173.07,0,0,0,26.56-9.52c1-2.62,2.54-6.93,4.26-12.31a273.47,273.47,0,0,0,12.42-67.42c.46-8.08,0-6.48.55-18.18.84-18.07,2.4-32.69,3.59-42.24a140.91,140.91,0,0,0-14.05-8,141.52,141.52,0,0,0-124-.7Z"/><path class="cls-4" d="M355.72,75.61A141.06,141.06,0,0,1,493.43,84.3c.41.26.79-.39.38-.65A141.79,141.79,0,0,0,355.34,75c-.43.21,0,.85.38.64Z"/><path class="cls-4" d="M489.48,94.29c.25,17,.49,34-.41,51-.88,16.34-2.83,32.68-6.85,48.57a168.77,168.77,0,0,1-8.73,25.89c-.19.44.45.82.65.38A187.23,187.23,0,0,0,487,173.68c2.52-16.6,3.3-33.41,3.43-50.19.07-9.73-.07-19.47-.21-29.2a.38.38,0,0,0-.75,0Z"/><path class="cls-4" d="M357.84,109.54a371.76,371.76,0,0,0,8.85,93.11q2.93,13,6.81,25.87a.37.37,0,0,0,.72-.2,370.87,370.87,0,0,1-15.53-92.5q-.53-13.14-.1-26.28a.38.38,0,0,0-.75,0Z"/><path class="cls-4" d="M374.88,231.57c11.21,6,24,8.06,36.64,7.8a149.87,149.87,0,0,0,39.57-6.7,174.32,174.32,0,0,0,21.9-8.22c.43-.2.05-.84-.38-.65a171.6,171.6,0,0,1-38.91,12.34c-12.6,2.39-25.68,3.5-38.4,1.43a63.94,63.94,0,0,1-20-6.65c-.43-.23-.81.42-.38.65Z"/><path class="cls-2" d="M349.09,223a8,8,0,0,0,.81,3.91c1.23,2.38,3.55,3.57,5.53,4.59,2.56,1.31,3.23,1,4.7,2.29s1.3,1.94,2.57,3.3a11.51,11.51,0,0,0,5.08,3c.84.21,2.53.5,10.28-1.9,1.87-.59,3.4-1.11,4.43-1.47a14.52,14.52,0,0,0-7.29-10c3.16.86,5.74.74,6.25-.32s-1.25-3.16-2.69-4.25c-1.64-1.25-3-1.39-6.68-2.34-1.41-.36-3.48-.93-6-1.74a11.77,11.77,0,0,0-5.3-1.63C353.92,216.12,349.47,222.48,349.09,223Z"/><path class="cls-5" d="M355.53,75.29c-1.39,1.15-3.36,2.86-5.59,5.07-3.08,3.06-11.05,11.44-18.78,27.82a146.41,146.41,0,0,0-11.25,35.45,186.22,186.22,0,0,0-3.58,41.93c.88,1.57,2.19,3.87,3.92,6.56,5.52,8.62,10.88,14.54,17.13,21.39,2.61,2.86,6.16,6.63,10.52,10.93a18.8,18.8,0,0,1,3.42-3c6-4.11,12.69-3.61,15.33-3.26-2.2-4.61-4.36-9.58-6.42-14.9a211.38,211.38,0,0,1-8.85-28.95c1.18-4.68,2.89-10.75,5.32-17.71A215,215,0,0,1,368,130.2a217.91,217.91,0,0,1,12.59-21.58c.32-1,4.12-13.13-4-23.6C368.76,75,356.7,75.24,355.53,75.29Z"/><path class="cls-4" d="M353.93,76.12c-11,9.53-19,22-24.63,35.37a164,164,0,0,0-7.46,22.44,224.44,224.44,0,0,0-5,24.1,113.27,113.27,0,0,0-.89,27.53c.05.47.8.48.75,0-1.65-16.23,1.19-32.53,5.06-48.26,3.63-14.8,8.7-29.42,17-42.31a84.35,84.35,0,0,1,15.73-18.34c.36-.31-.17-.84-.54-.53Z"/><path class="cls-4" d="M369.77,126.15A190.48,190.48,0,0,0,351,175.34c-.11.47.62.67.72.2a189.56,189.56,0,0,1,18.7-49c.24-.43-.41-.81-.64-.38Z"/><path class="cls-4" d="M316.18,185.78c7.52,14.48,18.93,26.37,30.55,37.62.35.34.88-.19.53-.53-11.58-11.21-22.94-23-30.43-37.47-.23-.43-.87-.05-.65.38Z"/><path class="cls-4" d="M351,175.56A192.67,192.67,0,0,0,366.23,217c.22.43.87,0,.65-.38a192.17,192.17,0,0,1-15.12-41.21.37.37,0,0,0-.72.19Z"/><path class="cls-4" d="M349.12,223.49a21.89,21.89,0,0,1,16.1-5c.48,0,.48-.71,0-.75A22.6,22.6,0,0,0,348.59,223c-.37.31.17.84.53.53Z"/><path class="cls-4" d="M349.25,226c.48,2.78,3,4.51,5.41,5.61,2.63,1.22,5.79,2.09,7.38,4.73.25.41.9,0,.65-.38-1.49-2.47-4.24-3.54-6.77-4.61s-5.43-2.6-5.95-5.55c-.08-.47-.8-.27-.72.2Z"/><path class="cls-4" d="M366.47,218.48c2.6,1.46,5.59,1.57,8.42,2.32,2.47.65,5.15,2.08,5.78,4.76a.38.38,0,0,0,.73-.2c-.61-2.58-2.95-4.16-5.32-5-3-1.06-6.38-.95-9.24-2.55a.37.37,0,0,0-.37.65Z"/><path class="cls-4" d="M372.78,225.25a17.15,17.15,0,0,1,9.34,11.56c.11.47.84.27.73-.2a17.85,17.85,0,0,0-9.69-12c-.43-.21-.81.44-.38.64Z"/><path class="cls-4" d="M364.05,232.78a9.83,9.83,0,0,1,3.21,3.36,2.76,2.76,0,0,1,.41,2.24,1.31,1.31,0,0,1-1.51.89c-.46-.15-.66.58-.2.72a1.94,1.94,0,0,0,2.1-.8,2.74,2.74,0,0,0,.21-2.66,9.76,9.76,0,0,0-3.84-4.4c-.41-.27-.79.38-.38.65Z"/><path class="cls-4" d="M367.31,231.48c2.32,1.62,5.18,4.08,4.31,7.27a.37.37,0,0,0,.72.2,5.77,5.77,0,0,0-.9-4.64,13.83,13.83,0,0,0-3.75-3.48c-.4-.28-.78.37-.38.65Z"/><path class="cls-4" d="M371,231.46a5.78,5.78,0,0,1,4.8,6.38c-.08.47.65.67.72.2a6.54,6.54,0,0,0-5.52-7.33c-.48-.06-.48.69,0,.75Z"/><path class="cls-4" d="M373.72,229.48a10.06,10.06,0,0,1,4.48,7.26c.05.48.8.48.75,0a10.87,10.87,0,0,0-4.85-7.91c-.4-.26-.78.39-.38.65Z"/><path class="cls-2" d="M402.36,48.27a19.72,19.72,0,0,0,.35,4.71,21,21,0,0,0,1.46,5.37,16.36,16.36,0,0,0,8.41,7.86,15.51,15.51,0,0,0,7.95.81l1.18,1.75c-.12,0-2.42-.07-3.38,1.52s.09,3.76,1.3,4.75c2.45,2,6.56.07,7.52-.39a11.62,11.62,0,0,0,4.73-4.27,12.74,12.74,0,0,0,1.85-4.86l-4.72.66c-.62-.94-1.23-1.89-1.85-2.84a16.73,16.73,0,0,0,3.76-5.93,17.31,17.31,0,0,0,1-5.45c0-1.69-.09-7.17-3.48-11.08C423,34.61,411,34.43,405.83,40.1A14.32,14.32,0,0,0,402.36,48.27Z"/><path class="cls-4" d="M432.22,48.1a18.93,18.93,0,0,0-9.84-6.36,17.16,17.16,0,0,0-12,1,16.9,16.9,0,0,0-7.7,8,14.93,14.93,0,0,1-3.25-1.1,16.43,16.43,0,0,1-7.71-8.09,15.64,15.64,0,0,1-.12-12.27,14.78,14.78,0,0,1,7.54-7.61c4.95-2,9.55-.39,13.15.91a30.67,30.67,0,0,1,14.88,12A33,33,0,0,1,432.22,48.1Z"/><path class="cls-4" d="M402.39,49.29c-.84,6.73,2.57,14,8.89,16.8a14.63,14.63,0,0,0,17.93-4.56,17.82,17.82,0,0,0,3.08-11.11c0-.48-.77-.48-.75,0a16.78,16.78,0,0,1-3.83,11.81,13.47,13.47,0,0,1-11,4.44c-8.79-.53-14.6-8.93-13.55-17.38.06-.47-.69-.47-.75,0Z"/><path class="cls-4" d="M420.21,67.21,421.38,69a.39.39,0,0,0,.52.13.37.37,0,0,0,.13-.51l-1.17-1.74a.39.39,0,0,0-.52-.14.38.38,0,0,0-.13.51Z"/><path class="cls-4" d="M402.63,50.94c-5-2.38-9.62-6.09-11.41-11.52s.28-11.37,4.54-15.15a12.27,12.27,0,0,1,7-3.2,20.38,20.38,0,0,1,8.4,1.48,31.44,31.44,0,0,1,13.06,8.81,31.8,31.8,0,0,1,7.49,16.28c.07.48.79.27.72-.2A32.34,32.34,0,0,0,411.72,22a21.81,21.81,0,0,0-8.79-1.66A12.81,12.81,0,0,0,396.11,23c-4.4,3.37-7.11,9.07-6.12,14.61,1.18,6.58,6.51,11.22,12.27,14,.43.21.81-.44.37-.65Z"/><path class="cls-4" d="M403.14,49.42a17.39,17.39,0,0,1,28-1.67c.32.37.84-.16.53-.53A18.13,18.13,0,0,0,402.49,49c-.26.4.39.78.65.38Z"/><path class="cls-4" d="M418,70.1a4.31,4.31,0,0,0,1.37,5.21,6.49,6.49,0,0,0,6.33.5,16.17,16.17,0,0,0,5.67-4.23,9.52,9.52,0,0,0,2.74-6.06.38.38,0,0,0-.75,0c-.1,3.88-3.63,7.25-6.8,9a6.66,6.66,0,0,1-5.91.64,3.65,3.65,0,0,1-2-4.73c.21-.43-.44-.81-.65-.38Z"/><path class="cls-4" d="M413.63,48a16.49,16.49,0,0,0-.72,7.08c.25,1.91,1.23,4,3.3,4.35.47.09.67-.63.2-.72-2.05-.4-2.71-2.59-2.83-4.42a16.35,16.35,0,0,1,.78-6.09c.14-.46-.58-.66-.73-.2Z"/><path class="cls-4" d="M421.71,48.92c0,.9-.41,1.62-.91,1.62s-.92-.72-.92-1.62.41-1.62.92-1.62S421.71,48,421.71,48.92Z"/><path class="cls-1" d="M284.87,156.36c-.44.62,0,95.49,0,95.49L405,270.05q1.39-53.38,2.8-106.78Z"/><line class="cls-6" x1="302.21" y1="174.47" x2="384.22" y2="181.84"/><line class="cls-6" x1="302.87" y1="188.57" x2="386.88" y2="196.12"/><line class="cls-6" x1="301.84" y1="210.97" x2="396.18" y2="219.9"/><circle class="cls-6" cx="295.66" cy="232.95" r="3.82"/><circle class="cls-6" cx="294.12" cy="173.34" r="3.65"/><path class="cls-2" d="M302.24,210.45l.38-2.83c0-.2-.19-.37-.38-.37a.38.38,0,0,0-.37.37l-.38,2.83a.38.38,0,0,0,.38.37.38.38,0,0,0,.37-.37Z"/><path class="cls-2" d="M302.5,207.72l71.6,6.79,20.39,1.94c.48,0,.48-.71,0-.75l-71.6-6.79L302.5,207c-.48,0-.48.71,0,.75Z"/><path class="cls-2" d="M395.22,216.09v2.82a.38.38,0,0,0,.75,0v-2.82a.38.38,0,0,0-.75,0Z"/><path class="cls-2" d="M303.3,188.41a9.25,9.25,0,0,0,.21-2.92.38.38,0,0,0-.37-.38.39.39,0,0,0-.38.38,8.58,8.58,0,0,1-.19,2.72.38.38,0,0,0,.73.2Z"/><path class="cls-2" d="M303.56,185.77q32.2,2,64.38,4.47,9.06.7,18.13,1.44c.48,0,.48-.71,0-.75q-32.16-2.61-64.36-4.75-9.07-.6-18.15-1.16c-.48,0-.48.72,0,.75Z"/><path class="cls-2" d="M386.54,192.22v3a.38.38,0,0,0,.75,0v-3a.38.38,0,0,0-.75,0Z"/><path class="cls-2" d="M303.13,174.1a11.54,11.54,0,0,0,.15-3.37.38.38,0,0,0-.37-.37.38.38,0,0,0-.38.37,10.87,10.87,0,0,1-.12,3.17.37.37,0,0,0,.72.2Z"/><path class="cls-2" d="M303.74,171c20.46,1.55,41,1.58,61.42,3.63,5.95.6,11.88,1.38,17.77,2.41.48.08.68-.64.2-.72-20.42-3.57-41.17-4.05-61.83-5-5.86-.28-11.71-.6-17.56-1-.48,0-.48.72,0,.75Z"/><path class="cls-2" d="M383.72,177.46v2.39a.38.38,0,0,0,.75,0v-2.39a.38.38,0,0,0-.38-.38.38.38,0,0,0-.37.38Z"/><path class="cls-2" d="M303.29,194.23l-3.92,5.29a.38.38,0,0,0,.33.56,9.32,9.32,0,0,1,5,1.33c.41.25.79-.4.38-.65a10,10,0,0,0-5.39-1.43l.32.57,3.92-5.3c.29-.38-.36-.76-.65-.37Z"/><path class="cls-2" d="M309.11,201.3l4.28-5.69c.29-.38-.36-.76-.65-.37l-4.28,5.69c-.29.38.37.76.65.37Z"/><path class="cls-2" d="M316.38,199.32c7.65.14,15.32,1.26,22.92,2l23.26,2.3c.48.05.48-.7,0-.75l-23.26-2.3c-7.6-.75-15.27-1.87-22.92-2a.38.38,0,0,0,0,.75Z"/><path class="cls-2" d="M362.6,199.14c2.06,1,4.13,2,6.18,3.08.21.1.5.2.34.46a2.72,2.72,0,0,1-.62.5l-1.36,1.06-2.79,2.15c-.38.29,0,.94.37.65l3.23-2.49c.51-.39,1-.77,1.53-1.18a1,1,0,0,0,.36-1.26c-.26-.46-.93-.66-1.38-.89l-1.8-.9L363,198.49c-.43-.22-.81.43-.38.65Z"/><path class="cls-2" d="M303.32,216.33l-4.68,5.22a.38.38,0,0,0,.17.63l5.62,1.08c.47.1.67-.63.2-.72L299,221.45l.16.63,4.68-5.22c.32-.36-.21-.89-.53-.53Z"/><path class="cls-2" d="M307.85,224.17l7.57-6.91c.36-.33-.17-.86-.53-.53l-7.57,6.91c-.36.33.17.86.53.53Z"/><path class="cls-2" d="M315.65,221l19.46.85c.48,0,.48-.73,0-.75l-19.46-.85c-.48,0-.48.73,0,.75Z"/><path class="cls-2" d="M333.57,217.72a25.93,25.93,0,0,0,9,4.16l-.09-.68a15.52,15.52,0,0,0-5.93,5.24c-.27.4.38.77.65.37a14.88,14.88,0,0,1,5.66-5,.38.38,0,0,0-.09-.69,25.6,25.6,0,0,1-8.79-4.09c-.39-.28-.76.37-.37.65Z"/><path class="cls-7" d="M477.45,103c1.9,1.73,0,87.68,0,87.68l92.45-38.17V76.39Z"/><circle class="cls-8" cx="484.22" cy="112.25" r="3.34"/><circle class="cls-8" cx="486.01" cy="168.95" r="4.07"/><path class="cls-4" d="M484.31,113.53a1.5,1.5,0,0,0,0-3,1.5,1.5,0,0,0,0,3Z"/><path class="cls-4" d="M484.65,170.34l.17.17a1.11,1.11,0,0,0,.49.31,1,1,0,0,0,.57.13,1.06,1.06,0,0,0,.58-.13,1,1,0,0,0,.48-.31l.24-.3a1.57,1.57,0,0,0,.2-.76l-.05-.4a1.49,1.49,0,0,0-.39-.66l-.17-.18a1.37,1.37,0,0,0-.48-.31,1.17,1.17,0,0,0-.58-.12,1.14,1.14,0,0,0-.58.12,1.21,1.21,0,0,0-.48.31l-.24.31a1.51,1.51,0,0,0-.2.76l.05.39a1.47,1.47,0,0,0,.39.67Z"/><path class="cls-4" d="M497,105.14a46.14,46.14,0,0,0-3.42,4.85.38.38,0,0,0,.32.57l4.37-.06a.38.38,0,0,0,0-.75l-4.37.06.33.56a45,45,0,0,1,3.3-4.69.41.41,0,0,0,0-.54.39.39,0,0,0-.53,0Z"/><path class="cls-4" d="M503.41,104a21.7,21.7,0,0,0-3.14,6.06c-.15.46.57.66.72.2a20.89,20.89,0,0,1,3.07-5.88c.29-.39-.36-.76-.65-.38Z"/><path class="cls-4" d="M506.64,103.18a18.63,18.63,0,0,0,4,1.6.85.85,0,0,1,.17.06s.09.06.08,0l-.1.14-.16.16-.85.87-1.64,1.66c-.33.34.2.87.53.53l1.92-1.95c.43-.44,1.5-1.25.84-1.93a2.16,2.16,0,0,0-1-.4c-.39-.11-.78-.24-1.16-.38a16,16,0,0,1-2.31-1c-.43-.23-.81.42-.38.65Z"/><path class="cls-4" d="M495.88,117.1l.32,2.63a.4.4,0,0,0,.38.38.38.38,0,0,0,.37-.38l-.32-2.63a.38.38,0,0,0-.37-.37.38.38,0,0,0-.38.37Z"/><path class="cls-4" d="M497,117.32l51.11-15.09a.38.38,0,0,0-.2-.73l-51.11,15.1a.37.37,0,0,0,.2.72Z"/><path class="cls-4" d="M499.79,120.2l49-14.56a.37.37,0,0,0-.2-.72l-49,14.56a.37.37,0,0,0,.2.72Z"/><path class="cls-4" d="M548,102.15l.37,2.1a.37.37,0,0,0,.46.26.38.38,0,0,0,.26-.46l-.36-2.1a.38.38,0,0,0-.47-.26.39.39,0,0,0-.26.46Z"/><path class="cls-4" d="M507.44,122.45l.52,2.45a.38.38,0,0,0,.46.27.39.39,0,0,0,.26-.46l-.51-2.46a.38.38,0,0,0-.46-.26.38.38,0,0,0-.27.46Z"/><path class="cls-4" d="M508.39,122q23.77-6.61,47.34-13.93c.46-.14.27-.87-.2-.73q-23.56,7.32-47.34,13.93a.38.38,0,0,0,.2.73Z"/><path class="cls-4" d="M510,125.57l48.13-15.28c.46-.15.26-.87-.2-.72l-48.13,15.28c-.46.14-.26.87.2.72Z"/><path class="cls-4" d="M556.72,107.13l.17,1.75a.38.38,0,1,0,.75,0l-.17-1.75a.38.38,0,0,0-.75,0Z"/><path class="cls-4" d="M497,135l-3.34,4.51a.38.38,0,0,0,.22.55,44.74,44.74,0,0,0,4.48.47c.48,0,.48-.73,0-.75a41.1,41.1,0,0,1-4.28-.44l.22.55,3.34-4.51a.38.38,0,0,0-.13-.51.38.38,0,0,0-.51.13Z"/><path class="cls-4" d="M502.08,134.29a28.34,28.34,0,0,0-2.8,5.62c-.17.46.56.65.72.2a27.16,27.16,0,0,1,2.73-5.44c.26-.41-.39-.78-.65-.38Z"/><path class="cls-4" d="M504.34,136.64q15.23-3.72,30.29-8a.38.38,0,0,0-.2-.73q-15.06,4.32-30.29,8a.38.38,0,0,0,.2.73Z"/><path class="cls-4" d="M534,126.68a19.58,19.58,0,0,0,4.42,2.07c.46.15.66-.57.2-.72a18.9,18.9,0,0,1-4.24-2c-.41-.25-.79.4-.38.65Z"/><path class="cls-4" d="M537.92,124.41a34.35,34.35,0,0,0,5.76,1.15l-.26-.64a9.13,9.13,0,0,0-2,3.49c-.15.46.58.66.72.2a8.42,8.42,0,0,1,1.79-3.16.38.38,0,0,0-.27-.64,35.11,35.11,0,0,1-5.56-1.12.37.37,0,0,0-.2.72Z"/><path class="cls-4" d="M494.25,148.17l-.36,2.09a.38.38,0,1,0,.73.2l.36-2.1a.38.38,0,1,0-.73-.19Z"/><path class="cls-4" d="M496.14,147.76Q520.74,141,545,133.09c.46-.15.26-.88-.2-.72q-24.24,7.94-48.85,14.67a.37.37,0,0,0,.2.72Z"/><path class="cls-4" d="M498.47,151.07q24-8.22,48.44-15.39a.37.37,0,0,0-.2-.72q-24.39,7.17-48.44,15.39c-.46.15-.26.88.2.72Z"/><path class="cls-4" d="M545.94,133.21l.17,1.58a.36.36,0,0,0,.11.26.39.39,0,0,0,.27.11c.18,0,.39-.17.37-.37l-.17-1.58a.46.46,0,0,0-.11-.27.44.44,0,0,0-.27-.11.38.38,0,0,0-.37.38Z"/><polygon class="cls-7" points="50.94 0.51 42.91 171.17 239.27 183.74 254.73 2.58 50.94 0.51"/><circle class="cls-1" cx="69.03" cy="27.96" r="7.31"/><circle class="cls-1" cx="68.06" cy="88.05" r="6.33"/><line class="cls-4" x1="91.65" y1="25.51" x2="229.66" y2="27.96"/><line class="cls-4" x1="91.63" y1="41.09" x2="229.65" y2="43.53"/><line class="cls-4" x1="91.35" y1="56.96" x2="229.37" y2="59.4"/><line class="cls-4" x1="91.05" y1="74.06" x2="229.06" y2="76.5"/><line class="cls-4" x1="90.45" y1="93.11" x2="228.47" y2="95.55"/><path class="cls-3" d="M161.59,477q-.41,7.53-.8,15.06,66.12,9.49,68.06,2.11,1.59-6.07-40.16-23.56Z"/><path class="cls-2" d="M191.63,472.12a6.23,6.23,0,0,0-4.51,4.95,3.4,3.4,0,0,0,.56,2.95c.9.87,2.1,0,2.75-.75,1.36-1.51,1.82-3.58,2.41-5.46s1.51-4.44,3.72-4.55a1.11,1.11,0,0,1,1.33,1.13,3.33,3.33,0,0,1-.7,1.94,4,4,0,0,1-3.7,1.65c-.47-.07-.68.66-.2.72a4.78,4.78,0,0,0,5.23-3.47c.27-1.11,0-2.34-1.23-2.65a3.21,3.21,0,0,0-2.78.77c-1.59,1.28-2.14,3.4-2.7,5.28a16.24,16.24,0,0,1-1.12,3c-.34.63-1.79,2.8-2.59,1.78a2.78,2.78,0,0,1-.28-1.9,5.24,5.24,0,0,1,.71-2.1,5.38,5.38,0,0,1,3.3-2.53.37.37,0,0,0-.2-.72Z"/><path class="cls-2" d="M195.34,480.13a7,7,0,0,1,4.94-3.73c.47-.09.27-.81-.2-.73a7.68,7.68,0,0,0-5.38,4.09c-.22.43.43.81.64.37Z"/><path class="cls-2" d="M199.84,481.66a5.09,5.09,0,0,1,4.71-3.12.38.38,0,0,0,0-.75,5.89,5.89,0,0,0-5.44,3.67.38.38,0,0,0,.73.2Z"/><path class="cls-2" d="M203.72,482.93a5.45,5.45,0,0,1,4.81-2.64c.49,0,.48-.73,0-.75a6.21,6.21,0,0,0-5.46,3,.38.38,0,0,0,.65.38Z"/><path class="cls-2" d="M209.2,485a5.81,5.81,0,0,1,4.51-2.24.38.38,0,0,0,0-.75,6.54,6.54,0,0,0-5.05,2.46.4.4,0,0,0,0,.53.39.39,0,0,0,.54,0Z"/><path class="cls-2" d="M162.35,489.08q22.28,2.22,44.43,5.54c.47.07.68-.65.2-.72q-22.24-3.34-44.63-5.57c-.48,0-.48.71,0,.75Z"/><path class="cls-5" d="M81.05,365c.32,1.41,2.23,3,6.07,6.11a66,66,0,0,0,16.92,10c15.9,6.33,34.42,5.72,40.25,5.41,7.23-.38,18.51-2.74,40.79-7.45L214,372.92c-1.4,2.1-3.4,5.17-5.71,8.93-7.35,12-10.77,19.43-20.83,40.24-12.16,25.16-13.51,27.38-18.62,38.91-3.54,8-6.34,14.73-8.26,19.45a63.27,63.27,0,0,1,8.17-4.47,64.94,64.94,0,0,1,18.49-5.26c2-2.51,5-6.19,8.47-10.66,12.51-15.88,24.61-31.29,37.93-50.58a396.87,396.87,0,0,0,21.86-36.94,68.72,68.72,0,0,0,6.32-18.09c1.34-6.7,2.62-13.59-.93-20.12a22.82,22.82,0,0,0-6.85-7.41,34.79,34.79,0,0,0-16.31-6.44c-15.35-2.29-30.46.34-48.29,3-6.14.92-15.49,2.27-27.08,3.77a133.67,133.67,0,0,0-20.51,2.64C110.31,336.47,78.87,355,81.05,365Z"/><path class="cls-4" d="M80.79,365.22c10.48,12.43,26.11,18.86,41.93,21,18.62,2.56,37.22-.91,55.33-5.15,11.43-2.67,22.8-5.65,34.37-7.71.47-.09.27-.81-.2-.73-20.1,3.59-39.63,10-59.9,12.63-16.5,2.15-33.74,1.45-49.27-5a56.7,56.7,0,0,1-21.73-15.58c-.31-.37-.84.16-.53.53Z"/><path class="cls-4" d="M212.56,373.18q-21.6,39.49-40.66,80.3-5.42,11.63-10.63,23.34c-.2.44.45.82.64.38q18.3-41.11,39.19-81,6-11.35,12.11-22.61c.23-.43-.42-.81-.65-.38Z"/><path class="cls-4" d="M162.45,327.63l27.05-3.77c8.41-1.17,16.83-2.51,25.28-3.35,7.66-.75,15.49-1,23.09.37,7.36,1.36,15.17,4.4,20.24,10.12,5.69,6.43,5.09,15.35,3.38,23.2a95.78,95.78,0,0,1-8.93,23.44c-7.78,15-17.28,29.21-27.12,42.93-10,14-20.67,27.49-31.38,40.95l-3.93,4.93c-.3.38.23.91.53.53,11-13.74,21.9-27.48,32.27-41.67s20.29-28.83,28.68-44.29a108.28,108.28,0,0,0,9.75-23.13c2-7.28,3.52-15.85.22-23-3.13-6.76-10.38-10.87-17.18-13.13-7.33-2.44-15.17-2.87-22.84-2.51-8.18.38-16.29,1.65-24.39,2.78l-28,3.91-6.89,1c-.48.06-.27.79.2.72Z"/><path class="cls-4" d="M165.63,478.12A51.42,51.42,0,0,1,188.69,471c.48,0,.48-.78,0-.75a52.08,52.08,0,0,0-23.44,7.23.38.38,0,0,0,.38.65Z"/><path class="cls-3" d="M211.75,435.62q-2.48,7.68-4.93,15.34,53.12,34,57.68,28.36,4.08-5-30.56-41.52a22,22,0,0,0-8.07-3.66A22.77,22.77,0,0,0,211.75,435.62Z"/><path class="cls-2" d="M233.87,439a10.29,10.29,0,0,0-5.76,5.2,2.13,2.13,0,0,0-.23,1.95,1.36,1.36,0,0,0,1.48.59,5.72,5.72,0,0,0,3.12-2.06,7.79,7.79,0,0,0,1.85-3.94c.08-.47-.64-.67-.72-.2a7.2,7.2,0,0,1-3.64,5.21c-.34.19-1,.44-1.33.17s0-1.16.21-1.53a9.29,9.29,0,0,1,2-2.69,9.43,9.43,0,0,1,3.21-2c.45-.16.25-.89-.2-.72Z"/><path class="cls-2" d="M234.62,440.08a5.36,5.36,0,0,1,1-2.15,4.39,4.39,0,0,1,1.72-1.42c.37-.14,1.23-.31,1.38.22a1.62,1.62,0,0,1-.29,1,3.61,3.61,0,0,1-.71.85,9.82,9.82,0,0,1-2.25,1.39c-.43.21-.05.86.38.64a10,10,0,0,0,2.37-1.48,3.23,3.23,0,0,0,1.26-2.45c-.1-.92-1-1.18-1.83-1.07a4.12,4.12,0,0,0-2.24,1.37,5.83,5.83,0,0,0-1.47,2.85c-.09.47.63.67.72.2Z"/><path class="cls-2" d="M235.28,444.39a7.22,7.22,0,0,1,3.12-2.75.37.37,0,0,0,.13-.51A.38.38,0,0,0,238,441a7.9,7.9,0,0,0-3.38,3c-.26.41.39.79.64.38Z"/><path class="cls-2" d="M237.29,447.41a7.25,7.25,0,0,1,4.15-3.3.37.37,0,0,0-.2-.72,8.1,8.1,0,0,0-4.6,3.64.38.38,0,0,0,.65.38Z"/><path class="cls-2" d="M239.84,450a9.57,9.57,0,0,1,3.75-3.22.37.37,0,0,0,.14-.51.38.38,0,0,0-.51-.14,10.38,10.38,0,0,0-4,3.49c-.27.4.38.77.65.38Z"/><path class="cls-2" d="M241.68,453.09a8.52,8.52,0,0,1,4.11-3.64.37.37,0,0,0,.13-.52.38.38,0,0,0-.51-.13,9.2,9.2,0,0,0-4.38,3.91.38.38,0,0,0,.65.38Z"/><path class="cls-2" d="M244.73,455.62l3.92-3.24a.37.37,0,0,0,0-.53.39.39,0,0,0-.53,0l-3.92,3.24a.37.37,0,1,0,.53.53Z"/><path class="cls-2" d="M208.17,449.48a302.44,302.44,0,0,1,26.92,16.78c.4.27.78-.38.38-.65a300,300,0,0,0-26.92-16.77c-.42-.24-.8.41-.38.64Z"/><path class="cls-5" d="M162.33,298.13a58.89,58.89,0,0,0-11.61,7.38c-3.6,2.95-16.4,13.74-20.07,32.52A54.44,54.44,0,0,0,132,363.88a56.87,56.87,0,0,0,12.27,4.19c6.42,1.4,12,1.42,25.69.25,10.75-.92,16.12-1.38,23.8-2.53,10.71-1.6,25.33-3.87,43.08-10.31,2.8-1,5.1-1.92,6.68-2.57-.54,1.25-1.33,3.11-2.29,5.36-5.43,12.81-9.55,23.19-14.3,35.4-6.47,16.59-12.3,31.93-17.11,44.73a22.1,22.1,0,0,1,8.49-4c2.33-.52,5.32-1.19,8.75.05a13,13,0,0,1,5.62,4.07c1.3-1.68,3.35-4.37,5.73-7.78,4.5-6.47,7.44-11.57,8.55-13.49,3.77-6.49,9.66-15.6,21.45-33.81,4.47-6.91,8.78-13.93,13.22-20.86,3.31-5.18,6.38-9.94,9-17.08a45.77,45.77,0,0,0,3.1-13.44c.23-3.8.51-8.54-1.89-13.58a23.26,23.26,0,0,0-7-8.29c-9.07-7.19-19.68-8.87-23.27-9.4-29.43-4.35-44.14-6.52-51.23-6.61A261.94,261.94,0,0,0,162.33,298.13Z"/><path class="cls-4" d="M162.43,298.5A239.67,239.67,0,0,1,212,294.63a230.74,230.74,0,0,1,48.8,6.37c8.38,2.06,16.62,4.88,23.93,9.56.4.26.78-.39.38-.65a74.86,74.86,0,0,0-20.9-8.8A201.27,201.27,0,0,0,240,296.27a239.36,239.36,0,0,0-77.75,1.5c-.47.09-.27.81.2.73Z"/><path class="cls-4" d="M131.8,364.21c5.78,3.42,12.47,4.57,19.1,4.86a187.9,187.9,0,0,0,22.38-.6,265.57,265.57,0,0,0,45.35-7.31q12.63-3.18,24.88-7.59c.46-.16.26-.88-.19-.72a259.21,259.21,0,0,1-88.6,15.56c-7.75,0-15.74-.82-22.54-4.85a.38.38,0,0,0-.38.65Z"/><path class="cls-4" d="M243.18,352.73q-13.62,31.68-25.3,64.17-3.33,9.28-6.5,18.62c-.15.46.57.66.73.2q11-32.5,24-64.3,3.77-9.19,7.69-18.32c.19-.44-.45-.82-.65-.37Z"/><path class="cls-5" d="M291.85,318.52c3.09,7.94,2.29,17-.48,25s-7.38,15.34-11.94,22.54L233.94,437.8"/><path class="cls-4" d="M213.32,438.05c3.2-2,6.82-3.71,10.67-3.64a10,10,0,0,1,8.36,4.34c.25.41.9,0,.64-.38a10.64,10.64,0,0,0-8.43-4.69c-4.17-.27-8.17,1.56-11.62,3.72-.4.26,0,.9.38.65Z"/><path class="cls-2" d="M74.13,288.25c1.08-1.54.7-.58,4.21-4.56,6.75-7.64,10.13-11.45,12.32-15,1.19-1.89,2.48-4.18,4-4,1,.09,1.72,1.23,2.41,2.39A12.81,12.81,0,0,1,98.87,274c-.12,2.18-.75,2.93-2.36,6.9-2.6,6.39-1.88,6.69-3.88,10.53a43.54,43.54,0,0,1-4.47,6.78,41.63,41.63,0,0,1-5.71,6.31c-2.46,2.16-3.89,3.39-6.11,3.62a6.72,6.72,0,0,1-4.84-1.18C67.82,303.76,69.82,294.4,74.13,288.25Z"/><path class="cls-1" d="M9.26,171.44a260.7,260.7,0,0,0-6.38,31.79,280.5,280.5,0,0,0-2.4,31.18c-.55,16.62.75,12.33.49,32.44a64.72,64.72,0,0,0,2,17.88c1.86,7.16,4,10.06,4.87,11.12,3.6,4.48,8,6.33,11.58,7.81,4.42,1.84,8.67,2.47,17,3.65,4.31.61,7.88,1,10.31,1.21a155,155,0,0,0,17.73.43c4.21-.14,8.2-.45,11.92-.86a29.52,29.52,0,0,0-2-18.48c-5.31-4.51-9.77-7.93-12.8-10.17-2.81-2.08-6.17-4.65-12.87-9.79-5.08-3.89-7.2-6.34-8.68-9.23-1.7-3.35-1.91-6.23-1.86-16.79,0-6.49,0-9.73.25-16.24.36-11.57,0-10.36.37-23.78.48-20.68,1.18-22.14-.58-24.89S30.62,169.55,9.26,171.44Z"/><path class="cls-4" d="M9.06,173c-8,26.26-9.59,53.93-8.92,81.23.16,6.42.35,12.87.82,19.29A58,58,0,0,0,3.8,289a23.89,23.89,0,0,0,8,11.42c5.14,3.78,11.89,5,18,6.16a154.29,154.29,0,0,0,46.49,1.91c.47-.06.47-.81,0-.75a154.08,154.08,0,0,1-41.09-1q-5-.79-9.9-1.91a48.88,48.88,0,0,1-9.11-2.77A21.54,21.54,0,0,1,5.4,291a48,48,0,0,1-3.51-15.27c-.57-6.11-.73-12.28-.92-18.41a363.8,363.8,0,0,1,.74-39.9,208.67,208.67,0,0,1,8.07-44.2.37.37,0,0,0-.72-.2Z"/><path class="cls-4" d="M38.47,200.75l-.68,43.66a78.42,78.42,0,0,0,.1,10.51A16.13,16.13,0,0,0,41,262.61c3.6,4.9,9,8.42,13.78,12.11l19.38,15.16c.38.29.91-.24.53-.54L57.82,276.18l-8.22-6.42a52.25,52.25,0,0,1-6.42-5.64,16.76,16.76,0,0,1-4.34-7.94c-.68-3.35-.37-6.89-.32-10.28l.33-21.34.37-23.81a.38.38,0,0,0-.75,0Z"/><path class="cls-4" d="M74.51,292.18a21.25,21.25,0,0,1,2,12c-.06.48.69.47.75,0a22,22,0,0,0-2.06-12.41c-.22-.43-.86-.05-.65.38Z"/><path class="cls-4" d="M81.48,301.46a65.62,65.62,0,0,1,12.38-15c1.55-1.4,3.48-3.82,1.86-5.92-1.08-1.4-3.64-.91-3.74,1,0,.48.73.48.75,0A1.22,1.22,0,0,1,94,280.46a1.5,1.5,0,0,1,1.45,1.18,3.7,3.7,0,0,1-1.26,3.48c-1.6,1.66-3.39,3.12-5,4.8a64.27,64.27,0,0,0-8.39,11.16.38.38,0,0,0,.65.38Z"/><path class="cls-4" d="M76.19,287q8.1-10.41,16.75-20.36c.32-.36-.21-.89-.53-.53q-8.66,9.94-16.75,20.36c-.29.38.24.92.53.53Z"/><path class="cls-4" d="M89.85,279.38a78.19,78.19,0,0,0,7.57-12.11c.22-.43-.43-.81-.65-.38A78.19,78.19,0,0,1,89.2,279c-.29.38.36.76.65.38Z"/><path class="cls-4" d="M97.49,266.51a14.62,14.62,0,0,1-3.91,11.4c-.33.35.2.88.53.53a15.33,15.33,0,0,0,4.13-11.93c0-.47-.8-.48-.75,0Z"/><path class="cls-4" d="M98.49,270.23a16.47,16.47,0,0,1-2.31,10.43c-.25.41.4.79.65.37a17.12,17.12,0,0,0,2.41-10.8c0-.47-.8-.48-.75,0Z"/><path class="cls-4" d="M82.72,304.73a55.55,55.55,0,0,0,12.37-17.39c.19-.44-.45-.82-.65-.38A54.84,54.84,0,0,1,82.19,304.2c-.36.34.18.87.53.53Z"/><path class="cls-1" d="M11.17,171.49a123.71,123.71,0,0,0-.79,18.69c.12,3.53.38,6.62.73,9.84a342.41,342.41,0,0,0,6.63,38.62c8.69,35.82,24.08,66.64,24.08,66.64A305.66,305.66,0,0,0,80.4,364.33,62.77,62.77,0,0,0,96,363.45c14-2.59,23.19-9.31,30.81-15,8.46-6.31,23.32-17.69,30.61-37.9a69.58,69.58,0,0,0,3.2-12.37,113.21,113.21,0,0,0-9.51-24.34,111.93,111.93,0,0,0-9.24-14.55c-.33-5.1-.82-12.11-1.49-20.44-.77-9.58-1.71-21.25-3.4-36.1-.8-7-1.94-16.25-3.5-27.09a183.14,183.14,0,0,0-29.23-9.38c-11.57-2.65-36.23-8.06-66.68-2.36A148,148,0,0,0,11.17,171.49Z"/><path class="cls-4" d="M11.36,171.82A90.85,90.85,0,0,1,35,164.74a173.35,173.35,0,0,1,24.49-2.44A177.69,177.69,0,0,1,133.4,176c.44.19.64-.53.2-.72a178.19,178.19,0,0,0-95.88-11.77C28.53,165,19.41,167.15,11,171.17c-.44.21-.06.85.37.65Z"/><path class="cls-4" d="M9.94,191.32a309.75,309.75,0,0,0,14,70.88A313.38,313.38,0,0,0,53.82,328a307.64,307.64,0,0,0,23,33.14c.3.37.83-.16.53-.53a309.79,309.79,0,0,1-37.92-61,312.94,312.94,0,0,1-23-68.09,305.47,305.47,0,0,1-5.82-40.16c0-.48-.79-.49-.75,0Z"/><path class="cls-4" d="M135.88,196q3.47,31,5.59,62.16c0,.48.78.48.75,0Q140.11,227,136.63,196c0-.48-.8-.48-.75,0Z"/><path class="cls-4" d="M145.77,264.24q6.71,14.58,12.39,29.59c.17.45.89.25.72-.2q-5.72-15.09-12.46-29.77c-.2-.43-.85-.05-.65.38Z"/><path class="cls-4" d="M80.4,364.7c15.06,1.06,29.52-3.65,41.78-12.26a107.6,107.6,0,0,0,15.73-13.73,128.11,128.11,0,0,0,13.48-16.38c4.48-6.6,8-13.9,9.4-21.81.08-.47-.64-.67-.73-.2-2.41,14-11.47,25.72-20.84,35.9s-20.18,19.14-33.12,24A61,61,0,0,1,80.4,364c-.48,0-.48.72,0,.75Z"/><path class="cls-2" d="M175,124.11l13,15.34,2.68-1.41.33,4,23,25.95a2.45,2.45,0,0,0,1.88.35,2.48,2.48,0,0,0,1.23-.84c.77-1,.55-2.79-.54-4.47l-3.6-3.87q-18.15-19.62-34.57-39.45l-5.63-3.41C173.53,118.87,174.27,121.49,175,124.11Z"/><path class="cls-2" d="M194,138l-.84-8.73a27.22,27.22,0,0,1,4.93,2.47,27.64,27.64,0,0,1,5.09,4.16,72.56,72.56,0,0,1,1.7,7.35,71.44,71.44,0,0,1,.9,7.51c.07.22.13.48,0,.54-.35.23-2.59-2.7-3.79-4.22A117.17,117.17,0,0,0,194,138Z"/><path class="cls-2" d="M190.71,138v3.72q3.93,4.31,8,8.65,3,3.24,6,6.4a45.4,45.4,0,0,0-3.74,3.12,44.41,44.41,0,0,0-4.9,5.37c-2.77,5.34-8.22,6.84-11,5.06-1.84-1.18-2.62-3.88-2.39-6.62a50.1,50.1,0,0,1,.13-7.39c.34-3.7.67-7.26,2.57-11.2A24,24,0,0,1,190.71,138Z"/><path class="cls-1" d="M137.18,177a9.57,9.57,0,0,0-5.74-.51c-7,1.72-9.55,12.48-11,18.55-1.71,7.13-3.49,19.84.94,36.71,4.87,5.16,9.12,9.28,12.25,12.21,7.78,7.29,14.36,13.4,24,19.48,1.68,1.07,5.23,4.88,10.92,6.12a12.06,12.06,0,0,0,6.57-.09c2.75-.94,4.63-3,6.62-6.17a44.64,44.64,0,0,0,6-14.87c3.38-20.77,5.07-31.15,5.15-32.9.55-11.64,1.59-28.08,3.75-50.66a9.87,9.87,0,0,0-3.92-2.69c-4.88-1.78-9.38,1.17-9.95,1.56-1.43,4.21-2.85,8.45-4.25,12.75q-6.08,18.63-11.21,36.67c-5.52-5.92-11.17-12.33-16.87-19.25C145.66,188.16,141.26,182.5,137.18,177Z"/><path class="cls-4" d="M136.91,177.26l33.43,40.92c.3.37.83-.16.53-.54l-33.43-40.91c-.3-.37-.83.16-.53.53Z"/><path class="cls-4" d="M168.11,211.74q7.47-23,14.18-46.14a.38.38,0,0,0-.73-.2q-6.69,23.19-14.18,46.15c-.15.46.58.65.73.19Z"/><path class="cls-4" d="M183.5,163.8a9.59,9.59,0,0,1,12.83,1.33c.31.37.84-.16.53-.53A10.34,10.34,0,0,0,183,163.27c-.38.3.15.83.53.53Z"/><path class="cls-4" d="M121.11,232a237.44,237.44,0,0,0,25.11,23.29q6.56,5.25,13.46,10c3.93,2.71,8.7,5.73,13.72,4.95,4.8-.75,7.81-5.07,9.95-9.05a58,58,0,0,0,5.28-15.15,304,304,0,0,0,5.1-35.55,415.69,415.69,0,0,0,1.91-41.76.38.38,0,0,0-.75,0,407,407,0,0,1-5.79,70.91,88.9,88.9,0,0,1-3.73,15.17c-1.68,4.64-4.11,10.19-8.29,13.12-4.91,3.46-10.76.8-15.23-2.08s-9-6.33-13.33-9.72a239,239,0,0,1-26.88-24.7c-.33-.36-.86.18-.53.53Z"/><path class="cls-4" d="M183.1,163.74a129.69,129.69,0,0,1,1.82-15c.7-3.73,1.9-7.81,5.32-9.92.42-.25,0-.9-.37-.64-3.39,2.08-4.77,5.94-5.54,9.66a120.79,120.79,0,0,0-2,15.86c0,.48.71.48.75,0Z"/><path class="cls-4" d="M197.4,163.87a32.84,32.84,0,0,0,7.47-7.32c.29-.39-.36-.76-.65-.38a31.28,31.28,0,0,1-7.2,7.05c-.39.28,0,.93.38.65Z"/><path class="cls-4" d="M190.86,138.05l-1.07,7.41c-.07.47.65.68.72.2l1.07-7.41c.07-.48-.65-.68-.72-.2Z"/><path class="cls-4" d="M191.28,142.51l22.48,25.7c.32.36.85-.17.53-.53L191.81,142c-.32-.37-.84.17-.53.53Z"/><path class="cls-4" d="M175.14,124.6q5.76,7.49,12.17,14.43c.33.36.86-.17.53-.53q-6.34-6.85-12.05-14.28c-.29-.37-.94,0-.65.38Z"/><path class="cls-4" d="M175.51,123.56a3.05,3.05,0,0,1,2.41-3.07.39.39,0,0,0,.26-.46.38.38,0,0,0-.46-.26,3.78,3.78,0,0,0-3,3.79.38.38,0,1,0,.75,0Z"/><path class="cls-4" d="M175.17,123.06a22.74,22.74,0,0,1-2-6.69l-.36.47a4.34,4.34,0,0,1,2.66,1c.37.31.9-.21.53-.53a5.15,5.15,0,0,0-3.19-1.27.38.38,0,0,0-.36.48,23,23,0,0,0,2.12,6.87c.21.43.85,0,.64-.38Z"/><path class="cls-4" d="M178.17,119.92q18.44,22.23,38.17,43.33c.33.35.86-.18.53-.53q-19.73-21.1-38.17-43.33c-.31-.37-.84.16-.53.53Z"/><path class="cls-4" d="M214.38,168.57a4.5,4.5,0,0,1,1.1,0,4.88,4.88,0,0,1,.55.12c.22.07.39.14.59,0a3.63,3.63,0,0,0,1-1.46,4,4,0,0,0-.19-3.44.37.37,0,0,0-.64.38,3.24,3.24,0,0,1-.74,4l.37-.1a4.9,4.9,0,0,0-2.08-.23.39.39,0,0,0-.38.38.38.38,0,0,0,.38.37Z"/><path class="cls-4" d="M193.36,129.62a26.73,26.73,0,0,1,4,11.49c.05.48.8.48.75,0A27.42,27.42,0,0,0,194,129.24c-.26-.4-.91,0-.65.38Z"/><path class="cls-4" d="M195.13,130.23a42.84,42.84,0,0,1,5.44,15.16c.07.48.8.27.72-.2a43.4,43.4,0,0,0-5.51-15.34.38.38,0,0,0-.65.38Z"/><path class="cls-4" d="M198.68,132.92a29.07,29.07,0,0,1,4.55,12.67c.06.47.81.48.75,0a29.76,29.76,0,0,0-4.65-13.05c-.27-.4-.92,0-.65.38Z"/><path class="cls-4" d="M202.2,135.53a44,44,0,0,1,3.19,15.4c0,.49.77.49.75,0a44.67,44.67,0,0,0-3.21-15.6c-.18-.44-.91-.25-.73.2Z"/><path class="cls-4" d="M91.72,137.92A38.32,38.32,0,0,0,96,135.4a22.33,22.33,0,0,0,5.22-4.4c1.61-2,3.12-3.8,3-6.33a7.81,7.81,0,0,0-3.4-5.58c-2.71-1.84-5.8-1.33-8.68-.82A28.21,28.21,0,0,0,79,124.55a13.57,13.57,0,0,0-7.62-2.35c-6.55.06-10.47,5.18-11.1,6s-3.14,4.1-3,7.75c0,.55.09,1,.08,2a19.85,19.85,0,0,1-1,5.61c-1,2.88-3.16,4.29-5.32,6.3A39.55,39.55,0,0,0,43,161a36.71,36.71,0,0,0-4.28,12.44A29.69,29.69,0,0,0,40.4,190a27.85,27.85,0,0,0,27.49,16.9A30.5,30.5,0,0,0,81.32,203a35.48,35.48,0,0,0,11.77-10.49A39.21,39.21,0,0,0,100.66,176c1.52-8.05-.06-14.34-1.54-20.24A65.8,65.8,0,0,0,91.72,137.92Z"/><path class="cls-2" d="M79,124.55a11.44,11.44,0,0,1,8.37,7,6.29,6.29,0,0,0-.77-5.05A6.5,6.5,0,0,0,79,124.55Z"/><path class="cls-2" d="M99.38,134a20.31,20.31,0,0,1,1.5,3.11c.84,2.19,1.59,4.16,1.17,6.62a9.46,9.46,0,0,1-4.67,6.61,56.13,56.13,0,0,0-2.86-7.27,58,58,0,0,0-2.8-5.17Z"/><path class="cls-4" d="M70.71,122.65c-2.65-1.79-6.26,1.18-8.22,2.83a15,15,0,0,0-5.42,8.33c-.38,1.9,0,3.7,0,5.61a9.24,9.24,0,0,1-2.38,5.86c-2.38,3-5.19,5.5-7.51,8.52C42.49,160,39,167.18,38.11,175A29.42,29.42,0,0,0,44,196.78a28.57,28.57,0,0,0,19.6,10.46A32.55,32.55,0,0,0,83.82,202c12.9-8.3,18.44-24.39,16.91-39.2A61,61,0,0,0,93.32,140c-3.66-6.66-8.46-13.76-15.94-16.42a16.05,16.05,0,0,0-5.32-.93.38.38,0,0,0,0,.75c8.1.06,14,6.34,18,12.67a64.5,64.5,0,0,1,9,21.07c3.1,14.24,0,30.43-11,40.64-10.72,10-27.71,12.18-39.47,2.66a27.28,27.28,0,0,1-9.9-19.46,37.69,37.69,0,0,1,5.73-21.75,57.07,57.07,0,0,1,6.74-9c2.14-2.34,4.74-4.52,6-7.5,1.41-3.28-.18-6.77,1-10.13a16.65,16.65,0,0,1,6.77-8c1.49-1,3.65-2.45,5.39-1.28.4.27.78-.37.38-.64Z"/><path class="cls-4" d="M79.21,124.88c5.72-4.18,13.1-8.18,20.38-5.87a5.89,5.89,0,0,1,4.09,3.42c.63,1.91-.13,4-1,5.71a17.07,17.07,0,0,1-6.83,6.93.38.38,0,0,0,.38.65,17.64,17.64,0,0,0,7.44-7.89c1.51-3.27,1.35-6.88-2.05-8.78s-7.92-1.69-11.61-.69a34.74,34.74,0,0,0-11.16,5.87c-.39.28,0,.93.38.65Z"/><path class="cls-4" d="M99.05,134.21a18,18,0,0,1,2.65,8.67c.06,3.27-2,5.39-4.51,7.16-.39.27,0,.93.38.65,2.52-1.78,4.73-3.95,4.88-7.21a18.07,18.07,0,0,0-2.75-9.65.38.38,0,0,0-.65.38Z"/></g></g></svg>