<svg xmlns="http://www.w3.org/2000/svg" viewBox="0 0 937.47 649.02">
  <style>
    .st0{fill:#202124}.st1{fill:#fff;stroke:#202124;stroke-width:.75;stroke-miterlimit:10}.st2{fill:#0c0c0c}.st3{fill:#fdd68b}.st4{fill:#64bca7}.st5{fill:#fff}.st6,.st7{fill:#fff;stroke:#202124;stroke-miterlimit:10}.st7{fill:none}.st8{fill:#ffad89}.st9{fill:none}.st10{fill:#fff;stroke:#0c0c0c;stroke-width:.75;stroke-miterlimit:10}
  </style>
  <g transform="translate(147 135.42)">
    <path d="M-145.8 23.5l-.8-32.1 434.7-72.6v19.3z" class="st0"/>
    <circle cx="-130.4" cy=".9" r="6.6" class="st1"/>
    <circle cx="-112" cy="-3.1" r="6.1" class="st1"/>
    <circle cx="-96" cy="-6.1" r="4.9" class="st1"/>
    <path d="M-146.6 12.3l19.3 286.1 415.4-103.7V-61.9z" class="st1"/>
  </g>
  <path d="M203.5 465.02c67.7-10.5 136.3-3.6 204 3.3 33.8 3.5 67.7 6.9 101.6 8.3 34.6 1.4 69.1-.4 103.6-2.5 39.3-2.4 78.7-4.7 118-1.5.5 0 .5-.7 0-.8-70.1-5.8-140 6-210.1 4.3-68.3-1.7-135.9-12.9-204.1-16.4-37.8-1.9-75.8-1.4-113.3 4.5-.4.1-.2.8.3.8z" class="st2"/>
  <path d="M174.5 306.82c-5.1 12.1-10.2 25.6-14.8 39.9-6.4 19.6-11.1 38-14.5 54.9 26-7.8 45.9-12.4 59.7-15.3 5.8-1.2 17.6-3.6 33.8-7.8 10.6-2.7 19.4-5.4 25.3-7.2-3.6-15.3-7.2-30.7-10.8-45.9-26.4-6.2-52.5-12.5-78.7-18.6z" class="st3"/>
  <path d="M253.6 325.42c-.1-.7-1.2-.4-1 .3 3.7 15.9 7.5 31.7 11.2 47.6.1.7 1.2.4 1-.3-3.7-15.9-7.5-31.8-11.2-47.6zm-33.4 19.8c.6-.4-.3-1.2-.7-.6-1.9 1.6-4.5 2.2-6.1 4.3-1.9 2.5-2.2 7.3-3 10.5-2.5 9.1-4.9 18.4-7.3 27.5-.1.7.9 1 1 .3 1.9-7.9 4-15.7 6.1-23.5 1-3.7 1.5-9 3.3-12.4 1.5-2.8 4.4-4.1 6.7-6.1zm-54.2-20.7c.3-.7-.9-1-1-.3-5.9 22.2-11.9 44.5-17.7 66.8-.1.7.9 1 1 .3 5.8-22.3 11.8-44.6 17.7-66.8z" class="st0"/>
  <path d="M298.8 213.22c4.8-4.8 20.3-20.8 21.5-39.6.3-5.1 1-14.8-5.1-19.6-1.6-1.3-3.1-1.9-4.3-2.2-8.8-1-22-2.4-38-3.1-23.8-1.2-47.6-2.1-76.4 3.6-9.4 1.8-22.7 5.1-38.1 10.8-.4 2.2-.9 5.7-1.2 9.9-.7 10.4.4 18.4.7 21.2.9 7.9 0 4.9 1.6 40.4 1.8 39.3 4.9 81.4 5.5 90 2.1.6 5.1 1.3 8.7 2.1 1.5.3 14.4 2.8 28.6 3.4 22.6.9 43.4-3.9 50.4-5.5 4.9-10.5 9.7-21.1 14.5-32 11.8-27.2 22.3-53.8 31.6-79.4z" class="st4"/>
  <path d="M312.8 152.52c.7 0 .7-1 0-1-50.8-5.5-103.3-8.3-152.1 10.1-.6.1-.4 1.3.3 1 48.6-18.3 101.1-15.5 151.8-10.1zm-2.5 27.9c.1-.7-.9-1-1-.3-15.7 49.2-34.7 97.2-57 143.7-.4.7.6 1.2.9.6 22.4-46.6 41.4-94.8 57.1-144z" class="st0"/>
  <path d="M252.8 325.12c.7-.1.4-1.2-.3-1-28.9 7.3-58.6 7.3-87.3 0-.7-.1-1 .9-.3 1 29 7.3 58.9 7.3 87.9 0z" class="st0"/>
  <path d="M157.7 172.82c0-.7-1.2-.7-1.2 0 1.5 50.4 4 100.6 7.9 150.7.1.7 1.2.7 1.2 0-3.8-50.2-6.4-100.4-7.9-150.7z" class="st0"/>
  <path d="M164.5 365.02c-1.8 1.2-.3 4.6-3 8.8-.7 1.3-1.9 2.4-4.2 4.3-3.3 3-3.9 2.7-5.2 4.5-1.8 2.5-2.1 5.4-2.2 6.9-.3 3.3.4 5.8 1 7.3 1.5 2.5 3.9 5.8 7.9 7.3 3.1 1.2 3.6-.1 10.6.4 5.7.4 8.1 1.6 12.1.4 1.6-.4 3-1.2 3.9-1.6a41.9 41.9 0 01-3.4-6.6c-1.2-2.5-2.1-4.8-2.4-7.9-.1-2.4 0-4.3.3-5.7 1.9 0 4.6.1 7.6 1.3 3.3 1.3 4.6 3.3 6 2.7 1.2-.6 1.2-3.1 1-7.5-.1-4-.7-4.9-1.2-5.4-.7-.7-1.5-1-4.5-1.8-3.6-.9-5.4-1.3-7.6-1.8-1.8-.4-4.2-.9-7.2-1.6-5.9-4.6-8.3-4.6-9.5-4z" class="st5"/>
  <path d="M159.7 161.72c-3.3 2.7-8.2 7.5-12.1 14.9-3.6 7-4.7 13.1-5.6 19.4-1 7-1 12.6-.7 21.4.7 20 1.9 30.7 1.9 30.7 3.9 33.5 9.3 63.9 13.9 97.2 1.6 11.8 2.8 21.4 3.6 27.2 1.5.4 5.2 1.3 9.6-.1 2.4-.7 4-2.1 5.1-3a1462.27 1462.27 0 0121-168.3c-2.5-7.3-8.8-21.5-23.3-32-4.7-3.3-9.2-5.6-13.4-7.4z" class="st4"/>
  <path d="M158.8 163.42c.4-.6-.3-1.3-.9-.7-10.9 9.5-15.6 23.1-16.8 37.3-1.6 18.5.4 37.8 2.4 56.4 4.2 38.9 12.1 77.3 16.6 116.2.1.7 1.3.7 1.2 0-4.2-36-11.2-71.6-15.6-107.5-2-18-3.8-36.2-3.7-54.3 0-17.3 3.2-35.3 16.8-47.4zm38 38c.1-.7-.9-1-1.2-.3-10 55.2-17.2 111-21.2 166.9 0 .7 1.2.7 1.2 0 4-56 11.1-111.4 21.2-166.6zm-21.7 168.4c.4-.6-.3-1.3-.7-.7-2.7 3-6.6 4.2-10.5 3.1-.7-.3-1 .9-.3 1 4.2 1.2 8.6-.1 11.5-3.4z" class="st0"/>
  <path d="M175.5 368.92c-.7-.1-1 .9-.3 1 4.2.9 8.4 1.9 12.6 3 3 .7 6 1.9 6.1 5.5.1 2.5-.3 4.9-.9 7.3-.1.7.9 1 1 .3.9-3.6 2.5-10.2-1.2-12.7-1.6-1.2-4.3-1.3-6.3-1.8-3.5-.8-7.2-1.7-11-2.6zm-13.1 4.3c.3-.6-.7-1.2-1-.6-2.4 5.1-7.9 6.3-10.8 10.9-2.5 4.2-1.3 9.3-.4 13.6.1.7 1.2.4 1-.3-.7-3.3-1.6-6.7-.7-10 1-3.7 3.7-5.2 6.6-7.3 2.3-1.8 3.9-3.6 5.3-6.3zm17.9 10.3c0-.7-1-1-1-.1-1.3 7.5 1.9 14.1 5.5 20.5.3.6 1.2 0 .9-.6-3.4-6.2-6.7-12.6-5.4-19.8zm3 21.6c.7.1.7-1 0-1.2-5.8-.7-10.2-7.2-11.4-12.4-.1-.7-1.2-.4-1 .3 1.3 5.8 6.1 12.4 12.4 13.3zm-9-.3c.6.3.9-.7.1-1.2-4-1.6-7-5.1-8.2-9.3-.1-.7-1.2-.4-1 .3 1.4 4.8 4.6 8.4 9.1 10.2zm-9.7-.6c.7.3 1.2-.6.6-1-3.4-1.9-5.4-5.4-5.4-9.3 0-.7-1.2-.7-1.2 0 0 4.3 2.3 8.2 6 10.3z" class="st0"/>
  <path d="M248.4 210.22c-1.9 15-3.7 30.1-5.7 45l11.2 1.3c1.5-15 2.8-29.9 4.3-44.9-3.3-.5-6.6-1.1-9.8-1.4z" class="st3"/>
  <path d="M277.7 238.32c-1 1.5-2.4 2.2-3.3 2.7-2.7.6-6.7 1.5-11.8 2.5-4.6 1-6.3 1.3-8.8 1-3.7-.6-6.4-2.2-7.6-3-1.9-1.3-3.3-2.8-4-3.9-1-3.7-.7-6.6-.4-8.1.3-2.2 1.2-3.9 1.8-5.2.9-1.9 1.9-3.4 2.7-4.5.7.4 1.5 1 2.4 1.5 3.7 1.9 7.5 1.9 9.6 1.8.6-1.3 2.7-4.8 6.6-6.1 1.3-.4 2.8-.9 4.3-.4 1.9.7 2.2 2.2 5.2 7.3 2.4 4.2 2.7 3.9 3.3 5.5.4 1.9 1.9 5.6 0 8.9z" class="st5"/>
  <path d="M301.5 181.92a81.86 81.86 0 00-.7 32.2c3.4 3.4 7 7 10.9 10.6 3 2.8 6 5.5 8.8 8.1-13.8-.7-27.4-1.5-41.1-2.2 0 1.3-.1 4.6-2.4 7.8-1.2 1.8-2.7 3-3.7 3.6 5.4 3.6 12.4 8.1 21.1 12.7 10.8 5.7 18.7 8.7 31.6 13.6 5.8 2.1 22.6 8.4 36.2 7.6 2.5-.1 6.3-.7 9.1-3.4.6-.4 2.8-2.8 3.7-9.1.7-5.1.1-10-1.6-16.7-2.4-8.5-5.4-14.7-6.7-17.5-4.8-9.6-9.4-17.2-13.9-23.9-10.2-15.6-19.6-28-32-44.4-2.5-3.3-4.6-6-6-7.8-4.2 5.2-10.2 15.1-13.3 28.8z" class="st4"/>
  <path d="M315.8 154.32c-.4-.6-1.2.3-.7.9 12.4 14.7 23.9 29.9 34.2 46.1 10.2 15.6 21.7 32.6 24.2 51.4.9 6.6 2.2 16.3-4.6 20.6-4 2.7-10 2.4-14.5 1.9-9.7-.7-19.4-4.2-28.6-7.5-17.9-6.3-35.1-14.8-51.3-24.8-.6-.4-1.2.4-.6.9 19.4 12 40.1 21.7 61.9 28.4 11.2 3.4 36 10.8 39.2-6.9 3.4-20.2-9.9-40.7-19.7-56.8-11.7-19.1-25-37.2-39.5-54.2z" class="st0"/>
  <path d="M329.7 233.52c.7 0 .7-1 0-1.2-16.9-.1-33.6-3.1-50.5-2.7-.7.1-.7 1.2 0 1.2 16.9-.4 33.6 2.7 50.5 2.7zm-51-1.9c0-.7-1.2-.7-1-.1-.1 3.1-1 6.1-2.8 8.7-.4.6.4 1.2.9.6 1.9-2.8 2.8-5.9 2.9-9.2z" class="st0"/>
  <path d="M318.1 231.92c.6.6 1.3-.3.7-.7l-14.8-14.8c-.4-.6-1.2.3-.7.7 4.9 4.9 9.8 9.9 14.8 14.8zm-41-2.3c.3.7 1.3.1 1-.7-2.4-3.7-4.6-8.4-7.5-11.8-2.4-2.8-4.9-.6-7.9-.4-.7.1-.7 1.2 0 1.2 1.2 0 2.2-.6 3.4-.7 2.4-.3 4 1.5 5.2 3.4 2 3.1 3.8 6.1 5.8 9zm-3.9 12.8c.7-.1.4-1.2-.3-1-4.5.7-9.1 1.3-13.6 1.9-4.2.6-7.2 1.5-11.2-.9-2.1-1.3-4-3.3-5.7-5.1-.4-.6-1.2.3-.7.7 3.1 3.1 6.6 6.9 11.2 7 6.5.3 13.9-1.7 20.3-2.6zm-14.4-16.9c.7.1 1-1 .3-1-4.5-.6-8.8-2.2-12.6-4.9-.5-.6-1.1.3-.5.8 3.9 2.7 8.2 4.5 12.8 5.1zm-4.8 4.3c.7.1 1-.9.1-1.2-3.6-.6-6.7-2.4-8.8-5.4-.3-.6-1.3 0-.9.6 2.5 3.3 5.8 5.4 9.6 6zm-5 5.7c.7.3 1.2-.6.6-.9-3-1.9-5.1-4.8-6.1-8.2-.1-.7-1.2-.4-1 .3.9 3.7 3.2 6.7 6.5 8.8z" class="st0"/>
  <path d="M244.9 237.72c.4.4 1.3-.3.9-.7a12.7 12.7 0 01-3.4-7.3c-.1-.7-1.3-.7-1.2 0 .3 3.1 1.6 5.8 3.7 8z" class="st0"/>
  <g>
    <path d="M232.8 151.12c2.7-4.3 6.4-6.3 8.4-7 1.2-.6 4.3-1.6 8.2-1.3 5.1.4 5.7 2.7 13.2 5.7 5.1 2.1 6.3 1.5 12 4.2 6 2.7 6.9 4.2 7.3 5.1 1.9 4.3-1.8 9.6-2.2 10.3-3.1 4.5-8.1 5.7-9.9 6.1-.9.3-2.7.7-5.1.6-6.1-.3-10.6-4.3-12.6-6.1-5.5-4.9-4.3-7.8-9.4-10.9-1.5-.9-5.5-3.4-9-1.8-1.8.9-2.7 2.8-3.1 3.9 0-1.7.3-5.2 2.2-8.8z" class="st0"/>
    <path d="M258.7 170.42c-3.9-3.3-4.5-5.4-9.3-10.2-3.4-3.3-5.1-4.9-7.9-5.5-.6-.1-5.5-1.2-8.7 1.8-1.5 1.3-1.9 3.1-2.5 6-.7 3.3-.7 6-.6 7.8-1.9.6-3.9 1.3-5.8 1.9 0 1.3.3 3.1.7 5.2.1.9 1 4 3.1 7.8 1.9 3.3 3.1 4 3.6 4.3.4.3 2.8 1.8 4.3.7 1.3-.9.9-3.1.9-3.3-.3-1.5-1.3-2.4-1.6-2.7.3-.3.7-.6 1-.9.6.6 1.5 1.2 2.5 1.9 1.3.9 6.7 4.2 13.6 2.8 5.8-1.2 9.1-4.9 10.2-6.1 2.2-2.5 3.3-5.2 3.7-6.9-1.7-.5-4.4-2-7.2-4.6z" class="st5"/>
    <path d="M266.3 175.82c.3-.6-.7-1.2-.9-.4-4 9.3-12.3 15.3-22.6 11.7-10.5-3.6-14.2-15-11.8-25 .1-.7-.9-1-1-.3-2.5 10.5 1.5 22.3 12.4 26.3 10.7 3.9 19.7-2.7 23.9-12.3z" class="st0"/>
    <path d="M265.9 174.82c-.7.1-.3 1.2.1 1.2 7.2-1.5 16.3-5.4 16.7-14.1.6-9.4-7.5-9.7-14.2-11.4-9.5-2.5-15.7-10.7-26.4-7.1-7.6 2.5-12 9.6-12.6 17.3 0 .7 1.2.7 1.2 0 .7-9.1 6.9-16.3 16-17 7.2-.4 11.4 3.3 17.2 6.4 3.9 2.1 15.6 3.3 16.7 6.4 4.3 10.6-6.1 16.5-14.7 18.3z" class="st0"/>
    <path d="M265.4 175.72c.7.3 1-.7.3-1-10.5-3.3-13-16-23-19.7-5.7-1.9-11.2.3-13 6-.3.7.9 1 1 .3 3.3-10.9 14.2-4.6 18.4-.1 2.1 2.2 3.9 4.8 5.8 7.2 3 3.2 6.2 5.9 10.5 7.3zm-29.2 8.9c.6-.3.4-1.3-.3-1-.7.3-1.6.6-2.5.9-.7.1-.4 1.2.3 1 .8-.3 1.6-.6 2.5-.9z" class="st0"/>
    <path d="M237.1 186.42c-.1-.7-1.2-.7-.9-.1.6 2.2-.7 3.3-4 3.1-1-.7-2.1-1.8-2.8-3-.7-1-1.3-2.1-1.9-3.3-1.8-3.4-2.5-7-2.8-10.8-.1-.7-1.2-.7-1.2 0 .4 6 2.4 13.3 7.2 17.3 3.5 3.3 7 1.8 6.4-3.2zm17.2-14c.1-.7-.9-1-1-.3-.6 2.1-2.2 9.3-5.2 8.1-.7-.3-.9.7-.3 1 4.1 1.5 5.8-6.3 6.5-8.8zm-9.4-1.2c-.6.3 0 1.3.6 1 1-.6 1.8-1.3 2.4-2.4.3-.4 0-.9-.4-.9-1.3.1-2.5 1-2.7 2.4-.1.7.9 1 1 .3.1-.7.7-1.5 1.6-1.5-.1-.3-.3-.6-.4-.9-.6.9-1.2 1.5-2.1 2z" class="st0"/>
  </g>
  <g transform="translate(147 135.42)">
    <path d="M104.6 76c2.7.7 5.1.6 6.4.3 9-1 16-8.7 16-17.9 0-9.9-7.9-17.9-17.9-17.9-9.9 0-17.9 7.9-17.9 17.9 0 6.6 3.6 12.4 9 15.6 1 .7 2.5 1.4 4.4 2z" class="st3"/>
    <circle cx="109.3" cy="58.1" r="14.1" class="st1"/>
    <path d="M107.8 44c-.1-.6-1.3-.3-1 .3 1.8 7.3 5.2 14.5 8.1 21.5.3.6 1.3.3 1-.3-2.7-7-6.3-14.2-8.1-21.5zm-6.1 2.1c-.3-.6-1.3 0-.9.6 4.2 8.1 7.9 16.5 11.1 25 .1.6 1.3.4 1-.3-3.2-8.7-6.9-17.1-11.2-25.3z" class="st0"/>
  </g>
  <g>
    <g transform="translate(147 135.42)">
      <path d="M708.1 389.4l16.5 91.6c17.5.2 34.9.5 52.4.7 4.4-30.8 8.7-61.5 13.1-92.3z" class="st4"/>
      <ellipse cx="749.1" cy="390.7" class="st1" rx="41" ry="15.9"/>
      <path d="M741.6 287.9c-6.2 8.3-11.3 17.3-15.3 26.9-3.7 8.7-6.8 18.5-5.3 28 1.4 8.8 7 15 13 21.1 8.2 8.4 13.8 17.3 13.5 29.4 0 1.9 3 1.9 3 0 .2-8.6-2.2-16.8-7.4-23.7-5.2-6.9-12.9-12.1-16.9-20-5.1-10-2-21.7 1.9-31.6 4.1-10.2 9.5-19.8 16.1-28.6 1.1-1.5-1.5-3-2.6-1.5z" class="st4"/>
      <path d="M746.9 375c-7.1-21.7 22.3-36.8 15.2-59-.6-1.8-3.5-1-2.9.8 7 21.7-22.5 36.7-15.2 59 .6 1.8 3.5 1 2.9-.8zm-19.1-95.5c-4 5.8-7.9 11.9-8.9 19-1.2 7.7 1.7 14.8 4.7 21.7.8 1.8 3.3.2 2.6-1.5-2.9-6.8-5.8-13.9-4-21.5 1.4-6 4.8-11.2 8.2-16.2 1-1.6-1.6-3.1-2.6-1.5z" class="st4"/>
      <path d="M753.8 345.3c-3.1-6.6-4.7-13.7-4.4-21 .3-6.5 3.4-12.7 2.8-19.2-.2-1.9-3.2-1.9-3 0 .4 4.5-1.3 8.5-2.1 12.8-.6 3.2-.9 6.6-.8 9.9.2 6.7 2 13 4.8 19 1 1.7 3.6.2 2.7-1.5z" class="st4"/>
      <path d="M750.5 320.1c1.5-6.7 6.7-12.2 9.4-18.4 2.6-6 4.1-12.3 4.8-18.8.2-1.9-2.8-1.9-3 0-.8 7.5-2.8 14.7-6.4 21.4-2.7 5-6.5 9.4-7.8 15.1-.3 1.8 2.6 2.6 3 .7zM724.3 349c-.9.1-9.5.6-15.3-6.2a18.3 18.3 0 01-2.8-18.7c2.5.9 6.5 2.7 10.1 6.4 7 7.1 7.8 15.9 8 18.5zm1.1-27.6c-.9-2.3 4.6-6.7 7.8-8.7 4.5-2.9 9-3.8 11.9-4.1-.2 1.3-1.6 9.4-8.3 12.8-4.5 2.2-10.6 2-11.4 0zm-.7-34.3c-.4-1.2-3.3-10.5 2.2-18.6 2.8-4.1 6.6-6.1 8.5-6.9 1.2 2.6 1.5 4.8 1.6 6.5.3 11.2-11.3 18.4-12.3 19zm15.4 8.5c-.8-1.7-2.5-6-1.4-11.2 1.9-9.2 10.6-13.1 11.5-13.4-.1 2.8-.5 6.7-2 10.9-2.2 6.6-5.7 11.1-8.1 13.7zm15.1 46.7c1.6-2.9 4.5-7.4 9.6-11.4a39 39 0 0115.7-7.5c-.6 2.3-1.8 5.1-3.7 7.8-7.1 9.7-19.1 10.9-21.6 11.1zm-19.1 23.5c-1.1-1.5-5.3-7.6-4.5-16.2.8-9 6.5-14.4 7.8-15.6.7 2.6 1.3 5.6 1.5 9 .6 10.2-2.5 18.3-4.8 22.8z" class="st4"/>
    </g>
    <g transform="translate(147 135.42)">
      <path d="M518.8 320.9v-62.5c0-5.5-4.4-9.9-9.9-9.9h-13.1c-5.5 0-9.9 4.4-9.9 9.9v62.7c-23.1 3.2-39.8 12.7-39.8 23.8 0 13.8 25.6 25 57.1 25s57.1-11.2 57.1-25c0-11.4-17.5-21.1-41.5-24z" class="st6"/>
      <path d="M334.5 226.1L349.8-135l390.3 47.5L709 311.9z" class="st1"/>
      <path d="M334.5 226.1L709 311.9l3.7-47.4L336.2 185z" class="st1"/>
      <circle cx="501.4" cy="248.7" r="9.3" class="st6"/>
    </g>
    <g transform="translate(147 135.42)">
      <path d="M256.1 59.8c-.5 2.1-3.3 91.7-3.3 91.7l186.3 37.4 9.7-91.4z" class="st1"/>
      <path d="M446 123l2.7-25.4-192.6-37.8-1.6 27.5z" class="st0"/>
      <circle cx="266.5" cy="100.1" r="4.9" class="st3"/>
      <circle cx="265.7" cy="139.1" r="4.2" class="st3"/>
      <path d="M275.9 103.2L419 130.9m-149.1-13.8L387 141.7m-105.1-2.6L419 167.9" class="st7"/>
    </g>
    <g transform="translate(147 135.42)">
      <path d="M609.7-.4L764 31.1 776.4-33 618.1-62.4z" class="st1"/>
      <path d="M616.3-49.4c52.5 9.7 105 19.3 157.5 29 .9-4.2 1.7-8.4 2.6-12.6-52.8-9.8-105.5-19.6-158.3-29.3" class="st0"/>
      <circle cx="626.1" cy="-35.1" r="4.8" class="st3"/>
      <circle cx="621" cy="-14.6" r="4.6" class="st3"/>
      <path d="M637.4-37.5l108.4 18.3m-91.5-9.2L764.4-9.9m-130-14.8L716-12.4m-85-3.2L760.3 7.8M631-9.9l114.8 20.4m-54.9-.5l64.5 11.7" class="st7"/>
    </g>
  </g>
  <g>
    <path d="M804.6 229.42c.8 2.8 1.8 6.9 3.1 11.7 2.5 9.7 8.7 34 14.9 63.8 7.5 36.1 12.4 68 15.4 90-12.7-2.7-25.4-5.4-38.2-8.1-11.9-24.8-18.2-39-21.9-47.7-1-2.4-3.7-8.9-8.1-17.1-3.5-6.5-6.7-11.7-8.7-14.8-.7 2.2-1.9 5.7-3.5 9.7-4.1 10.5-8.2 17.9-9.7 20.7-3.8 7-9.3 17.9-16.4 34.9-14.7-3.1-29.3-6.2-44-9.2 6-20.6 12.5-41.4 19.4-62.6 2.6-7.8 5.1-15.5 7.7-23.2 5.9-5.4 12.6-10.9 20.1-16.2 25.3-17.8 50.4-27 69.9-31.9z" class="st4"/>
    <path d="M714.5 277.02c-10 28.6-18.2 57.9-27.8 86.7-.2.5.6.7.7.2 9.6-28.8 17.7-58 27.8-86.7.1-.5-.6-.7-.7-.2zm89.7-47.5c14.5 54.2 25.7 109.3 33.3 164.9.1.5.8.3.7-.2-7.6-55.6-18.8-110.7-33.3-164.9-.1-.5-.8-.3-.7.2zm-56.4 66c14.6 8.8 21.3 25 28 39.9 8 17.7 16 35.5 24 53.2.2.4.8.1.6-.4-8.5-18.9-17-37.9-25.6-56.8-6.3-13.9-13.2-28.4-26.7-36.6-.3-.2-.7.5-.3.7z" class="st0"/>
    <path d="M760.4 310.32c-9.8 20.8-19.5 41.6-29.3 62.4-.2.4.4.8.6.4 9.8-20.8 19.5-41.6 29.3-62.4.2-.5-.4-.9-.6-.4z" class="st0"/>
    <path d="M583.5 152.52c2.4-.7 4.1-.8 13.9-2 12.2-1.5 22-3 28.4-4.1 2.3.7 5.8 2.2 8.9 5.3 5.1 5.1 6 11.5 6.5 15.1.6 4.6.2 8.4-.4 11.1-4.1 1.7-8.6 3.3-13.2 4.9-2.7.9-11.9 3.9-24.5 6.6-4.3.9-15.1 3.1-29.3 4.6-6 .6-11.1.9-14.9 1.1 6.5-30.8 16.5-40.1 24.6-42.6z" class="st8"/>
    <path d="M566 195.12c14-.9 27.9-3 41.5-6.2 13.1-3.1 26.6-6.7 38.5-13.1.4-.2 0-.9-.4-.6-11.8 6.3-25.4 9.9-38.4 13-13.6 3.2-27.4 5.2-41.3 6.2-.3 0-.4.7.1.7zm17.6-42.3c18.4-2.6 36.7-5.2 55.1-7.9.5-.1.3-.8-.2-.7-18.4 2.6-36.7 5.2-55.1 7.9-.5.1-.3.8.2.7z" class="st0"/>
    <path d="M621.4 146.42c-.4 1.7-.9 4.3-.1 7.3.9 3.3 2.9 5.4 3.9 6.4 5.3 5.7 2.8 5.4 13.3 18.9 1.3 1.6 5.3 6.7 11.6 13.8 2.1 2.3 8.8 9.7 23.2 23.4 6.2 5.9 14.4 13.5 24.3 22.2 1.5 4 3.1 8.1 4.7 12.2 3.1 7.9 6.2 15.7 9.4 23.3.5 1 1.4 2.4 3 3.6 2.8 2.2 6.1 2.4 11.5 2.4 7.1 0 10.7 0 13.5-.3 11.2-1.2 19.7-4.3 23.9-6 4.4-1.8 10-4.1 16.4-8.7 3.7-2.6 10.5-7.6 16.3-16.7 2.4-3.7 5.5-9.6 7.4-17.6-1.5-4.8-3.7-11.1-6.7-18.3a196 196 0 00-14.2-28.4c-3.3-5.4-8.9-14.5-18-24.9-5.3-6-13.1-14.7-25-22.7-6.2-4.2-21.5-14.3-43.3-17.5-11.1-1.6-19.2-.8-21.1-.6-10.6 1.2-18.3 4.3-23.8 6.7-6.2 2.6-14.7 6.3-23.3 14.2-3 2.7-5.4 5.4-6.9 7.3z" class="st8"/>
    <path d="M621.3 153.72c18.1 31.7 45.1 57.2 72.8 81m3.6 3.7c4.5 11.9 9.2 23.7 14 35.5.4 1.1.9 2.2 1.8 2.9.7.6 1.6.9 2.5 1.1 5 1.5 10.3 2.3 15.5 2.3 4.7 0 9.3-.6 13.9-1.4 13.2-2.5 26.1-7.2 36.8-15.3 10.7-8.1 19-19.7 21.7-32.8m-182.5-84.3c3.6-6 9.6-10.2 15.6-13.8 9-5.4 18.7-10.1 28.9-12.5 21.1-5.1 43.9-.8 63.1 9.5 19.2 10.3 34.9 26.2 47.3 44 11.6 16.6 20.5 35.1 26.4 54.4" class="st9"/>
    <path d="M659.8 348.12c-1.3-.3-3.2-.8-5.5-1-3.5-.4-5.4-.5-7.6.5-.7.3-3.7 1.8-4.2 4.8-.3 1.7.4 3.1.7 3.8-4.4 1.3-7.2 3.4-8.7 4.7-2.7 2.4-3.5 4.5-3.7 5-.4 1.2-1.3 3.4-.3 5.5.3.6.9 1.7 4.1 3.3 3.4 1.7 5.7 2.9 9 2.8 4 0 7-1.8 9.1-3.1 2.6-1.6 2-1.9 5.6-4.4 3.6-2.5 4.7-2.5 7.9-5 1.7-1.3 3-2.3 4.3-4.1.8-1 2.4-3.2 3.1-6.5.2-.9.4-2.4.1-4.2-.1-.4-.5-2.9-1.7-4.1-2-2.1-7.1-1.5-12.2 2z" class="st5"/>
    <path d="M702.7 119.92c-2.6 4.1-5.2 8.6-7.7 13.6-6.1 12-9.8 23.4-12.1 33.1-3.2 22.3-6.3 44.9-9.3 67.7-4.9 38.2-9.2 75.7-13 112.6 1.2-.3 3.2-.6 5.4-.1 5.1 1.2 7.6 5.5 8 6.3 2.2-5.5 5-12.7 8.2-21.1 4.2-11.1 10-26.4 16.4-44.6 5.6-15.7 12.9-38.4 27.4-83.2 3.1-9.7 5.3-19.6 8.6-29.2 1-2.7 2.6-7.4 3.5-13.9.7-5.6 1.4-10.8-.7-16.9-2.4-7-7-11.1-9.7-13.6-4.8-4.4-9.6-6.4-11.9-7.4-5.1-2.2-9.8-3-13.1-3.3z" class="st8"/>
    <path d="M703.7 120.42c17.1 1.8 35.1 15 34.8 33.5-.1 8.9-3.2 17.7-5.7 26.2-2.4 8.3-4.9 16.7-7.4 25-9.9 32.6-20.8 65-32.4 97-6.7 18.4-13.7 36.8-20.9 55-.2.4.5.6.7.2 14-35.3 27-70.9 39-106.9 5.9-17.7 11.5-35.5 16.9-53.4 2.8-9.2 5.6-18.4 8-27.6 2-7.3 3.6-15.1 1.9-22.7-3.4-15.3-20.2-25.5-34.9-27-.4-.1-.4.7 0 .7z"/>
    <path d="M682.9 166.52c-8.7 59.9-16.1 120.1-22.3 180.3m-.2.5c4.6-2 10.5.1 12.8 4.5" class="st9"/>
    <path d="M672.4 356.82c-3.7 8.7-13.5 11-19.8 17.2-.3.3.2.9.5.5 6.3-6.3 16.2-8.6 19.9-17.4.2-.3-.4-.7-.6-.3zm-12.8-9.2c-5.2-.8-15-3.4-16.5 4.1-.1.5.6.7.7.2 1.4-7 10.7-4.4 15.6-3.6.4.1.6-.7.2-.7zm-8.4 4.7c-7.9 4.1-21.9 6.5-21.3 18.1 0 .5.8.5.8 0-.6-11.3 13.2-13.4 20.9-17.4.4-.2 0-.9-.4-.7z" class="st0"/>
    <path d="M634.1 372.72c1.6-5.4 5.4-9.6 10.5-11.9.4-.2.1-.8-.4-.6-5.3 2.4-9.2 6.8-10.8 12.4-.1.4.6.6.7.1zm4.7 2.3c2.5-5.3 6.7-9.3 12-11.6.4-.2.1-.8-.4-.6-5.5 2.3-9.8 6.5-12.3 11.9-.2.3.4.7.7.3zm5.3 2.5c1.5-4.5 4.9-8.1 9.4-9.9.4-.2.3-.9-.2-.7-4.7 1.9-8.3 5.6-9.9 10.4-.2.5.5.7.7.2z" class="st0"/>
    <g transform="translate(147 135.42)">
      <path d="M488.3-2.9c-.8-.6-2.1-1.5-3.5-2.9-1.4-1.5-3.4-3.5-4.5-6.6-.5-1.6-1.7-5.3.2-8.9.1-.3 2.1-3.7 6-4.6 1.3-.3 2.6-.3 8.5 1.7 6.8 2.3 6.6 2.8 12.4 4.8 2.3.7 4.1 1.3 6.7 2.6 1.8 1 3.2 1.7 4.6 3.1 3.2 3.2 4 7.1 4.2 8.2.4 2.1.8 4.4-.2 6.5-2.7 5.5-13.6 4.8-14.8 4.8-7.7-.6-13.5-4.6-19.6-8.7z" class="st0"/>
      <path d="M488.4-3.5c-.2 1.1-.4 2.7-.3 4.7 0 2.2.1 6.4 2.6 10.7.9 1.6 2.9 4.9 7.1 6.8 3.7 1.7 7 1.3 8.9 1.1 4.6-.5 7.7-2.5 8.4-3 .8-.6 2.2-1.5 3.5-3.1 2.1-2.6 2.7-5.2 3.6-9.3.5-2 .7-3.8.9-5.2-1-1.7-3.8-5.8-9.2-8.4-5.8-2.8-11-2.2-12-2-7.8.9-12.4 6.4-13.5 7.7z" class="st5"/>
      <path d="M488-2.9c-1.1 9.9 3.1 22.4 14.7 23.4 10.9.9 19.9-7.1 20-17.8 0-.5-.7-.5-.8 0-.1 10.5-9.9 19-20.6 16.9-10.3-2-13.6-13.3-12.6-22.4.1-.6-.7-.6-.7-.1z" class="st0"/>
      <path d="M497-1.8c-1.7 4-3.2 10.8 1.3 13.6.4.3.8-.4.4-.6-4.2-2.6-2.5-9.1-1-12.8.2-.4-.5-.6-.7-.2zm-8.7-1.8c-5.4-3.2-10-10-7.8-16.4 3-8.9 12.8-4.6 19-2.2 10.4 4 24.7 7.1 23.3 21.4 0 .5.7.5.8 0 .6-6.3-2.1-12.4-7.7-15.6-3.6-2.1-7.8-3.3-11.7-4.8-4.6-1.8-9.6-4.4-14.6-5.1-5.5-.7-9.9 3.1-10.4 8.6-.5 6 3.9 11.8 8.8 14.7.4.3.8-.4.3-.6z" class="st0"/>
      <path d="M488.7-3.3c8.3-12.5 26.8-8.8 34 2.7.3.4.9 0 .6-.4-7.5-12-26.6-15.6-35.3-2.7-.2.4.5.8.7.4z" class="st0"/>
      <ellipse cx="504.1" cy="-.4" class="st0" rx="1.2" ry="2.2"/>
    </g>
    <g>
      <path d="M617.2 130.62a19.59 19.59 0 015.7 8.4c-.6 1-1.5 2.7-2.6 4.6-1.4 2.2-6.4 10.3-16.7 20.9-2.9 3-1.5 1.3-11 10.3-8.5 8.1-18.9 18.2-27.2 19.8-2.1.4-4.3.4-4.3.4-1.6 0-5.2-.1-9.4-1.7-3.1-1.2-5.8-2.3-7.9-5-3-3.9-2.8-8.6-2.7-9.9.1-1 .4-4.4 4.8-10.6 3.3-4.6 7.1-8.5 11.6-12 5.7-4.5 10.6-6.9 15.8-9.5 1.9-1 7.7-3.7 21-8.4 5.9-2 13.6-4.6 22.9-7.3z" class="st8"/>
      <path d="M617.2 130.62c.8-.2 2.1-.6 3.7-1 5.3-1.4 6.3-1.2 9.5-2.2 3.4-1.1 3.1-1.6 6.2-2.4 2.1-.6 4.2-1.1 6.8-.7 3.7.5 7.6 2.9 7.4 4.6-.1.7-.8 1.1-1.3 1.4-2 1.2-3.9.3-6.1.3-1.6 0-3.8 1.2-8.4 3.7-4.5 2.4-5.5 3.4-8 3.6-1.9.2-3.6-.2-4.6-.6-.5-1-1.2-2.2-2.2-3.5-1.1-1.4-2.1-2.4-3-3.2z" class="st5"/>
      <path d="M616.2 131.02c-9.6 2.7-19 5.9-28.4 9.3-17 6.3-34.6 14.8-43.7 30.6-2.2 3.7-3.8 8.1-2.9 12.3 1.4 6.2 7.8 9.2 9.5 10 5.8 2.8 11.2 2 13.3 1.6" class="st9"/>
      <path d="M617 131.02c2.7 2.1 4.6 4.9 5.6 8.2.1.5.9.3.7-.2-1-3.5-3-6.5-5.9-8.7-.4-.3-.8.4-.4.7z" class="st0"/>
      <path d="M622.9 139.42c-7.6 13.2-17.7 25-29.6 34.5" class="st9"/>
      <path d="M623.6 137.72c3.7 1.1 6.8-.1 10-2.2 2.4-1.6 4.7-3.5 7.5-4.3 2.8-.7 6-.5 8.8-.7.5 0 .5-.8 0-.8-3.5.2-7.3-.1-10.6 1.2-5.3 2.2-9 7.9-15.6 5.9-.4 0-.6.7-.1.9zm-4.6-7.3c9.7-2 21.6-6.5 31-1.7.4.2.8-.4.4-.6-9.7-4.9-21.7-.4-31.6 1.7-.5-.1-.3.7.2.6z" class="st0"/>
      <path d="M630.4 127.72c2.4-.4 4.3-2 6.7-2.6 3.2-.9 6.4-.8 9.6.1.5.1.7-.6.2-.7-2.6-.7-5.2-1-7.8-.5-3.2.5-5.7 2.5-8.8 3.1-.6 0-.4.7.1.6z" class="st0"/>
    </g>
  </g>
  <g>
    <path d="M235 555.52l-38.8-50.9 95-32.2 46 40.3z" class="st10"/>
    <path d="M218.3 509.92l20.2 25.1m-4.5-39.4l27.2 33.6m-6.6-30l14.6 18.8m-1.8-30.3l19.1 24.7" class="st4"/>
    <path d="M470.8 639.12l51.6-45.2 58.2 6.7-45.1 48z" class="st10"/>
    <path d="M499.2 633.22l23.4 3.5m-19.1-14.4l41.2 5.8m-39-13.7l46.5 6.9m-32-15.5l40 5.7" class="st4"/>
    <path d="M604.5 607.12l70.5-68.4 61.9 3.8-57.4 84.8z" class="st10"/>
    <path d="M620.8 601.72l55.1-57.8 50.4 2.5-47.8 69.8z" class="st10"/>
    <path fill="none" stroke="#0c0c0c" stroke-miterlimit="10" stroke-width=".75" d="M629.1 603.82l55.7-59.5m-43.8 62.5l54.7-61.9m-42.7 64.9l52.4-64.4m-40.5 67.4l50-67m-86.5 47.9l58 11m-41.2-18l48.1 7.9m-39.6-17l47.5 5.4m-38.4-15.2l45.5 4.9m-46-14.6l52.9 4.4m-46-11.7l51.8 3.3"/>
    <path d="M679.5 627.32l-58.7-73.4 72.2-71.8 43.9 60.4z" class="st10"/>
    <path d="M679.1 557.02c-2.6-1-5.2-3.9-4.8-7 1.1-8.2 4.9-2.9 7-2.4 1.9.4 3.7 1.3 5.5 0 1.5-1.1 1.7-2.7 1.4-4.5-.3-2-1.7-4-.7-6.1 3.3-6.7 8.2.2 9.6 3.2.8 1.8 3.4.2 2.6-1.5-2.1-4.5-7.3-10-12.6-6.2-1.6 1.1-2.5 3-2.8 4.8a8.6 8.6 0 000 3.2c.2.9.4 1.8.8 2.6-1 2.2-2.3 2.5-3.8 1-4.4-2.1-8.7-1.1-9.8 4.2-1.1 5.1 2.2 9.7 6.8 11.5 1.8.8 2.6-2.1.8-2.8z" class="st3"/>
    <path d="M604.5 607.12c.4.6 1.1 1.4 2.2 2.2 2.1 1.5 4.1 1.7 6.9 2.1 2.4.4 4.8 1 7.2 1.3 8.2 1 22.1 5.5 35.3 9 5.6 1.5 13.6 3.5 23.4 5.5" class="st2"/>
    <path d="M620.8 553.92c-.3.6-.6 1.1-1 1.7 39.5 48 59.4 72 59.7 71.8.2-.3-19.4-24.7-58.7-73.5z" class="st2"/>
    <g>
      <path d="M602 544.32l-108.7 37.6c-.8.3-1.8.2-2.5-.3l-57.3-40.3c-1.9-1.3-1.4-4.3.9-4.9l102.1-26.2c.6-.2 1.3-.1 1.8.2l63.9 28.9c2.2.9 2.1 4.2-.2 5z" class="st3"/>
      <path d="M598.1 540.02l-104.3 36.4c-.8.3-1.7.2-2.4-.3l-55-39c-1.8-1.3-1.3-4.1.9-4.7 8-4.3 21-9.9 37.7-10.6 6-.3 11.5.2 16.2.9 5.9-3.2 13-6.7 21.4-9.6 8.4-3 16.1-4.8 22.7-6 .2-.1.5-.1.9-.1.3 0 .6.1.9.2l61.3 28c2.1.9 1.9 4-.3 4.8z" class="st5"/>
      <path d="M435.6 534.12c16.5-11.5 36.6-13.2 56.1-10.8.5.1.5-.7 0-.8-19.6-2.4-39.9-.7-56.5 10.9-.3.4 0 1 .4.7zm.9.9c18.3 11.6 36.3 23.7 54 36.2.4.3.8-.4.4-.6-17.7-12.5-35.7-24.6-54-36.2-.4-.3-.8.3-.4.6zm25.3 19.2c9.7 6.3 19.2 12.9 28.6 19.6.4.3.8-.4.4-.6-9.4-6.7-18.9-13.3-28.6-19.6-.5-.4-.8.3-.4.6z" class="st2"/>
      <path d="M491.3 523.02c13.8-8.7 29.3-14 45.6-15.5.5 0 .5-.8 0-.8-16.4 1.5-32 6.8-46 15.6-.4.3 0 1 .4.7zm3.1 1.8c16.9 10.2 33.4 21.1 49.5 32.5.4.3.8-.4.4-.6a896.79 896.79 0 00-49.5-32.5c-.5-.3-.9.4-.4.6zm-1.6 45.9c14.2-8.2 29.9-12.9 46.3-13.9.5 0 .5-.8 0-.8-16.5.9-32.3 5.7-46.6 14-.5.3-.1 1 .3.7zm53.2-15.4c15-7.6 30.7-13.6 47-17.9.5-.1.3-.8-.2-.7-16.4 4.3-32.1 10.3-47.2 17.9-.4.3 0 .9.4.7z" class="st2"/>
      <path d="M496.3 571.92c10.5-4.4 21.2-8.3 32-11.7.5-.1.3-.9-.2-.7-10.8 3.4-21.5 7.3-32 11.7-.4.2-.2.9.2.7zm19.9-4.7c5.9-2.2 11.9-4.2 17.8-6.2.5-.2.3-.9-.2-.7-6 2-11.9 4.1-17.8 6.2-.4.2-.2.9.2.7zm36.3-12.8c7.5-3.2 15.1-6.1 22.7-8.9.4-.2.3-.9-.2-.7-7.7 2.9-15.3 5.8-22.9 9-.4.2 0 .8.4.6zm22.2-6.8c6.6-2.6 13.2-5.1 19.9-7.7.4-.2.3-.9-.2-.7-6.6 2.6-13.2 5.1-19.9 7.7-.4.1-.2.8.2.7zm-87.7 13c12.1-5.8 24.9-9.6 38.3-11.3.5-.1.5-.8 0-.8-13.5 1.7-26.4 5.6-38.6 11.4-.5.2-.1.9.3.7zm18.8-2c3-1.3 6.1-2.1 9.3-2.5.5-.1.5-.8 0-.8-3.4.4-6.6 1.3-9.7 2.6-.4.3 0 .9.4.7zm-34.7-13.2c8.2-5.2 17.2-8 26.9-8.2.5 0 .5-.8 0-.8-9.8.2-19 3-27.2 8.3-.5.3-.1 1 .3.7zm12.2 3.6c4.9-2.1 9.9-3.7 15-4.9.5-.1.3-.8-.2-.7-5.1 1.2-10.1 2.8-15 4.9-.5.2-.3.9.2.7zm23.8-22.7a94.45 94.45 0 0135.4-12.2c.5-.1.5-.8 0-.8a95.36 95.36 0 00-35.8 12.3c-.4.3 0 .9.4.7zm22.9-1.3c4.6-2 9.3-3.6 14.2-4.7.5-.1.3-.8-.2-.7-5 1.1-9.8 2.7-14.4 4.8-.4.1 0 .8.4.6zm1.3 11.9c6.9-4.6 14.4-8 22.4-10.2.5-.1.3-.9-.2-.7a75.8 75.8 0 00-22.6 10.3c-.4.2 0 .9.4.6zm21 6.2c7.9-4.6 16.4-7.8 25.4-9.5.5-.1.3-.8-.2-.7-9.1 1.7-17.6 4.9-25.6 9.6-.4.2 0 .9.4.6zm-8.9-36.4c15.4 6.7 30.2 14.3 44.6 23 .4.2.8-.4.4-.6a383.2 383.2 0 00-44.6-23c-.5-.2-.8.5-.4.6z" class="st2"/>
    </g>
    <g>
      <path d="M348 593.92l-1.2-2.2 61.2-35 1.2 2.2z" class="st3"/>
      <path d="M349.2 590.72c.6.2 1.1.8 1.1 1.5 0 .5.8.5.8 0 0-1-.7-1.9-1.7-2.2-.4-.2-.6.6-.2.7z" class="st5"/>
      <path d="M408.4 556.52c1.5-.5 2.9-1 4.4-1.4.5-.1.3-.8-.2-.7-1.5.4-3 .9-4.4 1.4-.5.1-.3.8.2.7z"/>
      <path d="M410.4 558.62c1.1-.9 2.1-1.9 3-3 .3-.4-.2-.9-.5-.5-.9 1.1-1.9 2-3 3-.4.3.1.8.5.5z"/>
      <path d="M412 555.32c.2.1.3.3.5.4.3.2.7 0 .6-.4 0-.1-.1-.3-.1-.4 0 .1-.1.2-.1.4.5.1.7-.6.2-.7-.3-.1-.5 0-.8.2-.1.1-.1.2-.1.4 0 .1.1.3.1.4.2-.1.4-.2.6-.4-.2-.1-.3-.3-.5-.4-.2-.4-.8.1-.4.5z"/>
    </g>
  </g>
  <g>
    <path d="M283 550.32c-3.7 2.5-9.1 6.1-15.5 10.6-25.6 17.8-38.4 26.7-37 30.4 2.3 6.3 37.6-1.5 42.6-2.6 16.2-3.6 29.1-8.3 37.7-11.9.9-5.8 1.8-11.7 2.6-17.5-10.1-3.1-20.2-6-30.4-9z" class="st4"/>
    <path d="M259.2 567.32c3.6.1 5.9 2.9 7.8 5.6.3.4.9 0 .6-.4-2.1-3-4.6-5.9-8.5-6-.4.1-.4.8.1.8zm7.8-5.5c3.1 1.4 5.5 3.7 6.9 6.7.2.4.9.1.6-.4-1.5-3.1-4.1-5.6-7.2-7-.4-.2-.7.5-.3.7zm6.9-4.6c3.3 1.4 5.7 4.1 6.7 7.6.1.5.9.3.7-.2-1-3.6-3.6-6.6-7-8-.5-.2-.8.5-.4.6z" class="st5"/>
    <path d="M273.9 557.32c-1.8.6-5 1.2-6.7-.3.7-3.9 2-4.7 3.9-2.5.3.3.7.5 1 .8.9.8 1 1.2 2.1.9.2-.1.3-.4.5-.5 1.4-1.1 2.8-3.6 5-3.3 1.6-.6 1.9.4 1.1 2.9-.6.4-1.3.8-2 1.2-1.7.9-3.4 1.4-5.3 1.9-.5.1-.3.8.2.7 1.8-.4 11.7-3.3 9.3-6.6-2.8-4.1-7.8 3.2-10.4 2.4-2-.6-2.9-3.2-5.5-2.7-1.3.3-2.1 1.2-2.2 2.5-.2 4.4 6.3 4.4 9.1 3.5.5-.4.4-1.1-.1-.9z" class="st5"/>
    <path d="M346.3 386.72c-5.8 1.9-7.1 7.1-16 22.4-4.6 7.9-4.3 6.6-8.3 13.3-5.2 8.9-10.5 19.4-18.4 38.9-3.1 7.7-10.2 25.4-18.6 51.6-5.2 16-9 29.4-11.6 39 1 1.4 2.6 3.4 5.2 4.9 2.1 1.2 4.5 1.9 12 2 3.3.1 7.7 0 12.9-.4 2.9-5.1 7.3-12.5 12.9-21.4 3-4.8 6.5-10.2 19.2-29.2 4.2-6.3 9.8-14.6 16.5-24.5 2.6 1.9 14.5 10 29.9 7.4 16.8-2.8 25.4-16.2 28-20.3 14.2-22.1 4.2-47.7 2.9-50.7-9-7.4-16.9-12.4-22.4-15.6-10.9-6.2-12.6-5.4-21.5-11.4-2.3-1.6-5.2-3.6-9.6-5-3-.9-8.2-2.5-13.1-1z" class="st8"/>
    <path d="M273.7 552.12c8.8-30.8 18.2-61.5 30.5-91.1 6.3-15.2 13.4-30.1 21.6-44.4 3.9-6.9 8.1-13.7 12.6-20.3 2.1-3.1 4.6-7.5 8.2-9.2 6.1-2.9 12.2.7 17.7 3.3 17.3 8 33.5 18 48.6 29.7.4.3.9-.2.5-.5a256.37 256.37 0 00-43.9-27.5c-5.9-2.9-14.4-8.6-21.3-6.4-5.8 1.8-9.3 8.6-12.4 13.3-19.3 29.4-33.4 62-44.9 95.2-6.6 19.1-12.4 38.4-17.9 57.8-.1.4.6.6.7.1z" class="st2"/>
    <path d="M375.7 448.72a3140.9 3140.9 0 00-72.5 108.3c-.3.4.4.8.6.4 23.4-36.6 47.6-72.7 72.5-108.3.3-.4-.4-.7-.6-.4zm-99.3 107.2c7.4 5.3 16.2 4 24.6 2.3.5-.1.3-.8-.2-.7-8.2 1.6-16.7 2.9-24-2.3-.4-.3-.8.4-.4.7z" class="st2"/>
    <path d="M427.4 405.52c4.9-.4 27.7-1.7 46.7 14.6 17.5 14.9 20.7 35.2 21.9 42.4 1.6 10 .8 18.4-.1 24.1-2.7 2.3-6.9 5.4-12.5 7.9-8.9 3.9-16.7 4.2-21.8 4.4-23.4.6-35 .9-52.2-1-30.4-3.3-45.7-5.2-48.4-12.7-2.3-6.2 2.8-13.4 10.3-22.7 11.7-14.6 29.8-34.8 56.1-57z" class="st8"/>
    <path d="M392.5 497.02c19.8 1.7 39.8 2.9 59.7 2.6 15.4-.2 31.3-2.2 43.9-11.7.4-.3 0-.9-.4-.6-13.4 10.2-30.4 11.7-46.7 11.7-18.9 0-37.7-1-56.5-2.6-.4-.2-.4.5 0 .6z" class="st2"/>
    <path d="M441.3 271.72c-.1-1.6-.3-3.7-.4-6.2-.3-4.9-.5-8.1.1-12 .4-3 1-4.7 2.3-5.8 1.1-.9 2.5-1.3 2.9-1.4 1.3-.3 2.4-.2 3.8 0 1.1.1 2.1.4 2.7.5 1.1-4.5 2.5-9.2 3.6-9.1 1.2.1 1.4 5.9 1.4 6.9.1 3.6-.2 8.8-2.2 15-.1 1.4-.2 3.5-.8 5.9-.8 3.7-1.3 6-3 7.2-3.7 2.9-10.1-.8-10.4-1z" class="st5"/>
    <path d="M500.9 300.62c-.5-.3-1.3-.2-2.9-.1-4.5.3-7.3 2.2-12.3 4.8-2.2 1.2-4.5 2.2-6.8 3.4-.6.3-5.2 2.6-14.3 7.1-4.8 2.4-12.7 6.3-24.5 12 2.4-9.9 4.8-20 7.2-30.3 1.8-7.9 3.5-15.8 5.2-23.6-.6-.6-1.5-1.3-2.5-1.8-3.7-1.8-7.5-.7-8.6-.3-.7 1.6-1.9 4.4-3.3 7.8-3.7 8.7-10.9 25.4-17.4 42.6-5.6 14.9-.2 2.1-4.2 14.2-1.4 4.3-2.4 6.9-1.4 10 1.2 3.9 4.8 5.9 5.3 6.2 2.5 1.4 4.8 1.3 7.8 1.3 12.2-.1-1.8 1.1 14 .4 16.2-.8 24.4-1.2 26.4-1.8 15.5-4.4 24.3-16.7 25.6-18.6 8.5-13 11.1-30.8 6.7-33.3z" class="st3"/>
    <path d="M497.9 300.12c-9.3 1.6-18.4 7.8-26.8 12-9.8 4.9-19.6 9.8-29.5 14.6-.4.2-.1.9.4.6 9.2-4.6 18.5-9.2 27.7-13.7 4.5-2.2 8.9-4.4 13.4-6.7 4.8-2.4 9.6-5.2 15-6.1.5-.1.3-.8-.2-.7zm-56.9 26.5c4.1-17.5 8.1-35.1 11.9-52.7.1-.5-.6-.7-.7-.2-3.8 17.6-7.8 35.2-11.9 52.7-.2.5.5.7.7.2zm.4-54.5c3.4-1.1 6.9-.7 10 1.1.4.2.8-.4.4-.6-3.3-1.9-7-2.4-10.6-1.2-.5.1-.3.8.2.7z" class="st2"/>
    <path d="M439.7 274.72c-4.9 10.8-9.8 21.6-14.1 32.6-4.3 11-9.4 23.1-10.9 34.9-1.1 8.4 4.6 11 12 11.6 13.3 1.2 26.6.1 39.9-.9.5 0 .5-.8 0-.8-10.4.8-20.7 1.6-31.1 1.3-4.7-.1-10.4.2-14.9-1.5-8.1-3.1-4.5-12.8-2.9-19 5.5-20.1 14.2-39.1 22.7-58 .1-.2-.5-.6-.7-.2zm12.6-1.7c.8-2.1 1.5-4.3 2.3-6.4.6-1.6 1.4-3.4 1.5-5.1 0-2.1-1.2-3.4-3.1-4.1-1.2-.4-4.5-1.1-5.4.3-1.1 1.8 2.1 2.6 2.9 3.3.4.3.9-.2.5-.5.8.7-1.2-1-.9-.7-.3-.3-1.1-1.5-.6-2 .3-.3 1.9.1 2.2.2 2.2.4 3.8 1 3.5 4.4-.3 3.4-2.5 7.2-3.6 10.4-.1.5.6.7.7.2zm-11.5-14.2c.2-2.4.2-4.9.9-7.2.3-1.3.9-2.6 1.8-3.6 1.1-1.5 2.4-1.2 3.9.9 0 .7 0 1.5-.2 2.2-.1.5.6.7.7.2.3-1.4.6-3.6-.4-4.7s-2.7-.6-3.7.2c-3.6 2.6-3.3 8.1-3.7 12.1-.1.4.6.4.7-.1z" class="st2"/>
    <path d="M447.7 246.62c1.1-.9 2.4.1 2.8 1.2.4 1.1.2 2.2 0 3.3-.1.5.6.7.7.2.3-1.6.6-3.5-.6-4.9-.9-1-2.3-1.2-3.4-.4-.4.4.1.9.5.6z" class="st2"/>
    <path d="M451 247.02c.8-.3 1.5.1 1.9.8.4.9.2 1.9.1 2.9-.1.5.6.7.7.2.2-1.2.5-2.7-.4-3.8-.6-.8-1.6-1.2-2.5-.8-.5.1-.3.9.2.7z" class="st2"/>
    <path d="M452.9 246.92c.3-1.7.7-3.4 1.3-5 .5-1.3.5-2.5 2.1-2.3 1.7.2 1.2 1.5 1.2 3-.2 4.3-1.3 8.7-2.1 12.8-.1.5.6.7.7.2.8-3.9 1.5-7.8 2-11.7.3-2.3.5-4.8-1.2-6.6-.1-.1-.2-.1-.4-.1-2.9 1.2-3.8 6.9-4.3 9.5-.1.5.7.7.7.2z" class="st2"/>
    <g>
      <path d="M500.9 300.62a65.5 65.5 0 00-8.3 8c-2.2 2.5-3.9 4.9-5.8 7.6-4.1 6.1-6.9 11.6-9.7 17.4-5.5 11.2-10.5 21.6-15.8 36.4-1.1 3.1-2 5.7-2.6 7.5-2.9 2-6.8 4.7-11.3 8-4.4 3.3-8.6 6.4-13.7 10.8-3 2.6-6.9 6.1-11.3 10.6 3.5-.6 8.6-1 14.7-.3 11 1.3 19.1 5.7 23.7 8.7 6.4 4.3 10.3 8.8 12.4 11.4 3.1 3.7 6.4 8.5 10 16.3 7.8 17 11.3 35.9 12.6 44.5 2.7-2.6 6.5-6.4 10.8-11.4 10.5-12.2 16.4-22.9 23.6-36.1 7.9-14.4 12.7-25.7 14.3-29.7 1.2-2.8 5.4-13.1 9.7-27.2 3-9.7 6.3-22.1 9.1-36.6a131.7 131.7 0 00-19.6-20.6c-1.9-1.6-5.5-4.7-10.2-8-6.8-5.1-17.7-11.8-32.6-17.3z" class="st3"/>
      <path d="M500.8 300.92c24.7 9.2 46.3 25 62.4 45.8.3.4.8-.2.5-.5-16.2-20.9-38-36.8-62.8-46-.3-.2-.5.6-.1.7zm-12.3 11.9a306.33 306.33 0 00-30.1 64.6c-.2.5.6.7.7.2 7.5-22.6 17.6-44.1 30-64.4.3-.5-.4-.9-.6-.4zm-33.8 67c-11.5 7.9-22.4 16.6-32.6 26.2-.4.3.2.9.5.5 10.2-9.5 21-18.2 32.4-26.1.5-.2.1-.9-.3-.6z" class="st2"/>
      <path d="M422.6 407.22c20.3-3.5 40.7 6.1 52.6 22.4 11.7 16.1 17.6 37.6 20.4 57 .1.5.8.3.7-.2-3-20.9-9.5-44.5-23.5-61-12.2-14.4-31.7-22.2-50.5-19-.4.1-.2.9.3.8zm138.6-53c-9.6 48.7-31.4 94.4-63.4 132.3-.3.4.2.9.5.5 32-38.1 54-83.9 63.6-132.7.1-.3-.6-.5-.7-.1z" class="st2"/>
    </g>
    <g>
      <path d="M307.3 555.92c-3.7 2.5-9.1 6.1-15.5 10.6-25.6 17.8-38.4 26.7-37 30.4 2.3 6.3 37.6-1.5 42.6-2.6 16.2-3.6 29.1-8.3 37.7-11.9.9-5.8 1.8-11.7 2.6-17.5-10.2-3.1-20.3-6.1-30.4-9z" class="st4"/>
      <path d="M283.4 572.92c3.6.1 5.9 2.9 7.8 5.6.3.4.9 0 .6-.4-2.1-3-4.6-5.9-8.5-6-.4 0-.4.8.1.8zm7.8-5.5c3.1 1.4 5.5 3.7 6.9 6.7.2.4.9.1.6-.4-1.5-3.1-4.1-5.6-7.2-7-.3-.2-.7.5-.3.7zm6.9-4.6c3.3 1.4 5.7 4.1 6.7 7.6.1.5.9.3.7-.2-1-3.6-3.6-6.6-7-8-.4-.2-.8.4-.4.6z" class="st5"/>
      <path d="M298.1 562.82c-1.8.6-5 1.2-6.7-.3.7-3.9 2-4.7 3.9-2.5.3.3.7.5 1 .8.9.8 1 1.2 2.1.9.2-.1.3-.4.5-.5 1.4-1.1 2.8-3.6 5-3.3 1.6-.6 1.9.4 1.1 2.9-.6.4-1.3.8-2 1.2-1.7.9-3.4 1.4-5.3 1.9-.5.1-.3.8.2.7 1.8-.4 11.7-3.3 9.3-6.6-2.8-4.1-7.8 3.2-10.4 2.4-2-.6-2.9-3.2-5.5-2.7-1.3.3-2.1 1.2-2.2 2.5-.2 4.4 6.3 4.4 9.1 3.5.6-.3.4-1-.1-.9z" class="st5"/>
      <path d="M304.4 558.82c5.7-18.7 11.4-34.1 16-45.4 5.8-14.4 10.9-25.3 21.2-47.1 6.7-14.2 12.1-24.9 18.4-36.6 14.9-27.6 8-10 20.6-31.4 1.8-3.1 5.1-8.8 11.7-12 5.4-2.6 10.7-2.4 12.6-2.3 3.4.2 6.7 1 15.2 5.1 5.6 2.7 11 5.3 17 9.3 16.8 11.1 30.6 27.8 34.7 32.8 2 4.7 5.1 14.4 1.4 24-5.9 15.4-27.1 25.2-51.2 20.1-5.4 6.3-13.7 15.8-24.1 27.4-10.9 12.1-17.1 18.5-30.5 33-7.2 7.8-17.6 19.1-30.2 33-2.2.2-5.3.4-9 .3-6.3-.2-10.5-.3-15-2.5-2.1-1.1-5.6-3.2-8.8-7.7z" class="st8"/>
      <path d="M305.1 557.52c11.7-36 26.3-71 43.7-104.7 8.6-16.6 17.4-33.3 28-48.7 5.5-8 12.9-19.3 23.6-20 9.1-.6 18.6 4.6 26.4 8.7 17.6 9.3 32.9 22.6 44.7 38.6.3.4.9 0 .6-.4-10.3-14-23.1-25.9-38-34.9-12.1-7.3-31.4-19.1-44.6-8.3-7.1 5.8-12.5 14.2-17.3 21.9-5.5 8.7-10.6 17.6-15.5 26.6a709.94 709.94 0 00-28 56.7 702 702 0 00-24.4 64.3c-.1.5.6.7.8.2zm32.4 11.4c28.3-31 56.7-62 85-93 .3-.4-.2-.9-.5-.5-28.3 31-56.7 62-85 93-.3.3.2.9.5.5zm-32.2-9.2c6.5 10.3 19 10.6 29.8 8.7.5-.1.3-.8-.2-.7-10.5 1.8-22.6 1.6-29-8.4-.2-.4-.9-.1-.6.4z" class="st2"/>
      <path d="M258.4 591.72c6.8-6.5 14.2-12.5 22-17.8.4-.3 0-.9-.4-.6-7.9 5.3-15.3 11.3-22.1 17.9-.4.3.1.8.5.5z" class="st5"/>
    </g>
    <g transform="translate(147 135.42)">
      <path d="M370.5 156c-.7 1.7-1.5 3.8-2.2 6.2-1.1 3.5-1.6 5.3-1.5 7.7 0 1.1.1 3.6 1.4 6.4 1.8 4 5 6 6.6 6.9 1.9 1.2 3.7 1.8 4.8 2.1.1.7.1 1.3.2 2-1-.6-2.3-.6-3.3 0-.9.6-1.5 1.7-1.3 2.7.3 1.6 2.6 2.2 3.8 2.5 2.9.8 5.4 0 6.9-.5 1.6-.5 2.7-.9 3.9-1.9 2.5-2.2 2.6-5.6 2.6-6.6 3.7-1.9 6.2-4 7.6-5.5 1.4-1.5 2-2.4 2.3-3.1 1.3-2.5 1.2-4.9 1.2-6-.2-4.8-3-8.3-4.4-9.9-1.6-2-6.7-8.1-15.1-8.3-7.4-.2-12.3 4.1-13.5 5.3z" class="st5"/>
      <path d="M428.5 155.5c.1 6.3-2.6 15.8-9.7 18.5-4.7 1.8-9.2-.2-14.1-2.3-2.9-1.3-16.6-7.2-18.3-18.7-.5-3.7.1-9.1 2.9-10.4 3.1-1.5 6.7 3.2 10.3 1.5 2.4-1.1 1.8-3.7 4.3-5.9 3.5-3.3 10-2.8 14.2-1.1 7.6 3.2 10.3 12.3 10.4 18.4z"/>
      <path d="M369.6 159.4c.4-.6 3.6-4.7 7.7-5.5 1.1-.2 3.3-.6 5.1.6.6.4 1.6 1.4 2.8 7.9.8 4.5.5 5 1.3 7.6.8 2.5 1.6 4.8 3.9 6.2.3.2 2.3 1.3 4.7.9 1.1-.2 1.7-.6 3.8-1.8 1.7-.9 3.1-1.6 4.1-2.1.5-1.2 1.1-2.9 1.4-5 .2-1.2.3-3.2 0-5.6-.2-1-.9-5.3-3.8-8.8-1.6-1.9-4.3-4.1-11.4-5.8-8.2-2-23.6-3.6-25.5 1.4-.6 1.7 0 4.5 5.9 10z"/>
      <path d="M369.2 159.2c-3.7 7-4.4 15.6 1.6 21.6 5.2 5.2 15.2 7.4 21.5 3.1.4-.3 0-.9-.4-.6-6 4-15.8 2.1-20.6-3-5.7-5.8-5-13.9-1.5-20.7.3-.5-.3-.8-.6-.4z"/>
      <path d="M379.1 185.3c.1 1.1.2 2.1.4 3.2.1.5.8.5.8 0-.1-1.1-.2-2.1-.4-3.2-.1-.5-.9-.5-.8 0z"/>
      <path d="M376.1 187c-2.3 2.3-1.4 4.4 1.6 5.6 3.4 1.3 8.3.2 11.3-1.6.4-.3 0-.9-.4-.6-2 1.2-4.2 1.7-6.5 1.9-1.1.1-2.3.2-3.3-.1-1.7-.4-4.7-2-2.1-4.6.3-.4-.2-.9-.6-.6zm-2.7-23.3c-2 3.2-2.8 6.9-2.2 10.6.1.5.8.3.7-.2-.6-3.6.1-7 2.1-10 .4-.4-.3-.8-.6-.4zm-.1-10c7.3-5.6 19-8.2 26-.7 6.3 6.7 6.2 16.6 1.1 23.9-.3.4.4.8.6.4 5.6-8 5.2-19-2.2-25.8-7.4-6.7-18.9-3.7-26 1.8-.4.2.1.7.5.4z"/>
      <path d="M372 156c1.2-.6 2.4-1.4 3.7-1.8.9-.2 1.8-.4 2.7-.5l5.7 4.5c.9 1.7.6 4.4.9 6.3.5 3.4.9 7.8 3.4 10.5 4.8 5.4 9.4.7 14.1-1.5.4-.2.1-.9-.4-.6-1.7.8-3.2 2.6-4.9 3.2-5.4 2-8.8-1.3-10.3-6.1-1.3-4.2-.6-9.3-2.5-13.3-2.6-5.4-8.6-3.4-12.8-1.2-.4.1-.1.8.4.5z"/>
      <ellipse cx="370.5" cy="164.8" rx="1.3" ry=".8" transform="rotate(-63.55 370.54 164.81)"/>
      <ellipse cx="378.8" cy="167.4" rx="1.3" ry=".8" transform="rotate(-63.55 378.83 167.38)"/>
      <path d="M370.8 159.4c.9-1 2.5-.8 2.9.6.1.5.9.3.7-.2-.6-1.9-2.9-2.4-4.2-.9-.3.3.2.8.6.5zm8.4 2c1.7-1 3.1 1 3.3 2.5.1.5.8.5.8 0a3.8 3.8 0 00-1.5-2.9c-.9-.6-2-.7-2.9-.2-.5.2-.1.9.3.6z"/>
      <path d="M396.3 150.4c3.4-.8 6.8.6 8.7 3.3 2.1 3 1.9 7.2-.5 10.1.1-.4 1.6-5.8-1.9-10-2.3-2.6-5.4-3.2-6.3-3.4z" class="st5"/>
    </g>
    <g>
      <path d="M538 487.22c.4 1.9.7 3.4.9 4.5.4 2.5.4 3.2.9 4.3.3.6 1 2.4 2.6 3.6 1.2.9 2.4 1.1 5.8 1.3 5 .3 7.5.5 10.7.3 1.6-.1 3.1-.3 6.1-.7 6.5-.8 9.8-1.2 11.8-2 3.8-1.4 9-4.5 8.5-6.7-.1-.5-.5-1.5-6.9-3-6.7-1.6-12-1.8-12.3-1.8-7.4-.3-9.4.7-16.9.7-4.9.1-8.8-.2-11.2-.5z" class="st5"/>
      <path d="M539.8 320.82c-1.9 3.5-2.5 6.6-2.9 8.5-1 5.1-.4 8.2-.2 12.8.2 6.2-.6 9.4-1.4 15.8-1.9 15.3-1.9 32.7-1.9 49.3 0 14.4.5 25.3.6 28.6.6 13.6 1.9 31.2 4.7 51.8.4.4 1.9 1.6 4.2 1.6 2.1.1 3.6-.9 4-1.2.3-1.5.8-3.7 1.4-6.5 2.4-11.1 4-18.4 5.2-24 3.7-16.8 5.6-26.3 7.3-36.2.7-4.2 1.7-10.6 1-18.9-.4-4.4-1.1-7.9-1.6-10.4.3-1.8.7-4.5 1.3-7.7.8-4.8 4.8-24 5.4-27.3 4.9-24 1.9-14.4 4.2-24.4.6-2.5 1.9-7.9.3-14.3-1.3-5.2-3.5-7.3-4.1-7.8-3.2-2.7-7.1-2.7-8.7-2.7-5.5 0-9.4 2.9-11.6 4.5-1 .7-4.5 3.5-7.2 8.5z" class="st3"/>
      <path d="M538 326.12c2.7-9 10.4-17.3 20.2-17.9 13.9-.9 13.7 14.1 12.6 23.9-2.1 19-6.9 37.8-10.6 56.5-.1.5.6.7.7.2 2.6-13 5.2-26 7.7-39 1.1-5.6 2.1-11.2 2.7-16.8.7-5.6 1.5-11.8-.4-17.2-2.7-7.5-10.1-9.8-17.3-7.5-8.2 2.6-14.1 9.6-16.5 17.6.1.5.8.7.9.2zm-1.7 16c-4.7 47.6-4.3 95.6 1.4 143.1.1.5.8.5.8 0-5.7-47.5-6.2-95.5-1.4-143.1 0-.5-.7-.5-.8 0zm24 51.1c2.9 16 0 32-3.4 47.7-3.2 14.9-6.5 29.9-9.8 44.8-.1.5.6.7.7.2 3.5-16.2 7.2-32.3 10.6-48.5 3.1-14.6 5.3-29.5 2.6-44.3-.1-.6-.8-.4-.7.1zm-21.8 94.7c2.5 2.1 6 2.3 8.7.5.4-.3 0-.9-.4-.6a6.46 6.46 0 01-7.8-.4c-.3-.3-.9.2-.5.5zm0 4c.8 2.4.5 5.5 2.4 7.3 1.8 1.7 5.1 1.9 7.5 2.2 9.1 1.2 18.2-.6 27.1-2.3.5-.1.3-.8-.2-.7-6.7 1.3-13.5 2.6-20.4 2.6-3.3 0-6.9 0-10-1-5.3-1.7-4.3-4.4-5.6-8.3-.2-.5-1-.3-.8.2zm24 3.6c4.4-.6 8.8-1.1 12.7 1.5.4.3.8-.4.4-.6-4-2.6-8.6-2.2-13.1-1.6-.4 0-.4.8 0 .7zm-13.3-7.3c5.8-.3 11.6-.7 17.4-.7 6.8-.1 12.4 1.9 18.5 4.8.4.2.8-.4.4-.6-5-2.4-10-4.6-15.6-4.9-6.8-.4-13.8.4-20.6.7-.6-.1-.6.7-.1.7zm16.8 3.7c5.8-.2 11.6.5 17.2 2.1.5.1.7-.6.2-.7-5.7-1.6-11.5-2.3-17.4-2.1-.4 0-.4.7 0 .7z" class="st2"/>
      <path d="M569 489.22c4.7.3 9.2 1 13.7 2.3.5.1.7-.6.2-.7-4.6-1.3-9.2-2.1-13.9-2.3-.4 0-.4.7 0 .7z" class="st2"/>
    </g>
  </g>
</svg>
